{"glyphs":{"0":{"ha":793,"x_min":0,"x_max":0,"o":"m 58 489 b 385 -24 58 240 168 -24 b 735 553 611 -24 735 233 b 407 1065 735 735 661 1065 b 58 489 185 1065 58 817 z m 171 546 b 379 1014 171 828 250 1014 b 622 493 536 1014 622 757 b 413 28 622 219 538 28 b 171 546 242 28 171 303 z "},"1":{"ha":793,"x_min":0,"x_max":0,"o":"m 474 675 b 481 1036 475 888 481 1025 b 465 1065 481 1050 476 1065 b 432 1049 456 1065 444 1057 l 164 869 b 154 856 158 865 154 860 b 164 843 154 850 160 843 b 181 849 169 843 174 844 b 339 915 215 865 313 915 b 364 872 361 915 364 900 b 364 661 364 796 364 736 l 364 418 b 360 99 364 279 364 160 b 301 26 357 56 347 35 b 190 17 275 21 207 17 b 179 6 185 17 179 11 b 203 -4 179 -1 188 -4 b 415 0 292 -4 408 0 b 615 -4 422 0 511 -4 b 639 6 632 -4 639 -1 b 626 17 639 11 632 17 b 535 25 614 17 556 21 b 479 99 490 35 485 56 b 472 418 472 160 471 279 z "},"2":{"ha":793,"x_min":0,"x_max":0,"o":"m 594 0 b 685 42 653 0 674 4 b 726 224 699 89 726 197 b 718 244 726 232 725 244 b 701 224 710 244 706 239 b 539 90 685 150 640 100 b 301 83 489 85 325 83 l 200 83 b 197 93 193 83 190 88 b 681 785 369 240 681 497 b 367 1065 681 932 576 1065 b 122 1017 254 1065 174 1040 b 108 996 110 1008 108 1004 b 117 825 108 953 115 838 b 128 807 118 813 122 807 b 140 828 135 807 140 815 b 189 963 140 882 156 931 b 338 1015 229 1000 271 1015 b 558 758 431 1015 558 957 b 74 53 558 492 351 300 b 49 19 63 43 49 31 b 68 0 49 8 58 0 z "},"3":{"ha":793,"x_min":0,"x_max":0,"o":"m 583 282 b 332 36 583 117 472 36 b 124 224 186 36 133 117 b 114 243 122 239 121 243 b 103 222 107 243 104 236 b 93 49 99 192 93 114 b 115 10 93 32 96 22 b 285 -24 144 -7 228 -24 b 700 333 532 -24 700 139 b 471 600 700 494 558 579 l 471 607 b 657 857 514 626 657 718 b 382 1065 657 926 608 1065 b 157 1018 278 1065 200 1039 b 139 989 140 1007 139 1001 b 149 850 139 957 143 894 b 158 835 150 838 154 835 b 168 851 163 835 168 838 b 343 1015 168 958 242 1015 b 543 828 507 1015 543 886 b 322 586 543 665 390 599 b 290 569 304 583 290 579 b 326 551 290 560 300 557 b 583 282 417 533 583 468 z "},"4":{"ha":793,"x_min":0,"x_max":0,"o":"m 578 833 b 579 1042 578 910 579 1021 b 565 1065 579 1056 575 1065 b 536 1040 556 1065 547 1056 b 32 358 492 979 40 368 b 19 329 26 351 19 340 b 49 313 19 317 32 313 l 472 313 b 469 99 472 267 475 160 b 410 21 465 57 456 28 b 344 17 388 18 357 17 b 333 6 338 17 333 11 b 356 -4 333 -1 340 -4 b 517 0 432 -4 507 0 b 692 -4 526 0 615 -4 b 714 6 707 -4 714 -1 b 701 17 714 11 708 17 b 640 22 688 17 660 18 b 581 99 596 33 585 57 b 578 313 575 160 578 267 l 706 313 b 735 331 722 313 728 317 b 747 386 740 347 747 379 b 740 403 747 393 747 403 b 683 388 735 403 721 388 l 578 388 z m 472 388 l 117 388 b 469 879 143 422 449 843 l 472 879 z "},"5":{"ha":793,"x_min":0,"x_max":0,"o":"m 264 954 l 526 954 b 649 865 636 954 649 918 b 657 847 649 856 651 847 b 668 863 663 847 667 856 b 686 1038 682 964 686 1025 b 676 1051 686 1049 682 1051 b 647 1047 672 1051 664 1049 b 567 1042 631 1044 606 1042 l 240 1042 b 214 1024 225 1042 215 1038 l 182 669 b 218 644 181 654 190 646 b 571 307 325 639 571 531 b 326 38 571 115 443 38 b 136 217 225 38 136 68 b 125 240 136 233 133 240 b 113 215 119 240 115 229 b 107 40 106 171 107 88 b 133 1 107 26 110 14 b 261 -24 168 -18 219 -24 b 678 360 542 -24 678 181 b 244 740 678 607 421 714 z "},"6":{"ha":793,"x_min":0,"x_max":0,"o":"m 619 271 b 421 29 619 118 532 29 b 189 376 261 29 189 214 b 563 1028 189 706 385 929 b 589 1053 576 1036 589 1042 b 578 1065 589 1061 583 1065 b 549 1056 572 1065 561 1061 b 68 376 279 939 68 646 b 394 -24 68 124 200 -24 b 635 69 497 -24 569 7 b 735 333 696 129 735 224 b 456 615 735 457 649 615 b 294 567 378 615 322 586 b 282 550 286 561 282 557 b 288 539 282 543 283 539 b 306 544 292 539 301 543 b 410 563 338 560 374 563 b 619 271 494 563 619 464 z "},"7":{"ha":793,"x_min":0,"x_max":0,"o":"m 281 1042 b 149 1056 190 1042 157 1056 b 135 1036 140 1056 135 1050 b 114 815 135 1022 114 860 b 122 793 114 800 115 793 b 135 813 129 793 133 800 b 188 919 139 851 158 896 b 317 954 221 947 276 954 l 658 954 b 244 38 449 590 299 219 b 236 -10 240 25 236 4 b 249 -24 236 -19 240 -24 b 385 61 276 -24 385 33 b 385 110 385 76 382 86 b 747 1001 406 290 635 835 b 756 1028 754 1013 756 1022 b 731 1042 756 1036 749 1042 z "},"8":{"ha":793,"x_min":0,"x_max":0,"o":"m 74 246 b 389 -24 74 78 215 -24 b 719 282 588 -24 719 121 b 478 585 719 453 569 538 b 676 853 556 624 676 707 b 422 1065 676 989 567 1065 b 126 817 219 1065 126 922 b 321 556 126 693 213 619 b 74 246 194 506 74 401 z m 400 29 b 181 260 271 29 181 136 b 368 533 181 399 265 483 b 613 250 493 468 613 401 b 400 29 613 126 528 29 z m 406 1018 b 579 836 513 1018 579 942 b 431 607 579 694 485 639 b 225 843 317 668 225 726 b 406 1018 225 919 281 1018 z "},"9":{"ha":793,"x_min":0,"x_max":0,"o":"m 400 1065 b 68 742 208 1065 68 933 b 349 474 68 625 151 474 b 515 538 404 474 475 494 b 521 549 519 542 521 544 b 514 558 521 553 518 558 b 496 550 510 558 504 556 b 385 525 478 539 450 525 b 176 801 347 525 176 571 b 367 1014 176 911 242 1014 b 596 647 489 1014 596 890 b 218 0 596 321 382 90 b 204 -19 210 -4 204 -11 b 215 -33 204 -28 210 -33 b 238 -28 221 -33 229 -32 b 718 688 407 57 718 297 b 400 1065 718 899 596 1065 z "}," ":{"ha":451,"x_min":0,"x_max":0,"o":""},"!":{"ha":444,"x_min":0,"x_max":0,"o":"m 199 286 b 219 214 201 232 206 214 b 236 258 233 214 235 239 b 268 868 239 292 267 843 b 289 1051 275 971 289 1042 b 281 1065 289 1063 286 1065 b 260 1058 275 1065 271 1064 b 157 964 221 1039 176 997 b 150 944 153 957 150 951 b 156 918 150 938 153 929 b 176 656 167 875 175 676 z m 222 -24 b 294 51 265 -24 294 10 b 224 118 294 92 264 118 b 153 47 174 118 153 76 b 222 -24 153 15 174 -24 z "},"\"":{"ha":451,"x_min":0,"x_max":0,"o":"m 139 1049 b 81 1029 104 1049 81 1049 b 124 785 81 1007 111 938 b 139 722 128 729 132 722 b 154 785 146 722 150 729 b 197 1029 167 938 197 1007 b 139 1049 197 1049 174 1049 z m 313 1049 b 254 1029 278 1049 254 1049 b 297 785 254 1007 285 938 b 313 722 301 729 306 722 b 328 785 319 722 324 729 b 371 1029 340 938 371 1007 b 313 1049 371 1049 347 1049 z "},"#":{"ha":793,"x_min":0,"x_max":0,"o":"m 749 639 l 749 717 l 593 717 l 638 1047 l 589 1047 l 544 717 l 322 717 l 368 1047 l 318 1047 l 272 717 l 89 717 l 89 639 l 261 639 l 226 411 l 44 411 l 44 333 l 214 333 l 161 0 l 210 0 l 263 333 l 489 333 l 438 0 l 486 0 l 536 333 l 707 333 l 707 411 l 549 411 l 582 639 z m 533 639 l 500 411 l 276 411 l 311 639 z "},"$":{"ha":793,"x_min":0,"x_max":0,"o":"m 389 0 b 683 276 486 0 683 69 b 440 594 683 432 572 508 l 481 1008 b 585 968 514 1008 561 990 b 625 858 621 935 625 893 b 636 838 625 842 629 838 b 647 851 642 838 646 840 b 653 1014 650 875 653 986 b 642 1035 653 1026 650 1031 b 486 1054 617 1044 554 1054 l 499 1181 b 488 1188 499 1188 494 1189 l 456 1178 b 447 1165 450 1176 447 1172 l 438 1054 b 150 804 318 1054 150 975 b 385 497 150 679 231 606 l 344 53 b 193 114 289 53 229 71 b 157 243 158 154 156 194 b 150 274 158 267 157 274 b 135 247 143 274 138 264 b 119 83 131 231 119 158 b 158 33 119 54 124 49 b 340 0 213 10 304 0 l 329 -118 b 339 -132 328 -129 331 -133 l 365 -124 b 379 -112 372 -122 378 -119 z m 396 629 b 243 840 296 699 243 757 b 432 1008 243 981 383 1008 z m 431 465 b 583 246 525 404 583 339 b 394 53 583 133 513 58 z "},"%":{"ha":1208,"x_min":0,"x_max":0,"o":"m 899 0 b 1139 265 1065 0 1139 139 b 908 510 1139 375 1067 510 b 668 244 739 510 668 372 b 899 0 668 136 738 0 z m 904 39 b 754 264 803 39 754 156 b 901 471 754 376 796 471 b 1053 246 1000 471 1053 354 b 904 39 1053 135 1011 39 z m 417 -6 b 431 11 424 -4 425 -1 l 839 1028 b 854 1068 847 1049 854 1061 b 844 1074 854 1072 850 1074 b 317 1042 808 1074 553 1042 b 69 775 149 1042 69 904 b 300 531 69 667 139 531 b 539 796 464 531 539 669 b 449 994 539 885 499 960 l 449 997 b 776 1019 472 996 689 1015 b 338 -1 764 990 476 310 b 353 -17 333 -10 338 -19 z m 306 569 b 156 794 204 569 156 686 b 303 1003 156 907 197 1003 b 453 776 401 1003 453 885 b 306 569 453 665 413 569 z "},"&":{"ha":1076,"x_min":0,"x_max":0,"o":"m 407 -24 b 754 126 613 -24 722 94 b 1043 -4 907 6 940 -4 l 1179 -4 b 1203 6 1192 -4 1203 0 b 1183 15 1203 14 1196 15 b 1018 69 1133 15 1063 43 b 826 207 979 92 918 129 b 964 535 888 282 964 422 b 939 563 964 549 960 560 b 772 572 861 571 806 572 b 750 563 761 572 750 569 b 767 553 750 556 758 553 b 835 531 788 553 817 549 b 861 463 856 510 861 483 b 790 232 861 378 829 285 b 528 481 746 269 575 429 b 308 836 383 638 308 728 b 485 1018 308 967 401 1018 b 624 957 546 1018 593 989 b 667 839 658 921 667 875 b 675 813 667 818 668 813 b 689 836 681 813 685 815 b 699 996 693 857 699 954 b 681 1031 699 1013 697 1021 b 513 1065 643 1051 583 1065 b 214 810 326 1065 214 919 b 282 618 214 747 231 690 b 69 283 174 554 69 446 b 407 -24 69 163 164 -24 z m 456 50 b 178 349 300 50 178 175 b 303 582 178 460 231 535 b 467 388 342 525 431 426 b 718 153 503 349 640 217 b 456 50 671 104 585 50 z "},"’":{"ha":278,"x_min":0,"x_max":0,"o":"m 118 1017 b 72 818 118 938 93 863 b 67 800 68 808 67 804 b 74 793 67 796 71 793 b 92 804 81 793 86 796 b 211 1078 140 863 211 979 b 188 1114 211 1099 204 1106 b 90 1139 165 1122 113 1139 b 78 1131 85 1139 78 1135 b 90 1107 78 1124 79 1119 b 118 1017 100 1096 118 1060 z "},"(":{"ha":500,"x_min":0,"x_max":0,"o":"m 190 443 b 389 1007 190 725 322 940 b 399 1022 394 1013 399 1018 b 389 1033 399 1028 394 1033 b 374 1025 385 1033 379 1029 b 86 425 288 964 86 721 b 375 -165 86 131 267 -85 b 388 -172 381 -169 385 -172 b 397 -162 393 -172 397 -168 b 388 -146 397 -157 393 -153 b 190 443 272 -8 190 157 z "},")":{"ha":500,"x_min":0,"x_max":0,"o":"m 310 418 b 111 -146 310 136 178 -79 b 101 -161 106 -151 101 -157 b 111 -172 101 -167 106 -172 b 126 -164 115 -172 121 -168 b 414 439 213 -103 414 140 b 125 1026 414 731 233 946 b 113 1033 119 1031 115 1033 b 103 1024 107 1033 103 1029 b 113 1007 103 1018 107 1014 b 310 418 228 869 310 704 z "},"*":{"ha":486,"x_min":0,"x_max":0,"o":"m 288 1107 b 276 1122 288 1118 283 1122 b 188 1082 251 1122 188 1096 b 193 1067 188 1079 190 1072 b 229 931 200 1051 231 949 b 228 921 229 926 229 924 b 217 922 224 919 221 919 b 60 1011 201 935 101 1011 b 46 1000 51 1011 46 1007 b 61 907 46 978 50 907 b 78 911 64 907 69 911 b 210 901 96 911 178 910 b 215 897 213 901 215 900 b 211 889 215 894 214 892 b 72 763 193 874 88 783 b 63 740 64 751 63 746 b 150 722 63 731 107 722 b 167 729 161 722 167 725 b 175 761 167 740 172 751 b 228 876 182 781 221 865 b 233 881 229 881 232 881 b 239 872 236 881 238 875 b 299 729 250 838 283 757 b 318 710 306 717 313 710 b 389 779 339 710 389 757 b 374 792 389 785 386 788 b 257 889 357 797 274 861 b 256 899 254 893 254 897 b 264 901 258 900 260 901 b 424 907 306 903 418 906 b 440 919 436 910 440 913 b 401 1007 440 947 411 1007 b 388 997 397 1007 394 1003 b 257 921 376 985 319 938 b 250 921 253 919 251 919 b 250 931 249 924 249 928 b 288 1107 267 983 288 1072 z "},"+":{"ha":708,"x_min":0,"x_max":0,"o":"m 650 338 l 650 408 l 390 408 l 390 668 l 318 668 l 318 408 l 58 408 l 58 338 l 319 338 l 319 78 l 392 78 l 392 338 z "},",":{"ha":347,"x_min":0,"x_max":0,"o":"m 154 -3 b 121 -101 154 -29 144 -61 b 111 -121 118 -107 111 -115 b 121 -131 111 -126 117 -131 b 139 -118 126 -131 133 -125 b 228 31 178 -75 214 -1 b 242 85 235 49 242 74 b 218 144 242 97 236 117 b 193 171 204 167 200 171 b 107 96 157 171 107 135 b 154 -3 107 79 154 61 z "},"-":{"ha":542,"x_min":0,"x_max":0,"o":"m 101 431 b 71 419 79 431 74 429 l 50 342 b 57 321 47 329 49 321 b 114 342 64 321 88 335 b 444 393 161 354 407 388 b 493 417 467 397 493 400 b 451 431 493 428 475 431 z "},".":{"ha":347,"x_min":0,"x_max":0,"o":"m 172 0 b 250 81 219 0 250 36 b 174 153 250 125 217 153 b 97 76 119 153 97 108 b 172 0 97 42 119 0 z "},"/":{"ha":767,"x_min":0,"x_max":0,"o":"m 76 -21 b 93 -14 82 -24 88 -24 l 738 1022 b 735 1036 740 1026 740 1032 l 693 1061 b 674 1056 683 1067 679 1064 l 33 29 b 32 8 26 18 26 11 z "},":":{"ha":347,"x_min":0,"x_max":0,"o":"m 172 42 b 250 122 219 42 250 78 b 174 194 250 167 217 194 b 97 118 119 194 97 150 b 172 42 97 83 119 42 z m 172 511 b 250 592 219 511 250 547 b 174 664 250 636 217 664 b 97 588 119 664 97 619 b 172 511 97 553 119 511 z "},";":{"ha":347,"x_min":0,"x_max":0,"o":"m 161 -3 b 128 -101 161 -29 151 -61 b 118 -121 125 -107 118 -115 b 128 -131 118 -126 124 -131 b 146 -118 133 -131 140 -125 b 235 31 185 -75 221 -1 b 249 85 242 49 249 74 b 225 144 249 97 243 117 b 200 171 211 167 207 171 b 114 96 164 171 114 135 b 161 -3 114 79 161 61 z m 172 511 b 250 592 219 511 250 547 b 174 664 250 636 217 664 b 97 588 119 664 97 619 b 172 511 97 553 119 511 z "},"<":{"ha":708,"x_min":0,"x_max":0,"o":"m 35 329 l 626 54 l 626 128 l 111 365 l 626 601 l 626 675 l 35 403 z "},"=":{"ha":708,"x_min":0,"x_max":0,"o":"m 650 457 l 650 528 l 58 528 l 58 457 z m 650 213 l 650 283 l 58 283 l 58 213 z "},">":{"ha":708,"x_min":0,"x_max":0,"o":"m 650 329 l 650 403 l 58 675 l 58 601 l 575 365 l 58 128 l 58 54 z "},"?":{"ha":678,"x_min":0,"x_max":0,"o":"m 310 1018 b 472 839 436 1018 472 907 b 350 547 472 747 447 671 b 254 432 319 508 286 474 b 224 363 233 406 224 382 b 264 281 224 338 236 315 b 322 232 281 260 310 232 b 338 244 328 232 338 239 b 325 268 338 249 335 256 b 299 339 306 294 299 318 b 356 450 299 363 304 385 b 594 849 489 615 594 686 b 343 1065 594 949 526 1065 b 113 1010 236 1065 154 1035 b 97 988 99 1001 97 996 b 103 825 97 933 99 844 b 114 811 104 815 107 811 b 125 835 121 811 124 821 b 174 964 129 882 140 924 b 310 1018 196 992 242 1018 z m 311 -24 b 383 51 354 -24 383 10 b 313 118 383 92 353 118 b 242 47 263 118 242 76 b 311 -24 242 15 263 -24 z "},"@":{"ha":1258,"x_min":0,"x_max":0,"o":"m 1167 543 b 717 936 1167 772 1021 936 b 92 304 381 936 92 640 b 551 -150 92 -7 303 -150 b 963 0 738 -150 890 -71 b 985 38 983 21 988 32 b 947 28 982 44 969 46 b 582 -99 854 -47 767 -99 b 185 315 350 -99 185 54 b 707 901 185 646 382 901 b 1103 539 968 901 1103 740 b 885 193 1103 326 996 193 b 797 385 790 193 789 286 b 833 597 801 440 818 546 b 885 708 850 656 878 697 b 874 724 888 717 882 726 b 793 664 847 715 806 679 b 715 681 781 669 757 681 b 536 603 671 681 597 649 b 371 272 496 572 371 469 b 444 140 371 200 404 140 b 697 346 503 140 606 208 l 701 344 b 710 206 697 272 699 246 b 807 135 722 161 764 135 b 981 193 864 135 922 154 b 1167 543 1096 269 1167 399 z m 757 607 b 707 415 731 531 724 496 b 506 219 658 335 556 219 b 472 304 483 219 472 269 b 514 504 472 365 488 442 b 672 632 553 593 604 632 b 757 607 701 632 743 615 z "},"A":{"ha":972,"x_min":0,"x_max":0,"o":"m 132 149 b 15 18 107 79 79 26 b -25 15 4 17 -15 15 b -37 7 -32 15 -37 13 b -11 -4 -37 -1 -29 -4 b 146 0 54 -4 131 0 b 254 -4 161 0 221 -4 b 275 7 267 -4 275 -1 b 261 15 275 13 271 15 l 247 15 b 194 56 224 15 194 28 b 214 149 194 81 201 114 l 297 394 b 311 406 300 401 304 406 l 610 406 b 622 397 617 406 619 403 l 751 56 b 743 18 760 33 751 21 b 733 8 738 17 733 14 b 775 -1 733 0 749 0 b 993 -4 871 -4 972 -4 b 1021 7 1008 -4 1021 -1 b 1007 15 1021 14 1015 15 b 951 24 993 15 972 17 b 832 178 922 32 882 54 b 508 1015 747 389 529 963 b 478 1065 492 1058 486 1065 b 447 1011 469 1065 464 1057 z m 326 456 b 322 465 322 456 319 458 l 444 840 b 465 840 451 861 458 861 l 597 465 b 592 456 599 460 599 456 z "},"B":{"ha":954,"x_min":0,"x_max":0,"o":"m 247 399 b 240 97 247 265 247 156 b 200 21 235 57 228 26 b 158 15 188 18 171 15 b 147 7 150 15 147 11 b 169 -4 147 -1 154 -4 b 250 -1 190 -4 222 -1 b 306 0 279 0 303 0 b 390 -4 311 0 350 -1 b 490 -8 431 -6 475 -8 b 844 294 728 -8 844 146 b 604 588 844 457 707 556 b 735 838 669 656 735 724 b 457 1046 735 907 685 1046 b 306 1042 393 1046 339 1042 b 149 1046 299 1042 211 1046 b 126 1035 133 1046 126 1043 b 138 1026 126 1029 132 1026 b 185 1022 150 1026 174 1025 b 244 943 231 1013 242 990 b 247 643 247 899 247 860 z m 358 985 b 375 1000 358 993 363 997 b 442 1007 397 1006 426 1007 b 629 768 578 1007 629 883 b 579 628 629 711 608 661 b 453 592 550 594 531 592 b 368 597 401 592 376 596 b 358 613 361 600 358 603 z m 358 544 b 367 554 358 551 361 554 b 475 551 388 554 457 554 b 590 511 508 547 543 543 b 725 233 697 438 725 317 b 529 36 725 76 604 36 b 407 57 504 36 444 39 b 360 165 364 78 364 97 b 358 465 358 186 358 358 z "},"C":{"ha":1118,"x_min":0,"x_max":0,"o":"m 715 -24 b 965 8 804 -24 910 -14 b 1001 49 990 19 993 22 b 1032 226 1015 96 1032 217 b 1022 247 1032 238 1029 247 b 1008 226 1014 247 1011 242 b 957 110 1004 201 986 140 b 715 40 901 53 819 40 b 214 549 418 40 214 283 b 339 911 214 690 238 814 b 658 1013 388 958 474 1013 b 936 933 781 1013 888 975 b 994 792 972 903 994 846 b 1006 763 994 772 996 763 b 1018 792 1014 763 1017 771 b 1022 935 1019 813 1019 889 b 1029 1013 1025 985 1029 1001 b 1011 1028 1029 1021 1026 1026 b 869 1049 967 1031 922 1039 b 668 1065 801 1061 724 1065 b 244 917 454 1065 328 1000 b 89 538 121 793 89 631 b 257 126 89 406 122 247 b 715 -24 367 28 507 -24 z "},"D":{"ha":1274,"x_min":0,"x_max":0,"o":"m 247 399 b 240 97 247 265 247 156 b 200 21 235 57 228 26 b 158 15 188 18 171 15 b 147 7 150 15 147 11 b 169 -4 147 -1 154 -4 b 250 -1 190 -4 222 -1 b 306 0 279 0 303 0 b 421 -8 313 0 360 -4 b 614 -17 481 -12 554 -17 b 1035 143 850 -17 975 81 b 1185 535 1113 225 1185 360 b 1050 888 1185 700 1119 815 b 493 1046 885 1058 631 1046 b 306 1042 410 1046 322 1042 b 149 1046 299 1042 211 1046 b 126 1035 133 1046 126 1043 b 138 1026 126 1029 132 1026 b 185 1022 150 1026 174 1025 b 244 943 231 1013 242 990 b 247 643 247 899 247 860 z m 364 665 b 365 961 364 772 364 914 b 382 989 365 976 369 983 b 472 999 393 994 444 999 b 926 842 638 999 796 979 b 1060 492 983 782 1060 668 b 949 160 1060 364 1021 231 b 618 31 867 78 747 31 b 382 86 454 31 400 60 b 367 192 371 101 368 157 b 364 493 365 218 364 346 z "},"E":{"ha":847,"x_min":0,"x_max":0,"o":"m 247 399 b 240 97 247 265 247 156 b 200 21 235 57 228 26 b 158 15 188 18 171 15 b 147 7 150 15 147 11 b 169 -4 147 -1 154 -4 b 250 -1 190 -4 222 -1 b 306 0 279 0 303 0 b 414 -4 326 0 360 -1 b 649 -8 468 -6 544 -8 b 724 28 703 -8 714 -8 b 742 163 731 57 742 151 b 733 183 742 172 742 183 b 721 163 726 183 724 178 b 658 63 711 106 694 78 b 525 47 622 47 561 47 b 364 161 389 47 368 65 b 364 399 363 190 364 351 l 364 521 b 374 531 364 526 367 531 b 572 524 397 531 535 528 b 644 475 626 518 639 494 b 650 429 650 457 650 443 b 660 417 650 422 653 417 b 669 443 669 417 669 432 b 675 532 669 453 672 504 b 686 610 679 578 686 601 b 679 621 686 618 683 621 b 658 603 674 621 668 614 b 593 583 646 589 626 586 b 372 581 561 581 390 581 b 364 594 365 581 364 585 l 364 978 b 372 992 364 988 367 992 b 563 988 388 992 539 990 b 661 940 638 979 651 963 b 669 890 668 924 669 900 b 681 872 669 879 672 872 b 690 888 686 872 689 881 b 697 979 693 904 696 965 b 708 1044 701 1018 708 1035 b 703 1057 708 1051 707 1057 b 683 1050 696 1057 690 1051 b 624 1043 672 1047 650 1044 b 306 1042 592 1042 315 1042 l 249 1044 b 149 1046 218 1046 181 1046 b 126 1035 133 1046 126 1043 b 138 1026 126 1029 132 1026 b 185 1022 150 1026 174 1025 b 244 943 231 1013 242 990 b 247 643 247 899 247 860 z "},"F":{"ha":822,"x_min":0,"x_max":0,"o":"m 247 399 b 240 97 247 265 247 156 b 200 21 235 57 228 26 b 158 15 188 18 171 15 b 147 7 150 15 147 11 b 169 -4 147 -1 154 -4 b 306 0 211 -4 299 0 b 476 -4 313 0 400 -4 b 499 7 492 -4 499 0 b 488 15 499 11 496 15 b 425 21 475 15 444 18 b 371 97 383 26 375 57 b 364 399 364 156 364 265 l 364 517 b 374 529 364 526 367 529 b 583 525 397 529 549 529 b 656 475 626 519 649 494 b 664 425 661 458 663 439 b 674 413 664 418 667 413 b 683 439 683 413 683 426 b 689 532 683 449 686 504 b 700 610 693 578 700 601 b 693 621 700 617 699 621 b 678 607 688 621 683 614 b 614 582 665 589 647 585 b 551 581 594 581 575 581 l 374 579 b 364 592 365 579 364 583 l 364 975 b 376 990 364 986 368 990 l 590 986 b 685 942 644 985 676 960 b 697 889 693 924 697 900 b 707 872 697 879 700 872 b 718 888 714 872 717 881 b 725 979 721 904 724 965 b 736 1044 729 1018 736 1035 b 728 1057 736 1051 733 1057 b 708 1049 722 1057 717 1051 b 647 1043 696 1044 674 1044 b 306 1042 615 1042 333 1040 l 249 1044 b 149 1046 218 1046 181 1046 b 126 1035 133 1046 126 1043 b 138 1026 126 1029 132 1026 b 185 1022 150 1026 174 1025 b 244 943 231 1013 242 990 b 247 643 247 899 247 860 z "},"G":{"ha":1197,"x_min":0,"x_max":0,"o":"m 907 114 b 879 65 907 90 897 75 b 721 36 843 44 771 36 b 357 185 593 36 467 78 b 210 569 308 232 210 374 b 347 922 210 732 267 858 b 644 1014 453 1006 557 1014 b 971 901 824 1014 936 954 b 1000 810 992 868 999 829 b 1010 789 1001 797 1003 789 b 1022 818 1019 789 1022 796 b 1032 1015 1022 957 1032 996 b 1015 1028 1032 1021 1029 1026 b 903 1042 981 1029 932 1035 b 690 1065 876 1047 778 1065 b 321 978 583 1065 446 1056 b 89 521 197 900 89 743 b 254 125 89 347 169 199 b 711 -24 408 -10 606 -24 b 1006 39 792 -24 917 -8 b 1024 114 1022 49 1024 51 l 1024 269 b 1026 414 1024 328 1024 369 b 1078 493 1029 463 1040 486 b 1113 497 1094 496 1103 497 b 1124 506 1118 497 1124 500 b 1101 517 1124 514 1117 517 b 965 513 1060 517 972 513 b 808 517 958 513 871 517 b 786 506 793 517 786 514 b 797 497 786 500 792 497 b 844 493 810 497 833 496 b 907 350 900 478 907 463 z "},"H":{"ha":1333,"x_min":0,"x_max":0,"o":"m 1086 643 b 1089 943 1086 860 1086 899 b 1140 1022 1092 992 1103 1015 b 1175 1026 1157 1025 1165 1026 b 1186 1035 1181 1026 1186 1029 b 1164 1046 1186 1043 1179 1046 b 1028 1042 1122 1046 1035 1042 b 871 1046 1021 1042 933 1046 b 849 1035 856 1046 849 1043 b 860 1026 849 1029 854 1026 b 907 1022 872 1026 896 1025 b 967 943 953 1013 964 990 b 969 643 969 899 969 860 l 969 614 b 961 606 969 607 965 606 l 372 606 b 364 614 368 606 364 607 l 364 643 b 367 943 364 860 364 899 b 418 1022 369 992 381 1015 b 453 1026 435 1025 443 1026 b 464 1035 458 1026 464 1029 b 442 1046 464 1043 457 1046 b 306 1042 400 1046 313 1042 b 149 1046 299 1042 211 1046 b 126 1035 133 1046 126 1043 b 138 1026 126 1029 132 1026 b 185 1022 150 1026 174 1025 b 244 943 231 1013 242 990 b 247 643 247 899 247 860 l 247 399 b 240 97 247 265 247 156 b 200 21 235 57 228 26 b 158 15 188 18 171 15 b 147 7 150 15 147 11 b 169 -4 147 -1 154 -4 b 306 0 211 -4 299 0 b 476 -4 313 0 400 -4 b 499 7 492 -4 499 0 b 488 15 499 11 496 15 b 425 21 475 15 444 18 b 371 97 383 26 375 57 b 364 399 364 156 364 265 l 364 544 b 372 553 364 551 368 553 l 961 553 b 969 544 965 553 969 550 l 969 399 b 963 97 969 265 969 156 b 922 21 957 57 950 26 b 881 15 910 18 893 15 b 869 7 872 15 869 11 b 892 -4 869 -1 876 -4 b 1028 0 933 -4 1021 0 b 1199 -4 1035 0 1122 -4 b 1221 7 1214 -4 1221 0 b 1210 15 1221 11 1218 15 b 1147 21 1197 15 1167 18 b 1093 97 1106 26 1097 57 b 1086 399 1086 156 1086 265 z "},"I":{"ha":611,"x_min":0,"x_max":0,"o":"m 364 643 b 367 943 364 860 364 899 b 418 1022 369 992 381 1015 b 453 1026 435 1025 443 1026 b 464 1035 458 1026 464 1029 b 442 1046 464 1043 457 1046 b 306 1042 400 1046 313 1042 b 165 1046 299 1042 211 1046 b 143 1035 150 1046 143 1043 b 154 1026 143 1029 149 1026 b 197 1021 164 1026 182 1025 b 244 943 228 1014 242 990 b 247 643 247 899 247 860 l 247 399 b 240 97 247 265 247 156 b 200 21 235 57 228 26 b 158 15 188 18 171 15 b 147 7 150 15 147 11 b 169 -4 147 -1 154 -4 b 306 0 211 -4 299 0 b 476 -4 313 0 400 -4 b 499 7 492 -4 499 0 b 488 15 499 11 496 15 b 425 21 475 15 444 18 b 371 97 383 26 375 57 b 364 399 364 156 364 265 z "},"J":{"ha":575,"x_min":0,"x_max":0,"o":"m 364 643 b 367 943 364 860 364 899 b 418 1022 369 992 381 1015 b 453 1026 435 1025 443 1026 b 464 1035 458 1026 464 1029 b 442 1046 464 1043 457 1046 b 306 1042 400 1046 313 1042 b 149 1046 299 1042 211 1046 b 126 1035 133 1046 126 1043 b 138 1026 126 1029 132 1026 b 185 1022 150 1026 174 1025 b 244 943 231 1013 242 990 b 247 643 247 899 247 860 l 247 242 b 114 -282 247 -117 204 -190 b 65 -321 101 -294 82 -311 b 46 -342 53 -329 46 -333 b 56 -350 46 -347 51 -350 b 65 -347 60 -350 63 -349 b 119 -312 79 -340 101 -325 b 322 -100 232 -235 293 -169 b 364 310 364 -1 364 85 z "},"K":{"ha":1044,"x_min":0,"x_max":0,"o":"m 247 399 b 240 97 247 265 247 156 b 200 21 235 57 228 26 b 158 15 188 18 171 15 b 147 7 150 15 147 11 b 169 -4 147 -1 154 -4 b 303 0 211 -4 292 0 b 463 -4 314 0 394 -4 b 485 7 478 -4 485 0 b 474 15 485 11 482 15 b 419 21 461 15 439 18 b 365 97 378 26 369 57 b 358 399 358 156 358 265 l 358 535 l 365 535 b 789 83 432 453 726 135 b 957 -1 849 36 883 6 b 1053 -4 988 -4 1014 -4 l 1124 -4 b 1154 7 1147 -4 1154 0 b 1136 15 1154 13 1146 15 b 1050 33 1126 15 1086 18 b 843 192 983 61 960 83 b 461 583 786 244 497 543 b 767 888 490 618 732 854 b 917 1007 829 947 860 982 b 994 1026 944 1019 974 1026 b 1008 1036 1006 1026 1008 1029 b 988 1046 1008 1043 1003 1046 b 854 1042 953 1046 861 1042 b 750 1046 821 1042 778 1046 b 733 1036 740 1046 733 1043 b 746 1025 733 1031 739 1028 b 764 996 757 1021 764 1013 b 689 896 764 972 728 936 b 364 560 639 842 388 586 l 358 560 l 358 643 b 361 943 358 860 358 899 b 413 1022 364 992 375 1015 b 447 1026 429 1025 438 1026 b 458 1035 453 1026 458 1029 b 436 1046 458 1043 451 1046 b 301 1042 394 1046 314 1042 b 149 1046 293 1042 211 1046 b 126 1035 133 1046 126 1043 b 138 1026 126 1029 132 1026 b 185 1022 150 1026 174 1025 b 244 943 231 1013 242 990 b 247 643 247 899 247 860 z "},"L":{"ha":822,"x_min":0,"x_max":0,"o":"m 364 643 b 367 943 364 860 364 899 b 421 1022 369 992 381 1015 b 467 1026 438 1025 457 1026 b 478 1035 472 1026 478 1029 b 456 1046 478 1043 471 1046 b 306 1042 414 1046 313 1042 b 149 1046 299 1042 211 1046 b 126 1035 133 1046 126 1043 b 138 1026 126 1029 132 1026 b 185 1022 150 1026 174 1025 b 244 943 231 1013 242 990 b 247 643 247 899 247 860 l 247 399 b 240 97 247 265 247 156 b 200 21 235 57 228 26 b 158 15 188 18 171 15 b 147 7 150 15 147 11 b 169 -4 147 -1 154 -4 b 249 -1 190 -4 221 -3 b 306 0 276 -1 300 0 b 447 -4 346 0 389 -1 b 678 -8 506 -6 578 -8 b 765 29 751 -8 756 -3 b 786 168 776 69 786 153 b 778 189 786 183 785 189 b 765 171 769 189 767 182 b 729 88 761 144 747 110 b 561 46 696 47 635 46 b 394 78 453 46 417 56 b 364 396 369 103 364 192 z "},"M":{"ha":1458,"x_min":0,"x_max":0,"o":"m 1188 1028 b 1171 1065 1185 1054 1181 1065 b 1150 1043 1161 1065 1156 1056 l 742 171 l 317 1044 b 296 1065 310 1060 304 1065 b 281 1040 288 1065 282 1056 l 181 135 b 125 19 175 82 171 28 b 83 15 104 15 94 15 b 69 8 76 15 69 13 b 93 -4 69 -1 79 -4 b 210 0 131 -4 197 0 b 339 -4 221 0 288 -4 b 364 8 356 -4 364 -1 b 353 15 364 13 358 15 b 300 22 344 15 324 17 b 264 65 279 26 264 44 b 265 136 264 89 264 114 l 321 781 l 326 781 b 510 385 342 743 497 410 b 672 63 517 371 636 131 b 715 -1 699 13 706 -1 b 761 72 728 -1 732 11 l 1101 794 l 1106 794 l 1172 78 b 1167 28 1175 53 1174 29 b 1157 18 1160 26 1157 24 b 1196 4 1157 11 1164 7 b 1428 -4 1247 0 1397 -4 b 1457 8 1444 -4 1457 0 b 1446 15 1457 14 1453 15 b 1356 28 1432 15 1396 15 b 1281 175 1296 47 1286 125 z "},"N":{"ha":1315,"x_min":0,"x_max":0,"o":"m 267 850 b 629 451 311 800 468 625 b 992 75 776 293 976 89 b 1093 -14 1065 1 1082 -14 b 1106 85 1103 -14 1106 -7 l 1108 899 b 1160 1022 1108 982 1114 1013 b 1193 1026 1176 1026 1186 1026 b 1208 1036 1203 1026 1208 1031 b 1183 1046 1208 1044 1199 1046 b 1065 1042 1126 1046 1081 1042 b 921 1046 1050 1042 983 1046 b 893 1036 904 1046 893 1044 b 904 1026 893 1031 894 1026 b 972 1019 915 1026 947 1025 b 1026 888 1015 1008 1025 978 l 1042 182 b 708 544 997 228 846 397 b 267 1021 494 774 288 997 b 218 1065 253 1035 229 1065 b 203 996 207 1065 203 1050 l 201 200 b 160 24 201 74 194 33 b 103 15 139 17 114 15 b 92 7 96 15 92 13 b 114 -4 92 -3 100 -4 b 247 0 176 -4 235 0 b 394 -4 260 0 315 -4 b 419 7 411 -4 419 -1 b 408 15 419 13 415 15 b 339 24 396 15 365 17 b 285 185 301 35 288 71 z "},"O":{"ha":1271,"x_min":0,"x_max":0,"o":"m 89 522 b 628 -24 89 272 247 -24 b 1182 544 963 -24 1182 233 b 636 1065 1182 868 949 1065 b 89 522 253 1065 89 747 z m 221 561 b 626 1018 221 865 394 1018 b 1049 506 846 1018 1049 839 b 665 29 1049 101 790 29 b 221 561 415 29 221 238 z "},"P":{"ha":892,"x_min":0,"x_max":0,"o":"m 247 399 b 240 97 247 265 247 156 b 200 21 235 57 228 26 b 158 15 188 18 171 15 b 147 7 150 15 147 11 b 169 -4 147 -1 154 -4 b 303 0 211 -4 299 0 b 474 -4 310 0 397 -4 b 496 7 489 -4 496 0 b 485 15 496 11 493 15 b 422 21 472 15 442 18 b 368 97 381 26 372 57 b 361 399 361 156 361 265 l 361 969 b 372 996 361 983 364 993 b 432 1004 385 1001 408 1004 b 622 935 464 1004 549 1010 b 700 721 696 860 700 767 b 460 494 700 593 594 494 b 422 482 431 494 422 493 b 438 472 422 475 431 472 b 467 471 444 471 460 471 b 808 801 664 471 808 604 b 739 967 808 875 769 938 b 481 1046 717 988 654 1046 b 306 1042 417 1046 336 1042 b 149 1046 294 1042 211 1046 b 126 1035 133 1046 126 1043 b 138 1026 126 1029 132 1026 b 185 1022 150 1026 174 1025 b 244 943 231 1013 242 990 b 247 643 247 899 247 860 z "},"Q":{"ha":1278,"x_min":0,"x_max":0,"o":"m 1083 -106 b 1656 -292 1308 -231 1488 -292 b 2096 -196 1861 -292 2017 -232 b 2107 -182 2104 -192 2107 -187 b 2099 -174 2107 -178 2104 -174 b 2079 -179 2094 -174 2088 -176 b 1806 -233 1983 -218 1875 -233 b 1221 -69 1736 -233 1525 -226 l 936 78 b 1182 544 1028 138 1182 300 b 636 1065 1182 867 949 1065 b 89 522 253 1065 89 747 b 632 -24 89 272 247 -24 b 850 24 706 -24 800 -3 z m 221 561 b 626 1018 221 865 394 1018 b 1049 506 846 1018 1049 839 b 665 29 1049 101 790 29 b 221 561 415 29 221 238 z "},"R":{"ha":1047,"x_min":0,"x_max":0,"o":"m 247 399 b 240 97 247 265 247 156 b 200 21 235 57 228 26 b 158 15 188 18 171 15 b 147 7 150 15 147 11 b 169 -4 147 -1 154 -4 b 300 0 211 -4 299 0 b 471 -4 307 0 394 -4 b 493 7 486 -4 493 0 b 482 15 493 11 490 15 b 419 21 469 15 439 18 b 365 97 378 26 369 57 b 358 399 358 156 358 265 l 358 432 b 368 443 358 439 361 443 l 539 440 b 557 432 547 440 551 438 b 708 226 585 396 650 303 b 896 22 788 122 836 54 b 1044 -4 932 3 967 -4 l 1143 -4 b 1176 7 1168 -4 1176 -1 b 1164 15 1176 11 1171 15 b 1110 19 1156 15 1136 15 b 940 119 1075 25 1015 40 b 651 475 860 206 765 329 b 819 796 776 590 819 693 b 724 985 819 892 758 960 b 469 1046 650 1038 557 1046 b 306 1042 426 1046 321 1042 b 149 1046 299 1042 211 1046 b 126 1035 133 1046 126 1043 b 138 1026 126 1029 132 1026 b 185 1022 150 1026 174 1025 b 244 943 231 1013 242 990 b 247 643 247 899 247 860 z m 358 976 b 369 993 358 985 363 990 b 463 1001 383 997 421 1001 b 703 724 611 1001 703 897 b 618 510 703 618 667 543 b 514 483 586 488 547 483 b 368 506 453 483 389 493 b 358 522 361 510 358 515 z "},"S":{"ha":792,"x_min":0,"x_max":0,"o":"m 344 -24 b 554 35 419 -24 494 -7 b 672 265 650 103 672 208 b 469 592 672 376 633 463 l 431 622 b 261 856 297 726 261 776 b 432 1017 261 957 336 1017 b 606 943 560 1017 597 958 b 624 874 614 928 622 890 b 635 856 625 863 626 856 b 644 888 642 856 644 865 b 650 1035 644 982 650 1028 b 636 1044 650 1042 647 1044 b 588 1051 625 1044 614 1046 b 458 1065 553 1060 513 1065 b 171 815 282 1065 171 964 b 351 514 171 721 204 635 l 414 463 b 574 213 533 364 574 308 b 375 28 574 124 508 28 b 169 169 282 28 190 67 b 165 221 165 189 165 208 b 156 236 165 232 164 236 b 144 214 149 236 146 229 b 138 67 143 192 138 136 b 158 14 138 29 139 24 b 344 -24 215 -14 279 -24 z "},"T":{"ha":960,"x_min":0,"x_max":0,"o":"m 543 986 l 718 983 b 889 907 851 981 885 949 l 890 892 b 901 868 892 872 894 868 b 911 886 907 868 911 874 b 915 1039 911 901 915 997 b 908 1056 915 1047 915 1056 b 869 1049 903 1056 890 1051 b 771 1042 847 1044 815 1042 l 250 1042 b 140 1049 233 1042 181 1044 b 79 1065 103 1051 89 1065 b 65 1039 74 1065 68 1047 b 35 894 63 1028 35 908 b 42 882 35 886 38 882 b 56 896 47 882 51 885 b 79 939 60 906 64 915 b 221 983 101 972 135 982 l 426 986 l 426 399 b 419 97 426 265 426 156 b 379 21 414 57 407 26 b 338 15 367 18 350 15 b 326 7 329 15 326 11 b 349 -4 326 -1 333 -4 b 485 0 390 -4 478 0 b 656 -4 492 0 579 -4 b 678 7 671 -4 678 0 b 667 15 678 11 675 15 b 604 21 654 15 624 18 b 550 97 563 26 554 57 b 543 399 543 156 543 265 z "},"U":{"ha":1153,"x_min":0,"x_max":0,"o":"m 167 440 b 288 75 167 238 219 140 b 574 -24 386 -18 526 -24 b 860 79 656 -24 760 -10 b 988 494 971 178 988 344 l 988 643 b 990 943 988 860 988 899 b 1042 1022 993 992 1004 1014 b 1076 1026 1058 1025 1067 1026 b 1088 1035 1082 1026 1088 1029 b 1065 1046 1088 1043 1081 1046 b 949 1042 1024 1046 958 1042 b 801 1046 940 1042 864 1046 b 779 1035 786 1046 779 1043 b 790 1026 779 1029 785 1026 b 838 1022 803 1026 826 1025 b 897 943 883 1013 894 990 b 900 643 900 899 900 860 l 900 469 b 819 129 900 326 883 208 b 601 29 769 69 686 29 b 392 106 522 29 460 42 b 288 449 332 163 288 249 l 288 643 b 290 943 288 860 288 899 b 342 1022 293 992 304 1017 b 376 1026 358 1025 367 1026 b 388 1035 382 1026 388 1029 b 365 1046 388 1043 381 1046 b 228 1042 324 1046 240 1042 b 68 1046 215 1042 131 1046 b 46 1035 53 1046 46 1043 b 57 1026 46 1029 51 1026 b 104 1022 69 1026 93 1025 b 164 943 150 1013 161 990 b 167 643 167 899 167 860 z "},"V":{"ha":1031,"x_min":0,"x_max":0,"o":"m 282 876 b 244 992 261 931 244 974 b 263 1019 244 1001 247 1013 b 315 1026 275 1025 300 1026 b 329 1036 325 1026 329 1029 b 292 1046 329 1043 317 1046 b 163 1042 239 1046 176 1042 b 0 1046 146 1042 67 1046 b -36 1036 -22 1046 -36 1044 b -25 1026 -36 1031 -33 1026 b 28 1021 -17 1026 7 1026 b 128 914 76 1007 97 992 l 468 63 b 518 -24 494 -4 501 -24 b 576 82 532 -24 538 -1 b 756 503 608 150 671 300 b 911 879 826 674 896 840 b 988 1010 949 974 969 997 b 1054 1026 1014 1026 1044 1026 b 1071 1036 1065 1026 1071 1029 b 1047 1046 1071 1043 1063 1046 b 939 1042 1007 1046 947 1042 b 803 1046 922 1042 858 1046 b 772 1035 781 1046 772 1043 b 788 1026 772 1028 779 1026 b 840 1021 803 1026 824 1026 b 858 989 854 1014 858 1000 b 846 936 858 976 853 957 b 549 165 815 836 629 351 z "},"W":{"ha":1528,"x_min":0,"x_max":0,"o":"m 832 975 b 797 1040 815 1022 807 1040 b 763 976 789 1040 783 1033 l 468 185 l 465 185 b 279 857 444 258 300 768 b 253 985 265 918 253 967 b 271 1018 253 1003 263 1014 b 325 1026 288 1026 314 1026 b 339 1036 332 1026 339 1028 b 314 1046 339 1042 333 1046 b 171 1042 244 1046 183 1042 b 7 1046 156 1042 79 1046 b -15 1036 -7 1046 -15 1043 b -3 1026 -15 1028 -10 1026 b 60 1018 7 1026 42 1025 b 136 910 96 1004 114 983 l 383 86 b 432 -24 411 -8 418 -24 b 478 50 449 -24 456 -8 b 768 821 528 179 718 688 l 771 821 l 1043 49 b 1085 -24 1063 -6 1071 -24 b 1143 96 1100 -24 1107 -7 b 1399 869 1197 251 1338 693 b 1489 1019 1425 946 1447 1004 b 1536 1026 1504 1025 1531 1026 b 1549 1038 1544 1026 1549 1031 b 1529 1046 1549 1043 1542 1046 b 1417 1042 1486 1046 1426 1042 b 1275 1046 1404 1042 1346 1046 b 1251 1036 1258 1046 1251 1043 b 1264 1026 1251 1031 1257 1026 b 1343 985 1328 1026 1343 1010 b 1328 896 1343 967 1342 947 b 1114 188 1279 718 1151 315 l 1108 188 z "},"X":{"ha":964,"x_min":0,"x_max":0,"o":"m 172 135 b 57 22 128 64 99 33 b 4 15 36 17 15 15 b -7 6 -3 15 -7 11 b 7 -4 -7 0 -4 -4 b 133 0 53 -4 121 0 b 267 -4 146 0 233 -4 b 283 6 276 -4 283 -1 b 272 15 283 11 279 15 b 246 18 265 15 254 17 b 224 44 233 21 224 31 b 242 106 224 58 229 83 l 458 474 b 697 60 542 333 622 196 b 690 21 710 38 697 24 b 682 10 685 19 682 15 b 725 -1 682 3 689 0 b 947 -4 796 -4 863 -4 b 967 7 960 -4 967 0 b 956 15 967 13 963 15 b 907 24 947 15 926 18 b 825 86 867 36 847 57 b 532 571 796 124 558 528 l 756 907 b 863 1019 796 967 822 1007 b 908 1026 878 1025 899 1026 b 924 1036 918 1026 924 1031 b 901 1046 924 1042 917 1046 b 785 1042 854 1046 797 1042 b 661 1046 772 1042 714 1046 b 638 1036 644 1046 638 1042 b 650 1026 638 1029 642 1026 b 692 1022 658 1026 678 1026 b 715 997 706 1018 715 1007 b 701 947 715 981 711 968 b 497 621 688 918 539 681 b 310 953 425 740 368 843 b 296 999 301 968 296 985 b 313 1022 296 1008 300 1018 b 350 1026 324 1026 342 1026 b 363 1036 358 1026 363 1029 b 339 1046 363 1043 358 1046 b 208 1042 292 1046 221 1042 b 46 1046 197 1042 85 1046 b 22 1036 28 1046 22 1043 b 35 1026 22 1031 26 1026 b 93 1017 43 1026 71 1024 b 201 906 140 1000 169 960 l 424 532 z "},"Y":{"ha":908,"x_min":0,"x_max":0,"o":"m 401 236 b 397 97 401 214 401 156 b 354 21 394 57 382 26 b 313 15 342 18 325 15 b 301 7 304 15 301 11 b 324 -4 301 -1 308 -4 b 460 0 365 -4 453 0 b 631 -4 467 0 554 -4 b 653 7 646 -4 653 0 b 642 15 653 11 650 15 b 579 21 629 15 599 18 b 522 97 538 26 525 57 b 518 236 518 156 518 214 l 518 356 b 539 494 518 401 518 444 b 804 936 564 554 758 881 b 878 1007 835 974 850 990 b 942 1026 900 1021 926 1026 b 960 1038 953 1026 960 1031 b 942 1046 960 1043 951 1046 b 807 1042 915 1046 815 1042 b 715 1046 796 1042 751 1046 b 693 1038 701 1046 693 1043 b 714 1024 693 1031 701 1028 b 736 985 731 1019 736 1004 b 713 914 736 967 731 943 b 482 506 685 868 508 564 b 226 944 457 546 249 904 b 208 999 215 965 208 982 b 226 1024 208 1010 215 1018 b 247 1036 239 1029 247 1031 b 229 1046 247 1042 244 1046 b 113 1042 175 1046 122 1042 b -25 1046 106 1042 1 1046 b -43 1036 -37 1046 -43 1042 b -29 1026 -43 1029 -36 1026 b 31 1004 -17 1026 10 1018 b 125 901 56 988 90 953 b 369 501 174 829 360 524 b 401 356 388 461 401 431 z "},"Z":{"ha":961,"x_min":0,"x_max":0,"o":"m 256 56 b 878 1014 467 375 676 694 b 883 1031 883 1022 883 1025 b 856 1042 883 1039 876 1042 l 468 1042 b 226 1046 425 1042 358 1040 b 168 1056 189 1047 181 1056 b 154 1029 160 1056 157 1049 b 126 844 147 988 126 861 b 135 826 126 833 128 826 b 150 851 142 826 147 831 b 229 961 154 883 179 935 b 429 989 274 985 358 989 l 731 989 b 121 50 538 675 328 363 b 101 11 104 25 101 18 b 126 0 101 1 110 0 b 835 -7 369 0 603 -7 b 876 29 867 -7 868 -4 b 904 189 885 64 904 146 b 893 221 904 215 901 221 b 881 199 886 221 883 213 b 853 124 878 179 865 142 b 633 56 824 82 779 56 z "},"[":{"ha":500,"x_min":0,"x_max":0,"o":"m 135 -150 b 157 -172 135 -171 136 -172 l 393 -172 b 410 -162 404 -172 410 -169 b 386 -151 410 -156 403 -153 b 236 -122 344 -147 278 -142 b 226 7 229 -93 226 -51 l 226 854 b 236 983 226 913 229 954 b 388 1013 279 1003 346 1008 b 411 1024 404 1014 411 1018 b 394 1033 411 1031 406 1033 l 158 1033 b 135 1015 138 1033 135 1031 z "},"\\":{"ha":728,"x_min":0,"x_max":0,"o":"m 699 8 b 699 28 704 11 706 17 l 90 1003 b 71 1008 85 1011 81 1014 l 32 985 b 29 971 26 981 26 975 l 642 -14 b 657 -19 647 -24 651 -22 z "},"]":{"ha":500,"x_min":0,"x_max":0,"o":"m 365 1011 b 343 1033 365 1032 364 1033 l 107 1033 b 90 1024 96 1033 90 1031 b 114 1013 90 1017 97 1014 b 264 983 156 1008 222 1003 b 274 854 271 954 274 913 l 274 7 b 264 -122 274 -51 271 -93 b 113 -151 221 -142 154 -147 b 89 -162 96 -153 89 -157 b 106 -172 89 -169 94 -172 l 342 -172 b 365 -154 363 -172 365 -169 z "},"^":{"ha":708,"x_min":0,"x_max":0,"o":"m 318 1043 l 42 451 l 117 451 l 354 967 l 592 451 l 667 451 l 390 1043 z "},"_":{"ha":694,"x_min":0,"x_max":0,"o":"m 0 -104 l 0 -174 l 694 -174 l 694 -104 z "},"‘":{"ha":278,"x_min":0,"x_max":0,"o":"m 160 915 b 206 1114 160 994 185 1069 b 211 1132 210 1124 211 1128 b 204 1139 211 1136 207 1139 b 186 1128 197 1139 192 1136 b 67 854 138 1069 67 953 b 90 818 67 833 74 826 b 188 793 113 810 165 793 b 200 801 193 793 200 797 b 188 825 200 808 199 813 b 160 915 178 836 160 872 z "},"a":{"ha":867,"x_min":0,"x_max":0,"o":"m 114 126 b 11 18 90 67 67 25 b -25 15 1 17 -17 15 b -36 6 -31 15 -36 11 b -12 -4 -36 -1 -28 -4 b 111 0 38 -4 99 0 b 221 -4 125 0 192 -4 b 239 6 232 -4 239 -1 b 226 15 239 11 236 15 l 215 15 b 174 47 194 15 174 24 b 192 126 174 68 181 97 l 261 315 b 274 325 264 322 268 325 l 556 325 b 567 318 563 325 564 324 l 676 47 b 665 15 685 28 672 18 b 657 7 660 13 657 13 b 700 -1 657 0 676 0 b 893 -4 785 -4 875 -4 b 921 6 907 -4 921 -1 b 906 15 921 13 913 15 b 857 22 893 15 875 17 b 753 151 831 31 797 46 b 460 868 678 331 482 818 b 431 911 447 894 443 911 b 401 865 422 911 417 904 z m 290 374 b 286 382 286 374 285 376 l 400 706 b 421 706 407 724 414 724 l 542 382 b 538 374 543 376 543 374 z "},"b":{"ha":853,"x_min":0,"x_max":0,"o":"m 215 339 b 208 83 215 225 215 132 b 176 18 203 49 200 22 b 139 13 165 17 150 13 b 129 6 132 13 129 10 b 149 -4 129 -1 136 -4 b 222 -1 168 -4 197 -3 b 272 0 247 -1 269 0 b 351 -3 278 0 313 -1 b 457 -7 390 -6 435 -7 b 764 256 665 -7 764 124 b 549 501 764 389 642 474 b 672 708 611 557 672 615 b 415 889 672 771 619 889 b 272 886 358 889 301 886 b 131 889 265 886 186 889 b 111 879 117 889 111 886 b 121 872 111 875 117 872 b 163 869 132 872 153 871 b 213 801 203 864 210 842 b 215 547 215 764 215 731 z m 321 833 b 336 846 321 840 325 843 b 399 851 356 850 385 851 b 571 661 521 851 571 751 b 524 535 571 604 550 564 b 404 504 499 507 472 504 b 329 510 358 504 336 508 b 321 522 324 511 321 514 z m 321 457 b 328 465 321 463 324 465 b 424 463 347 465 408 465 b 533 432 453 457 492 458 b 650 217 629 371 650 269 b 471 35 650 65 551 35 b 364 51 449 35 397 36 b 322 140 326 69 326 83 b 321 392 321 158 321 300 z "},"c":{"ha":983,"x_min":0,"x_max":0,"o":"m 628 -19 b 849 7 707 -19 799 -12 b 879 42 869 15 872 19 b 908 193 892 82 908 185 b 897 210 908 201 903 210 b 885 193 889 210 888 206 b 838 94 881 171 864 121 b 636 39 789 46 728 39 b 196 467 375 39 196 240 b 306 775 196 586 215 692 b 581 857 349 815 424 857 b 821 792 689 857 778 828 b 872 674 853 767 872 719 b 882 649 872 657 874 649 b 896 674 889 649 894 656 b 899 794 897 690 897 756 b 904 861 901 838 904 851 b 889 874 904 868 901 874 b 764 892 849 875 810 883 b 586 906 704 901 635 906 b 214 779 399 906 288 850 b 76 457 106 674 76 536 b 225 107 76 344 106 210 b 628 -19 321 24 444 -19 z "},"d":{"ha":1124,"x_min":0,"x_max":0,"o":"m 215 339 b 208 83 215 225 215 132 b 176 21 203 49 200 26 b 139 15 165 18 150 15 b 129 6 132 15 129 10 b 149 -4 129 -1 136 -4 b 222 -1 168 -4 197 -3 b 272 0 247 -1 269 0 b 372 -7 278 0 319 -3 b 543 -14 425 -10 490 -14 b 914 122 751 -14 861 68 b 1046 454 982 192 1046 306 b 926 754 1046 594 988 693 b 436 889 782 900 558 889 b 272 886 364 889 286 886 b 131 889 265 886 186 889 b 111 879 117 889 111 886 b 121 869 111 875 117 869 b 163 867 132 869 153 868 b 213 801 203 861 210 842 b 215 547 215 764 215 731 z m 326 814 b 342 838 326 828 331 833 b 415 846 353 842 392 846 b 811 714 561 846 696 831 b 926 418 861 664 926 568 b 831 138 926 310 894 197 b 544 31 757 68 657 31 b 342 78 400 31 357 56 b 328 163 332 90 329 133 b 326 419 326 185 326 294 z "},"e":{"ha":765,"x_min":0,"x_max":0,"o":"m 215 339 b 208 83 215 225 215 132 b 176 21 203 49 200 25 b 139 15 165 19 150 15 b 129 6 132 15 129 10 b 149 -4 129 -1 136 -4 b 219 -1 168 -4 196 -3 b 272 0 246 0 269 0 b 374 -3 290 0 322 0 b 586 -7 424 -4 494 -7 b 654 24 633 -7 646 -7 b 671 138 661 49 671 129 b 663 156 671 146 669 156 b 650 138 656 156 653 151 b 594 56 643 90 626 69 b 472 43 563 43 504 43 b 326 138 351 43 329 58 b 326 339 325 161 326 299 l 326 438 b 335 446 326 442 328 446 b 519 440 356 446 486 444 b 582 404 567 435 578 421 b 588 365 588 389 588 376 b 596 354 588 358 590 354 b 607 376 604 354 607 367 b 613 453 607 385 610 429 b 622 518 615 492 622 511 b 615 528 622 525 619 528 b 597 513 611 528 606 521 b 538 496 585 500 567 499 b 333 493 510 493 349 493 b 326 506 326 493 326 497 l 326 826 b 333 839 326 835 328 839 b 510 835 347 839 489 838 b 597 799 576 826 589 818 b 604 757 603 785 604 765 b 614 742 604 747 607 742 b 625 754 619 742 624 749 b 632 832 628 768 631 821 b 642 888 635 865 642 879 b 636 899 642 893 640 899 b 619 893 631 899 625 894 b 564 886 610 892 588 888 b 272 886 536 885 281 886 b 131 889 265 886 186 889 b 111 879 117 889 111 886 b 121 869 111 875 117 869 b 163 867 132 869 153 868 b 213 801 203 861 210 842 b 215 547 215 764 215 731 z "},"f":{"ha":743,"x_min":0,"x_max":0,"o":"m 215 339 b 208 83 215 225 215 132 b 176 21 203 49 200 25 b 139 15 165 19 150 15 b 129 6 132 15 129 10 b 149 -4 129 -1 136 -4 b 269 0 186 -4 263 0 b 422 -4 275 0 354 -4 b 442 6 436 -4 442 0 b 432 15 442 10 439 15 b 376 21 421 15 394 18 b 332 83 343 26 336 49 b 326 339 326 129 326 222 l 326 433 b 335 444 326 442 328 444 b 531 442 356 444 500 446 b 593 404 568 436 588 421 b 601 361 599 390 600 374 b 610 350 601 356 603 350 b 621 374 618 350 621 363 b 625 453 621 382 622 429 b 636 518 628 492 636 511 b 629 528 636 524 635 528 b 614 515 625 528 619 522 b 557 494 603 501 586 497 b 501 493 540 493 522 493 l 335 492 b 326 503 326 492 326 496 l 326 825 b 336 838 326 835 329 838 l 536 835 b 619 800 583 835 613 815 b 631 756 626 785 631 765 b 640 742 631 747 635 742 b 651 754 646 742 650 749 b 657 832 654 768 656 821 b 667 888 661 865 667 879 b 658 899 667 893 664 899 b 642 892 654 899 649 893 b 586 886 631 888 610 888 b 269 886 558 885 293 886 b 131 889 263 886 186 889 b 111 879 117 889 111 886 b 121 869 111 875 117 869 b 163 867 132 869 153 868 b 213 801 203 861 210 842 b 215 547 215 764 215 731 z "},"g":{"ha":1054,"x_min":0,"x_max":0,"o":"m 790 93 b 765 57 790 71 781 65 b 633 35 733 39 676 35 b 321 158 521 35 418 68 b 192 485 278 199 192 318 b 313 782 192 622 242 728 b 568 858 406 853 494 858 b 850 767 726 858 819 811 b 878 689 869 739 876 704 b 886 671 878 678 879 671 b 900 696 894 671 900 676 b 907 863 900 814 907 846 b 892 874 907 868 904 874 b 793 886 861 874 818 881 b 606 906 769 892 683 906 b 281 831 513 906 390 897 b 76 443 172 765 76 632 b 222 107 76 296 147 169 b 625 -19 358 -8 532 -19 b 885 33 696 -19 807 -7 b 901 97 900 42 901 43 l 901 229 b 903 351 901 279 901 314 b 949 417 906 393 915 411 b 979 419 963 419 971 419 b 989 429 983 419 989 425 b 969 439 989 438 983 439 b 850 436 932 439 856 436 b 706 439 843 436 761 439 b 686 429 692 439 686 438 b 696 419 686 425 692 419 b 738 417 707 419 728 418 b 790 297 788 407 790 393 z "},"h":{"ha":1176,"x_min":0,"x_max":0,"o":"m 961 547 b 964 801 961 731 961 764 b 1006 867 967 843 974 860 b 1036 869 1021 869 1028 869 b 1047 879 1042 869 1047 875 b 1026 889 1047 886 1040 889 b 906 886 990 889 913 886 b 767 889 900 886 821 889 b 747 879 753 889 747 886 b 757 869 747 875 751 869 b 799 867 768 869 789 868 b 847 801 839 861 844 842 b 850 544 849 764 850 728 l 850 519 b 843 513 850 513 847 513 l 333 513 b 326 519 329 513 326 513 l 326 544 b 328 801 326 728 326 764 b 371 867 331 843 338 860 b 401 869 385 869 393 869 b 411 879 406 869 411 875 b 392 889 411 886 406 889 b 271 886 354 889 276 886 b 131 889 264 886 186 889 b 111 879 117 889 111 886 b 121 869 111 875 117 869 b 163 867 132 869 153 868 b 213 801 203 861 210 842 b 215 547 215 764 215 731 l 215 339 b 208 83 215 225 215 132 b 176 21 203 49 200 26 b 139 15 165 18 150 15 b 129 6 132 15 129 10 b 149 -4 129 -1 136 -4 b 271 0 186 -4 264 0 b 422 -4 276 0 354 -4 b 442 6 436 -4 442 0 b 432 15 442 10 439 15 b 376 21 421 15 394 18 b 332 83 340 26 336 49 b 326 336 326 132 326 222 l 326 454 b 333 461 326 460 329 461 l 843 461 b 850 454 847 461 850 460 l 850 336 b 844 85 850 222 850 133 b 811 21 840 50 836 26 b 775 15 800 18 786 15 b 765 6 768 15 765 10 b 785 -4 765 -1 771 -4 b 906 0 821 -4 900 0 b 1057 -4 913 0 990 -4 b 1078 6 1071 -4 1078 0 b 1067 15 1078 10 1075 15 b 1013 21 1057 15 1029 18 b 968 83 975 26 972 49 b 961 339 963 132 961 225 z "},"i":{"ha":540,"x_min":0,"x_max":0,"o":"m 326 547 b 328 801 326 731 326 764 b 371 867 331 843 338 860 b 401 869 385 869 393 869 b 411 879 406 869 411 875 b 392 889 411 886 406 889 b 269 886 354 889 275 886 b 146 889 263 886 186 889 b 126 879 132 889 126 886 b 136 869 126 875 131 869 b 174 865 144 869 160 868 b 213 801 200 860 210 842 b 215 547 215 764 215 731 l 215 339 b 208 83 215 225 214 132 b 176 21 204 49 200 26 b 139 15 165 18 150 15 b 129 6 132 15 129 10 b 149 -4 129 -1 136 -4 b 269 0 186 -4 263 0 b 422 -4 275 0 354 -4 b 442 6 436 -4 442 0 b 432 15 442 10 439 15 b 376 21 421 15 394 18 b 332 83 340 26 336 49 b 326 339 326 132 326 225 z "},"j":{"ha":513,"x_min":0,"x_max":0,"o":"m 326 547 b 328 801 326 731 326 764 b 371 867 331 843 338 860 b 401 869 385 869 393 869 b 411 879 406 869 411 875 b 392 889 411 886 406 889 b 272 886 354 889 278 886 b 131 889 265 886 186 889 b 111 879 117 889 111 886 b 121 869 111 875 117 869 b 163 867 132 869 153 868 b 213 801 203 861 210 842 b 215 547 215 764 215 731 l 215 206 b 99 -239 215 -99 178 -160 b 56 -271 88 -249 71 -262 b 40 -290 44 -278 40 -283 b 49 -297 40 -296 46 -297 b 57 -296 53 -297 56 -296 b 107 -265 69 -289 90 -276 b 286 -85 206 -200 260 -144 b 326 264 322 -1 326 72 z "},"k":{"ha":925,"x_min":0,"x_max":0,"o":"m 215 339 b 208 83 215 225 215 132 b 176 21 203 49 200 26 b 139 15 165 18 150 15 b 129 6 132 15 129 10 b 149 -4 129 -1 136 -4 b 269 0 186 -4 260 0 b 413 -4 279 0 353 -4 b 432 6 426 -4 432 0 b 422 15 432 10 429 15 b 375 21 411 15 392 18 b 328 83 338 26 332 49 b 322 339 322 132 322 225 l 322 454 l 328 454 b 699 71 386 385 643 114 b 847 -1 751 31 783 4 b 932 -4 875 -4 897 -4 l 994 -4 b 1021 6 1015 -4 1021 0 b 1006 15 1021 11 1014 15 b 931 32 997 15 963 19 b 756 163 872 56 858 71 b 419 497 706 208 451 463 b 685 754 446 526 654 726 b 813 854 739 806 763 832 b 881 871 836 864 863 871 b 893 881 890 871 893 875 b 875 889 893 886 888 889 b 757 886 844 889 764 886 b 665 889 728 886 690 889 b 651 881 657 889 651 886 b 663 869 651 876 656 871 b 678 846 672 868 678 861 b 611 761 678 826 646 796 b 328 476 565 714 347 499 l 322 476 l 322 547 b 325 801 322 731 322 764 b 368 867 328 843 336 860 b 399 869 383 869 390 869 b 408 879 404 869 408 875 b 389 889 408 886 403 889 b 268 886 353 889 279 886 b 131 889 261 886 186 889 b 111 879 117 889 111 886 b 121 869 111 875 117 869 b 163 867 132 869 153 868 b 213 801 203 861 210 842 b 215 547 215 764 215 731 z "},"l":{"ha":743,"x_min":0,"x_max":0,"o":"m 326 547 b 328 801 326 731 326 764 b 374 868 331 843 338 861 b 414 871 388 869 406 871 b 424 879 418 871 424 875 b 404 889 424 886 417 889 b 269 886 367 889 275 886 b 131 889 263 886 186 889 b 111 879 117 889 111 886 b 121 869 111 875 117 869 b 163 867 132 869 153 868 b 213 801 203 861 210 842 b 215 547 215 764 215 731 l 215 339 b 208 83 215 225 215 132 b 176 21 203 49 200 26 b 139 15 165 18 150 15 b 129 6 132 15 129 10 b 149 -4 129 -1 136 -4 b 219 -1 168 -4 194 -3 b 269 0 243 0 264 0 b 403 -3 306 0 347 -1 b 615 -7 460 -6 528 -7 b 693 25 681 -7 685 -3 b 711 143 703 60 711 131 b 703 161 711 156 708 161 b 690 146 696 161 692 154 b 661 79 686 122 676 97 b 514 43 632 44 578 43 b 351 71 418 43 371 51 b 326 336 329 92 326 163 z "},"m":{"ha":1283,"x_min":0,"x_max":0,"o":"m 1047 874 b 1029 906 1044 896 1038 906 b 1010 886 1021 906 1015 897 l 654 154 l 285 888 b 260 906 278 901 268 906 b 246 885 253 906 247 897 l 157 114 b 110 19 151 69 150 26 b 74 15 92 17 83 15 b 61 7 67 15 61 11 b 82 -4 61 -1 69 -4 b 185 0 115 -4 174 0 b 299 -4 194 0 253 -4 b 321 7 313 -4 321 -1 b 311 15 321 11 315 15 b 264 22 303 15 285 17 b 235 56 246 26 235 38 b 236 115 235 75 235 97 l 283 649 l 289 649 b 444 326 310 600 408 401 b 588 53 475 263 556 111 b 629 -1 611 10 618 -1 b 672 61 640 -1 647 10 l 967 664 l 969 664 l 1028 67 b 1022 25 1031 44 1029 26 b 1014 15 1017 24 1014 19 b 1049 3 1014 10 1019 6 b 1257 -4 1093 -1 1229 -4 b 1282 7 1271 -4 1282 0 b 1272 15 1282 13 1278 15 b 1193 26 1260 15 1228 15 b 1131 149 1143 43 1135 107 z "},"n":{"ha":1157,"x_min":0,"x_max":0,"o":"m 253 714 b 569 379 290 672 428 528 b 888 60 699 244 875 71 b 981 -12 956 -3 968 -12 b 990 72 989 -12 990 -6 l 993 764 b 1036 867 993 835 996 858 b 1065 869 1050 869 1060 869 b 1079 881 1074 869 1079 876 b 1057 889 1079 888 1069 889 b 953 886 1007 889 967 886 b 825 889 939 886 881 889 b 801 881 811 889 801 888 b 811 869 801 876 803 869 b 871 864 821 869 849 868 b 917 754 908 857 915 831 l 929 163 b 640 467 892 201 761 342 b 254 869 451 661 274 850 b 207 906 242 882 221 906 b 190 846 197 906 190 893 l 190 169 b 156 22 190 63 186 31 b 106 15 138 17 115 15 b 96 6 100 15 96 11 b 115 -4 96 -3 103 -4 b 233 0 171 -4 222 0 b 363 -4 244 0 293 -4 b 385 6 376 -4 385 -1 b 375 15 385 11 381 15 b 314 22 364 15 336 17 b 267 157 281 31 269 60 z "},"o":{"ha":1122,"x_min":0,"x_max":0,"o":"m 76 444 b 554 -19 76 232 219 -19 b 1044 463 849 -19 1044 199 b 561 906 1044 738 836 906 b 76 444 224 906 76 635 z m 203 476 b 554 861 203 733 350 861 b 919 429 747 861 919 713 b 589 29 919 88 699 29 b 203 476 368 29 203 201 z "},"p":{"ha":814,"x_min":0,"x_max":0,"o":"m 215 339 b 208 83 215 225 215 132 b 176 21 203 49 200 26 b 139 15 165 18 150 15 b 129 6 132 15 129 10 b 149 -4 129 -1 136 -4 b 269 0 186 -4 265 0 b 422 -4 275 0 356 -4 b 442 6 436 -4 442 0 b 432 15 442 10 439 15 b 378 21 421 15 394 18 b 329 83 340 26 333 49 b 324 339 324 132 324 225 l 324 819 b 333 842 324 832 326 840 b 401 850 346 844 381 850 b 567 793 429 850 503 857 b 636 614 632 729 636 653 b 410 424 636 507 542 424 b 378 411 385 424 378 421 b 390 400 378 406 385 400 b 425 399 397 399 418 399 b 740 681 613 399 740 511 b 679 822 740 744 707 797 b 446 889 658 840 603 889 b 272 886 390 889 299 886 b 131 889 263 886 186 889 b 111 879 117 889 111 886 b 121 869 111 875 117 869 b 163 867 132 869 153 868 b 213 801 203 861 210 842 b 215 547 215 764 215 731 z "},"q":{"ha":1125,"x_min":0,"x_max":0,"o":"m 950 -93 b 1456 -249 1147 -200 1307 -249 b 1844 -167 1636 -249 1775 -197 b 1854 -154 1851 -164 1854 -160 b 1847 -146 1854 -151 1851 -146 b 1829 -150 1843 -146 1838 -147 b 1590 -196 1744 -181 1651 -196 b 1078 -57 1529 -196 1344 -189 l 828 67 b 1043 463 908 117 1043 256 b 560 906 1043 736 835 906 b 75 444 222 906 75 635 b 554 -19 75 232 217 -19 b 747 17 619 -19 703 -6 z m 200 476 b 551 861 200 735 347 861 b 918 429 744 861 918 710 b 586 29 918 89 696 29 b 200 476 365 29 200 204 z "},"r":{"ha":933,"x_min":0,"x_max":0,"o":"m 215 339 b 208 83 215 225 215 132 b 176 21 203 49 200 26 b 139 15 165 18 150 15 b 129 6 132 15 129 10 b 149 -4 129 -1 136 -4 b 269 0 186 -4 268 0 b 419 -4 275 0 353 -4 b 439 6 433 -4 439 0 b 429 15 439 10 438 15 b 375 21 418 15 392 18 b 326 83 338 26 331 49 b 321 338 321 132 321 224 l 321 365 b 329 375 321 372 324 375 l 485 372 b 501 365 493 372 496 371 b 633 193 528 333 582 257 b 800 19 703 104 747 47 b 931 -4 831 3 861 -4 l 1007 -4 b 1036 6 1029 -4 1036 -1 b 1025 15 1036 10 1032 15 b 982 19 1018 15 1006 15 b 846 101 951 24 911 35 b 590 407 775 175 690 282 b 740 676 704 504 740 589 b 656 838 740 758 686 815 b 428 889 592 882 506 889 b 275 886 390 889 288 886 b 131 889 268 886 186 889 b 111 879 117 889 111 886 b 121 869 111 875 117 869 b 163 867 132 869 153 868 b 213 801 203 861 210 842 b 215 547 215 764 215 731 z m 321 826 b 331 840 321 833 325 838 b 418 847 343 843 382 847 b 629 615 549 847 629 763 b 556 435 629 525 597 463 b 464 414 526 415 493 414 b 329 432 410 414 347 422 b 321 447 324 436 321 440 z "},"s":{"ha":728,"x_min":0,"x_max":0,"o":"m 290 -19 b 485 22 357 -19 433 -11 b 599 224 572 79 599 154 b 399 508 599 325 547 407 l 364 532 b 206 732 243 614 206 657 b 368 860 206 815 279 860 b 526 801 478 860 518 815 b 544 743 533 789 543 757 b 556 728 546 733 547 728 b 565 754 564 728 565 736 b 571 879 565 835 571 874 b 558 888 571 886 568 888 b 515 893 549 888 539 888 b 389 907 486 900 438 907 b 118 685 228 907 118 824 b 293 432 118 603 161 531 l 349 390 b 503 185 457 310 503 269 b 319 28 503 96 440 28 b 126 144 238 28 146 58 b 122 188 122 161 122 178 b 111 201 122 197 118 201 b 101 182 104 201 101 194 b 94 57 100 163 94 115 b 113 13 94 25 96 21 b 290 -19 163 -11 233 -19 z "},"t":{"ha":847,"x_min":0,"x_max":0,"o":"m 482 835 l 635 832 b 782 767 751 829 778 803 l 783 754 b 793 733 785 738 788 733 b 804 749 799 733 804 739 b 808 883 804 763 808 847 b 803 897 808 890 808 897 b 768 892 797 897 786 894 b 681 886 749 889 721 886 l 219 886 b 124 892 206 886 158 888 b 69 906 90 896 78 906 b 57 883 65 906 60 890 b 31 756 56 874 31 768 b 39 746 31 749 36 746 b 51 757 44 746 49 747 b 71 794 56 765 57 774 b 194 832 89 822 118 831 l 371 835 l 371 339 b 365 83 371 225 371 132 b 329 19 361 49 354 25 b 293 14 318 17 304 14 b 283 6 286 14 283 10 b 303 -4 283 -1 289 -4 b 429 0 339 -4 424 0 b 581 -4 436 0 514 -4 b 600 6 594 -4 600 0 b 590 15 600 10 599 15 b 535 21 579 15 551 18 b 488 83 497 26 492 49 b 482 339 482 132 482 225 z "},"u":{"ha":1017,"x_min":0,"x_max":0,"o":"m 153 374 b 260 64 153 201 200 119 b 514 -19 346 -17 474 -19 b 769 67 586 -19 681 -10 b 883 421 867 150 883 293 l 883 547 b 885 801 883 731 882 764 b 928 867 888 840 894 860 b 958 869 943 869 950 869 b 968 879 964 869 968 875 b 949 889 968 886 963 889 b 846 886 913 889 854 886 b 714 889 839 886 768 889 b 694 879 700 889 694 886 b 704 869 694 875 699 869 b 746 867 715 869 736 868 b 794 801 786 861 793 839 b 797 547 796 764 797 731 l 797 399 b 728 113 797 278 785 181 b 539 29 686 63 614 29 b 357 93 469 29 417 39 b 267 382 304 140 267 211 l 267 547 b 269 801 267 731 267 764 b 311 867 272 840 279 861 b 342 869 326 869 333 869 b 353 879 347 869 353 875 b 332 889 353 886 346 889 b 208 886 296 889 219 886 b 68 889 197 886 124 889 b 49 879 54 889 49 886 b 58 869 49 875 54 869 b 100 867 69 869 90 868 b 150 801 140 861 147 839 b 153 547 153 764 153 731 z "},"v":{"ha":907,"x_min":0,"x_max":0,"o":"m 253 744 b 219 843 235 792 219 828 b 233 864 219 851 221 858 b 278 869 244 868 264 869 b 290 881 286 869 290 875 b 257 889 290 886 279 889 b 143 886 210 889 156 886 b 0 889 128 886 58 889 b -32 881 -19 889 -32 888 b -22 869 -32 876 -29 869 b 25 865 -15 869 6 869 b 110 776 65 856 82 843 l 410 53 b 456 -19 433 -4 442 -19 b 508 69 468 -19 475 -1 b 665 428 536 128 590 256 b 801 747 728 572 788 714 b 869 856 833 828 853 844 b 928 869 892 869 919 869 b 942 881 938 869 942 875 b 922 889 942 886 935 889 b 826 886 886 889 833 886 b 707 889 811 886 756 889 b 679 879 688 889 679 886 b 693 869 679 874 686 869 b 735 865 707 869 721 869 b 751 840 747 861 751 850 b 740 796 751 831 746 814 b 483 150 714 711 554 308 z "},"w":{"ha":1344,"x_min":0,"x_max":0,"o":"m 736 829 b 703 885 721 869 711 885 b 669 831 696 885 688 878 l 414 171 l 411 171 b 251 728 396 219 271 653 b 228 838 238 781 228 822 b 244 863 228 853 236 860 b 288 869 258 869 278 869 b 300 881 293 869 300 874 b 278 889 300 886 294 889 b 150 886 217 889 161 886 b 6 889 138 886 69 889 b -14 881 -6 889 -14 886 b -3 869 -14 874 -8 869 b 53 863 6 869 36 868 b 117 774 85 851 97 836 l 333 74 b 381 -19 358 -7 368 -19 b 424 43 394 -19 403 -7 b 675 688 468 153 633 585 l 914 42 b 954 -19 931 -4 942 -19 b 1007 82 968 -19 975 -6 b 1231 739 1056 214 1176 589 b 1310 864 1254 804 1274 851 b 1351 869 1324 868 1347 869 b 1363 882 1360 869 1363 876 b 1346 889 1363 886 1357 889 b 1247 886 1308 889 1256 886 b 1122 889 1236 886 1185 889 b 1101 881 1107 889 1101 886 b 1113 869 1101 876 1106 869 b 1178 835 1168 869 1178 856 b 1164 761 1178 819 1176 806 b 981 171 1121 610 1011 268 l 975 171 z "},"x":{"ha":849,"x_min":0,"x_max":0,"o":"m 150 114 b 50 22 111 54 86 32 b 4 15 32 18 14 15 b -6 4 -3 15 -6 10 b 6 -4 -6 0 -4 -4 b 117 0 46 -4 107 0 b 238 -4 128 0 208 -4 b 253 4 246 -4 253 -1 b 242 15 253 10 249 15 b 219 18 236 15 226 17 b 200 38 208 21 200 26 b 215 90 200 50 204 71 l 403 400 b 610 51 476 281 543 167 b 603 18 621 32 610 19 b 596 8 599 17 596 13 b 633 -1 596 3 601 0 b 833 -4 700 -4 758 -4 b 850 6 844 -4 850 0 b 840 15 850 11 847 15 b 799 22 833 15 815 18 b 729 74 763 32 749 49 b 471 485 703 106 494 449 l 667 771 b 758 864 701 822 724 853 b 800 869 772 868 790 869 b 813 881 808 869 813 876 b 793 889 813 886 807 889 b 690 886 751 889 701 886 b 582 889 679 886 628 889 b 561 881 567 889 561 886 b 572 869 561 875 565 869 b 606 867 579 869 593 869 b 626 847 618 863 626 856 b 614 806 626 833 624 822 b 438 531 603 781 474 582 b 276 810 374 632 328 717 b 264 849 269 822 264 838 b 279 867 264 857 268 865 b 313 869 289 869 304 869 b 324 881 319 869 324 875 b 303 889 324 886 319 889 b 183 886 261 889 194 886 b 40 889 174 886 75 889 b 19 881 25 889 19 886 b 31 869 19 876 24 869 b 82 861 38 869 63 867 b 175 769 124 849 147 815 l 369 453 z "},"y":{"ha":800,"x_min":0,"x_max":0,"o":"m 354 201 b 351 83 354 182 354 132 b 315 21 349 49 340 26 b 279 15 304 18 290 15 b 269 6 272 15 269 10 b 289 -4 269 -1 275 -4 b 408 0 325 -4 403 0 b 563 -4 415 0 494 -4 b 582 6 575 -4 582 0 b 572 15 582 10 579 15 b 517 21 561 15 533 18 b 469 83 481 26 472 49 b 465 201 465 132 465 182 l 465 303 b 481 421 465 342 460 379 b 718 796 506 471 678 749 b 779 854 744 828 756 840 b 836 869 799 865 822 869 b 851 882 846 869 851 876 b 836 889 851 886 844 889 b 717 886 813 889 725 886 b 632 889 707 886 664 889 b 613 882 619 889 613 886 b 631 868 613 876 619 871 b 650 838 644 864 650 854 b 629 776 650 822 644 803 b 429 435 607 738 454 485 l 207 803 b 190 849 199 818 190 832 b 206 868 190 858 196 864 b 225 881 217 872 225 876 b 208 889 225 886 222 889 b 103 886 161 889 111 886 b -18 889 97 886 6 889 b -33 881 -29 889 -33 886 b -21 869 -33 875 -28 869 b 31 853 -11 869 13 864 b 111 767 53 838 82 811 b 328 424 153 704 318 442 b 354 303 346 390 354 367 z "},"z":{"ha":846,"x_min":0,"x_max":0,"o":"m 239 51 b 779 856 424 319 601 583 b 786 876 785 863 786 871 b 761 886 786 883 779 886 l 419 886 b 206 889 381 886 322 885 b 154 897 174 890 165 897 b 143 875 147 897 144 892 b 118 718 136 839 118 732 b 125 703 118 708 119 703 b 142 724 132 703 139 706 b 211 817 146 751 168 794 b 385 836 250 838 322 836 l 643 836 b 111 46 475 574 294 311 b 94 10 96 24 94 15 b 117 0 94 1 103 0 b 742 -6 331 0 538 -6 b 778 25 769 -6 771 -4 b 803 161 786 54 803 124 b 793 188 803 183 800 188 b 779 169 786 188 782 181 b 754 106 775 153 767 121 b 564 51 726 72 693 51 z "},"{":{"ha":500,"x_min":0,"x_max":0,"o":"m 186 485 b 269 590 215 496 257 542 b 281 840 285 647 281 715 b 392 1014 281 958 358 1004 b 414 1026 408 1019 414 1021 b 396 1033 414 1031 408 1033 b 265 976 367 1033 308 1015 b 176 732 213 928 176 872 b 190 583 176 699 190 635 b 94 489 190 499 167 493 b 78 476 79 488 78 485 b 94 465 78 469 79 468 b 176 431 133 458 163 454 b 186 386 183 419 186 404 b 176 238 186 340 176 279 b 247 -79 176 40 211 -29 b 390 -172 299 -150 364 -172 b 415 -165 411 -172 415 -171 b 385 -147 415 -160 411 -157 b 281 167 338 -128 281 -67 b 267 375 281 279 281 324 b 186 485 251 431 215 469 z "},"|":{"ha":708,"x_min":0,"x_max":0,"o":"m 392 -347 l 392 1042 l 317 1042 l 317 -347 z "},"}":{"ha":500,"x_min":0,"x_max":0,"o":"m 314 485 b 233 375 285 469 249 431 b 219 167 217 315 219 268 b 115 -147 219 -67 163 -131 b 85 -167 89 -157 85 -160 b 110 -172 85 -171 89 -172 b 253 -79 136 -172 201 -150 b 324 238 289 -29 324 40 b 324 431 324 297 301 394 b 406 465 338 454 367 458 b 422 476 421 468 422 469 b 406 489 422 485 421 488 b 325 511 385 490 351 486 b 324 732 292 543 324 678 b 235 976 324 872 288 928 b 104 1033 192 1015 133 1033 b 86 1025 92 1033 86 1031 b 108 1014 86 1019 92 1019 b 219 840 140 1004 219 958 b 231 590 219 715 215 647 b 314 485 243 542 285 496 z "},"~":{"ha":708,"x_min":0,"x_max":0,"o":"m 153 279 b 214 371 154 343 176 371 b 342 324 251 371 292 349 b 494 276 413 289 451 276 b 622 442 565 276 628 317 l 554 442 b 497 350 553 382 535 349 b 368 396 461 350 421 371 b 217 443 297 429 263 443 b 85 278 140 443 82 392 z "},"¡":{"ha":444,"x_min":0,"x_max":0,"o":"m 225 926 b 153 851 182 926 153 893 b 224 785 153 811 183 785 b 294 856 274 785 294 826 b 225 926 294 888 274 926 z m 240 617 b 219 689 238 671 233 689 b 203 644 206 689 204 664 b 171 35 200 611 172 60 b 150 -149 164 -68 150 -139 b 158 -162 150 -160 153 -162 b 179 -156 164 -162 168 -161 b 282 -61 218 -136 263 -94 b 289 -42 286 -54 289 -49 b 283 -15 289 -35 286 -26 b 263 247 272 28 264 226 z "},"¢":{"ha":793,"x_min":0,"x_max":0,"o":"m 506 829 b 663 775 589 825 644 796 b 690 697 683 749 688 721 b 697 681 690 686 692 681 b 708 697 703 681 707 685 b 717 825 711 717 717 793 b 707 844 717 836 717 839 b 515 879 640 869 561 879 l 533 1029 b 519 1038 535 1036 529 1039 l 492 1032 b 478 1019 481 1029 479 1026 l 463 881 b 193 788 339 875 267 850 b 85 529 153 753 85 663 b 381 172 85 328 215 203 l 356 -39 b 368 -47 354 -47 358 -50 l 400 -40 b 413 -25 407 -39 411 -35 l 432 163 b 492 161 453 161 469 161 b 676 183 543 161 614 167 b 694 207 688 186 690 192 b 713 335 700 233 713 325 b 704 351 713 344 710 351 b 692 331 699 351 694 344 b 511 224 672 242 608 224 b 443 226 488 224 467 225 z m 390 242 b 188 567 294 276 188 371 b 453 831 188 715 288 831 z "},"£":{"ha":793,"x_min":0,"x_max":0,"o":"m 349 0 b 500 -3 407 0 454 -1 b 640 -7 546 -6 589 -7 b 725 21 719 -7 719 -3 b 749 189 735 69 749 174 b 739 210 749 206 744 210 b 728 196 733 210 729 206 b 599 82 714 113 675 83 l 165 78 l 163 81 b 317 436 276 179 307 360 l 324 494 l 518 494 b 540 506 529 494 536 497 l 556 539 b 549 553 560 549 556 553 b 483 546 542 553 522 546 l 332 546 l 357 756 b 563 1017 376 924 454 1017 b 700 964 631 1017 675 997 b 733 871 722 935 733 890 b 744 850 733 856 738 850 b 756 867 751 850 754 857 b 763 1025 758 883 763 957 b 753 1042 763 1033 760 1040 b 715 1049 740 1043 729 1046 b 594 1065 686 1058 639 1065 b 385 988 542 1065 461 1054 b 240 643 290 906 257 763 l 226 546 l 117 546 b 97 535 107 546 101 544 l 81 506 b 85 493 78 499 79 493 b 114 496 90 493 97 496 l 218 496 l 200 350 b 13 38 181 194 151 67 b -15 14 -3 35 -15 28 b 25 0 -15 1 4 0 z "},"⁄":{"ha":111,"x_min":0,"x_max":0,"o":"m -315 -19 b -299 -15 -310 -24 -304 -24 l 456 975 b 453 989 458 979 458 985 l 426 1008 b 411 1004 418 1014 417 1011 l -342 22 b -343 4 -349 14 -349 7 z "},"¥":{"ha":793,"x_min":0,"x_max":0,"o":"m 449 425 l 660 425 b 679 433 669 425 676 426 l 688 465 b 675 478 690 472 686 478 l 450 478 b 717 938 500 561 672 881 b 789 1008 744 975 758 993 b 849 1025 807 1018 833 1025 b 865 1036 858 1025 865 1029 b 847 1046 865 1043 856 1046 b 718 1042 822 1046 726 1042 b 632 1046 708 1042 667 1046 b 610 1036 619 1046 610 1043 b 632 1021 610 1028 621 1025 b 654 989 649 1014 654 1004 b 628 915 654 968 646 946 b 418 532 600 868 447 581 b 182 944 388 576 204 906 b 164 997 171 965 164 983 b 183 1022 164 1008 172 1019 b 203 1035 193 1025 203 1029 b 185 1046 203 1043 193 1046 b 74 1042 132 1046 82 1042 b -58 1046 67 1042 -33 1046 b -72 1035 -67 1046 -72 1042 b -57 1025 -72 1028 -64 1025 b 4 1007 -49 1025 -19 1022 b 90 904 26 992 61 954 b 346 478 133 829 311 529 l 139 478 b 124 469 131 478 126 476 l 114 440 b 124 425 111 431 111 425 l 349 425 l 349 229 b 347 93 349 179 349 124 b 282 21 346 50 331 28 b 218 17 264 18 232 17 b 208 6 211 17 208 11 b 232 -4 208 -1 214 -4 b 399 0 306 -4 392 0 b 565 -4 403 0 492 -4 b 588 6 581 -4 588 -1 b 575 17 588 11 581 17 b 513 21 563 17 532 18 b 449 93 465 28 450 50 b 449 229 447 124 449 179 z "},"ƒ":{"ha":793,"x_min":0,"x_max":0,"o":"m 278 475 l 233 85 b 163 -221 214 -86 194 -168 b 0 -296 122 -287 69 -296 b -10 -310 -6 -296 -10 -301 b 42 -322 -10 -318 6 -322 b 142 -301 74 -322 114 -315 b 321 1 235 -257 288 -162 b 386 474 344 118 369 358 l 483 474 b 613 468 536 474 603 468 b 640 482 624 468 635 472 l 656 508 b 649 529 663 521 658 529 b 551 524 639 529 614 524 l 390 524 b 460 903 406 661 426 825 b 631 1018 494 983 554 1018 b 744 961 690 1018 729 990 b 767 869 758 933 767 906 b 776 843 767 850 768 843 b 789 869 782 843 786 850 b 804 1019 800 950 804 1000 b 788 1040 804 1026 803 1033 b 649 1065 749 1057 706 1065 b 421 956 531 1065 471 1015 b 286 524 343 861 304 722 l 201 524 b 138 528 168 524 144 528 b 118 511 129 528 122 519 l 104 483 b 117 471 100 475 107 469 b 221 475 132 474 160 475 z "},"§":{"ha":828,"x_min":0,"x_max":0,"o":"m 567 129 b 708 361 647 175 708 249 b 500 629 708 465 639 533 l 464 654 b 271 871 347 735 271 783 b 443 1017 271 972 356 1017 b 608 958 571 1017 600 972 b 626 900 615 946 625 914 b 638 885 628 890 629 885 b 647 911 646 885 647 893 b 653 1036 647 992 653 1031 b 640 1044 653 1043 650 1044 b 597 1050 631 1044 621 1044 b 465 1064 568 1057 539 1064 b 183 839 324 1064 183 993 b 278 661 183 775 218 719 b 118 450 203 631 118 557 b 317 183 118 338 182 281 l 361 151 b 543 -82 472 71 543 18 b 353 -250 543 -185 465 -250 b 153 -133 257 -250 172 -219 b 149 -90 149 -117 149 -100 b 138 -76 149 -81 144 -76 b 128 -96 131 -76 128 -83 b 121 -221 126 -115 121 -162 b 139 -265 121 -253 122 -257 b 339 -297 189 -289 243 -297 b 524 -249 390 -297 471 -283 b 639 -43 610 -192 639 -110 b 567 129 639 18 622 72 z m 532 161 b 414 249 501 190 456 221 l 375 275 b 196 481 256 356 196 397 b 315 628 196 544 251 608 b 389 571 339 608 361 590 l 447 529 b 628 318 557 451 628 410 b 532 161 628 265 592 194 z "},"¤":{"ha":793,"x_min":0,"x_max":0,"o":"m 676 624 l 618 683 l 532 593 b 396 640 499 622 451 640 l 394 640 b 257 592 342 640 292 622 l 174 683 l 117 624 l 208 539 b 163 392 185 506 163 457 b 207 250 163 332 183 282 l 119 165 l 175 106 l 257 197 b 393 149 289 167 344 147 b 529 200 439 149 493 167 l 613 106 l 671 165 l 581 251 b 621 400 603 283 619 335 b 582 539 621 458 603 507 z m 528 397 b 392 233 528 279 457 233 b 257 394 332 233 257 282 b 392 556 257 485 310 556 l 393 556 b 528 397 479 556 528 479 z "},"'":{"ha":278,"x_min":0,"x_max":0,"o":"m 139 1049 b 81 1029 104 1049 81 1049 b 124 785 81 1007 111 938 b 139 722 128 729 132 722 b 154 785 146 722 150 729 b 197 1029 167 938 197 1007 b 139 1049 197 1049 174 1049 z "},"“":{"ha":451,"x_min":0,"x_max":0,"o":"m 338 915 b 383 1114 338 994 363 1069 b 389 1132 388 1124 389 1128 b 382 1139 389 1136 385 1139 b 364 1128 375 1139 369 1136 b 244 854 315 1069 244 953 b 268 818 244 833 251 826 b 365 793 290 810 343 793 b 378 801 371 793 378 797 b 365 825 378 808 376 813 b 338 915 356 836 338 872 z m 157 915 b 203 1114 157 994 182 1069 b 208 1132 207 1124 208 1128 b 201 1139 208 1136 204 1139 b 183 1128 194 1139 189 1136 b 64 854 135 1069 64 953 b 88 818 64 833 71 826 b 185 793 110 810 163 793 b 197 801 190 793 197 797 b 185 825 197 808 196 813 b 157 915 175 836 157 872 z "},"«":{"ha":778,"x_min":0,"x_max":0,"o":"m 668 194 b 674 204 671 197 674 201 b 654 225 674 207 669 211 b 457 424 586 285 478 399 b 667 675 499 481 660 667 b 675 693 671 679 675 686 b 663 704 675 699 668 704 b 638 689 656 704 649 699 b 390 447 625 676 419 472 b 364 417 371 431 364 421 b 389 383 364 408 371 401 b 583 172 417 356 551 208 b 615 142 604 149 613 142 b 626 149 618 142 624 144 z m 408 194 b 414 204 411 197 414 201 b 394 225 414 207 410 211 b 197 424 326 285 218 399 b 407 675 239 481 400 667 b 415 693 411 679 415 686 b 403 704 415 699 408 704 b 378 689 396 704 389 699 b 131 447 365 676 160 472 b 104 417 111 431 104 421 b 129 383 104 408 111 401 b 324 172 157 356 292 208 b 356 142 344 149 353 142 b 367 149 358 142 364 144 z "},"‹":{"ha":521,"x_min":0,"x_max":0,"o":"m 408 194 b 414 204 411 197 414 201 b 394 225 414 207 410 211 b 197 424 326 285 218 399 b 407 675 239 481 400 667 b 415 693 411 679 415 686 b 403 704 415 699 408 704 b 378 689 396 704 389 699 b 131 447 365 676 160 472 b 104 417 111 431 104 421 b 129 383 104 408 111 401 b 324 172 157 356 292 208 b 356 142 344 149 353 142 b 367 149 358 142 364 144 z "},"›":{"ha":521,"x_min":0,"x_max":0,"o":"m 113 651 b 107 642 110 649 107 644 b 126 621 107 639 111 635 b 324 422 194 561 303 447 b 114 171 282 365 121 179 b 106 153 110 167 106 160 b 118 142 106 147 113 142 b 143 157 125 142 132 147 b 390 399 156 169 361 374 b 417 429 410 415 417 425 b 392 463 417 438 410 444 b 197 674 364 490 229 638 b 165 704 176 697 168 704 b 154 697 163 704 157 701 z "},"ﬁ":{"ha":1283,"x_min":0,"x_max":0,"o":"m 215 339 b 208 83 215 225 215 132 b 176 21 203 49 200 25 b 139 15 165 19 150 15 b 129 6 132 15 129 10 b 149 -4 129 -1 136 -4 b 269 0 186 -4 263 0 b 422 -4 275 0 354 -4 b 442 6 436 -4 442 0 b 432 15 442 10 439 15 b 376 21 421 15 394 18 b 332 83 343 26 336 49 b 326 339 326 129 326 222 l 326 433 b 335 444 326 442 328 444 b 531 442 356 444 500 446 b 593 404 568 436 588 421 b 601 361 599 390 600 374 b 610 350 601 356 603 350 b 621 374 618 350 621 363 b 625 453 621 382 622 429 b 636 518 628 492 636 511 b 629 528 636 524 635 528 b 614 515 625 528 619 522 b 557 494 603 501 586 497 b 501 493 540 493 522 493 l 335 492 b 326 503 326 492 326 496 l 326 825 b 336 838 326 835 329 838 l 536 835 b 619 800 583 835 613 815 b 631 756 626 785 631 765 b 640 742 631 747 635 742 b 651 754 646 742 650 749 b 657 832 654 768 656 821 b 667 888 661 865 667 879 b 658 899 667 893 664 899 b 642 892 654 899 649 893 b 586 886 631 888 610 888 b 269 886 558 885 293 886 b 131 889 263 886 186 889 b 111 879 117 889 111 886 b 121 869 111 875 117 869 b 163 867 132 869 153 868 b 213 801 203 861 210 842 b 215 547 215 764 215 731 z m 1069 547 b 1071 801 1069 731 1069 764 b 1114 867 1074 843 1081 860 b 1144 869 1128 869 1136 869 b 1154 879 1149 869 1154 875 b 1135 889 1154 886 1149 889 b 1013 886 1097 889 1018 886 b 889 889 1006 886 929 889 b 869 879 875 889 869 886 b 879 869 869 875 874 869 b 917 865 888 869 903 868 b 956 801 943 860 953 842 b 958 547 958 764 958 731 l 958 339 b 951 83 958 225 957 132 b 919 21 947 49 943 26 b 882 15 908 18 893 15 b 872 6 875 15 872 10 b 892 -4 872 -1 879 -4 b 1013 0 929 -4 1006 0 b 1165 -4 1018 0 1097 -4 b 1185 6 1179 -4 1185 0 b 1175 15 1185 10 1182 15 b 1119 21 1164 15 1138 18 b 1075 83 1083 26 1079 49 b 1069 339 1069 132 1069 225 z "},"ﬂ":{"ha":1486,"x_min":0,"x_max":0,"o":"m 215 339 b 208 83 215 225 215 132 b 176 21 203 49 200 25 b 139 15 165 19 150 15 b 129 6 132 15 129 10 b 149 -4 129 -1 136 -4 b 269 0 186 -4 263 0 b 422 -4 275 0 354 -4 b 442 6 436 -4 442 0 b 432 15 442 10 439 15 b 376 21 421 15 394 18 b 332 83 343 26 336 49 b 326 339 326 129 326 222 l 326 433 b 335 444 326 442 328 444 b 531 442 356 444 500 446 b 593 404 568 436 588 421 b 601 361 599 390 600 374 b 610 350 601 356 603 350 b 621 374 618 350 621 363 b 625 453 621 382 622 429 b 636 518 628 492 636 511 b 629 528 636 524 635 528 b 614 515 625 528 619 522 b 557 494 603 501 586 497 b 501 493 540 493 522 493 l 335 492 b 326 503 326 492 326 496 l 326 825 b 336 838 326 835 329 838 l 536 835 b 619 800 583 835 613 815 b 631 756 626 785 631 765 b 640 742 631 747 635 742 b 651 754 646 742 650 749 b 657 832 654 768 656 821 b 667 888 661 865 667 879 b 658 899 667 893 664 899 b 642 892 654 899 649 893 b 586 886 631 888 610 888 b 269 886 558 885 293 886 b 131 889 263 886 186 889 b 111 879 117 889 111 886 b 121 869 111 875 117 869 b 163 867 132 869 153 868 b 213 801 203 861 210 842 b 215 547 215 764 215 731 z m 1069 547 b 1071 801 1069 731 1069 764 b 1117 868 1074 843 1081 861 b 1157 871 1131 869 1149 871 b 1167 879 1161 871 1167 875 b 1147 889 1167 886 1160 889 b 1013 886 1110 889 1018 886 b 874 889 1006 886 929 889 b 854 879 860 889 854 886 b 864 869 854 875 860 869 b 906 867 875 869 896 868 b 956 801 946 861 953 842 b 958 547 958 764 958 731 l 958 339 b 951 83 958 225 958 132 b 919 21 946 49 943 26 b 882 15 908 18 893 15 b 872 6 875 15 872 10 b 892 -4 872 -1 879 -4 b 963 -1 911 -4 938 -3 b 1013 0 986 0 1007 0 b 1146 -3 1049 0 1090 -1 b 1358 -7 1203 -6 1271 -7 b 1436 25 1424 -7 1428 -3 b 1454 143 1446 60 1454 131 b 1446 161 1454 156 1451 161 b 1433 146 1439 161 1435 154 b 1404 79 1429 122 1419 97 b 1257 43 1375 44 1321 43 b 1094 71 1161 43 1114 51 b 1069 336 1072 92 1069 163 z "},"–":{"ha":694,"x_min":0,"x_max":0,"o":"m 0 392 l 694 392 l 694 456 l 0 456 z "},"†":{"ha":847,"x_min":0,"x_max":0,"o":"m 371 610 l 181 614 b 117 624 147 615 124 624 b 97 607 108 624 100 615 l 79 549 b 89 529 75 533 79 528 b 301 546 189 538 240 544 l 372 547 b 389 -250 372 525 386 -206 b 418 -322 393 -304 399 -322 b 443 -278 438 -322 442 -297 b 465 547 444 -256 454 213 l 613 543 b 729 528 663 542 719 528 b 757 542 740 528 753 532 l 779 603 b 772 624 785 617 782 624 b 675 614 763 624 738 615 l 467 610 b 474 868 471 753 474 861 b 486 1051 481 971 486 1042 b 478 1065 486 1063 483 1065 b 457 1058 472 1065 468 1064 b 361 975 418 1039 381 1003 b 354 956 357 968 354 963 b 360 929 354 949 357 940 b 371 610 367 904 368 742 z "},"‡":{"ha":847,"x_min":0,"x_max":0,"o":"m 604 203 b 719 194 654 201 710 194 b 747 208 731 194 744 199 l 761 254 b 754 275 765 268 764 275 b 664 268 744 275 726 269 l 456 264 l 464 621 l 604 617 b 729 606 654 615 719 606 b 757 619 740 606 753 610 l 776 668 b 769 689 782 682 779 689 b 675 682 760 689 738 683 l 465 678 b 472 868 468 753 472 861 b 482 1051 476 971 482 1042 b 474 1065 482 1063 479 1065 b 453 1058 468 1065 464 1063 b 371 1001 414 1043 390 1021 b 364 982 364 994 364 989 b 369 956 364 975 367 967 b 375 678 376 931 372 742 l 181 682 b 114 689 147 683 121 689 b 94 672 106 689 97 681 l 79 625 b 89 606 74 610 79 604 b 301 619 189 614 240 618 l 375 621 b 381 264 375 578 378 426 l 192 267 b 125 274 158 267 132 274 b 106 257 117 274 108 265 l 93 211 b 103 192 89 196 93 190 b 301 206 203 200 240 204 l 382 207 b 392 -250 386 -8 390 -226 b 417 -322 393 -304 397 -322 b 443 -278 436 -322 442 -297 b 454 207 444 -264 447 -56 z "},"·":{"ha":347,"x_min":0,"x_max":0,"o":"m 172 322 b 250 403 219 322 250 358 b 174 475 250 447 217 475 b 97 399 119 475 97 431 b 172 322 97 364 119 322 z "},"¶":{"ha":989,"x_min":0,"x_max":0,"o":"m 533 949 l 533 103 b 525 -219 533 -31 531 -162 b 517 -272 521 -258 517 -269 b 528 -281 517 -279 522 -281 b 597 -251 549 -281 579 -268 b 606 -233 603 -246 607 -240 b 601 103 600 -175 601 -31 l 601 643 b 603 953 601 860 600 899 b 654 1004 606 990 622 1004 b 708 950 694 1004 708 979 l 708 97 b 701 -169 708 -36 704 -139 b 694 -222 700 -199 694 -215 b 703 -229 694 -226 696 -229 b 769 -200 721 -229 751 -217 b 779 -181 775 -194 779 -187 b 776 97 775 -122 776 -36 l 776 643 b 779 943 776 860 776 899 b 829 1022 782 990 793 1013 b 868 1026 840 1025 856 1026 b 879 1035 874 1026 879 1029 b 857 1046 879 1043 872 1046 b 633 1042 794 1046 647 1042 b 486 1046 603 1042 513 1046 b 168 942 318 1046 225 996 b 74 721 119 896 74 818 b 417 417 74 535 219 417 b 446 418 424 417 439 417 b 461 428 453 418 461 421 b 421 454 461 443 444 439 b 317 721 356 497 317 593 b 365 919 317 767 325 857 b 510 1004 399 972 464 1004 b 533 949 528 1004 533 985 z "},"•":{"ha":583,"x_min":0,"x_max":0,"o":"m 239 549 b 224 438 239 521 233 471 b 215 410 221 429 215 415 b 222 403 215 406 219 403 b 250 422 229 403 240 414 b 406 588 307 474 364 524 b 414 615 410 594 414 604 b 372 639 414 625 401 633 b 188 669 303 654 211 669 b 171 658 176 669 171 667 b 190 643 171 650 179 649 b 239 549 207 635 239 613 z "},"‚":{"ha":278,"x_min":0,"x_max":0,"o":"m 118 68 b 72 -131 118 -11 93 -86 b 67 -149 68 -140 67 -144 b 74 -156 67 -153 71 -156 b 92 -144 81 -156 86 -153 b 211 129 140 -86 211 31 b 188 165 211 150 204 157 b 90 190 165 174 113 190 b 78 182 85 190 78 186 b 90 158 78 175 79 171 b 118 68 100 147 118 111 z "},"„":{"ha":451,"x_min":0,"x_max":0,"o":"m 114 68 b 68 -131 114 -11 89 -86 b 63 -149 64 -140 63 -144 b 69 -156 63 -153 67 -156 b 88 -144 76 -156 82 -153 b 207 129 136 -86 207 31 b 183 165 207 150 200 157 b 86 190 161 174 108 190 b 74 182 81 190 74 186 b 86 158 74 175 75 171 b 114 68 96 147 114 111 z m 294 68 b 249 -131 294 -11 269 -86 b 243 -149 244 -140 243 -144 b 250 -156 243 -153 247 -156 b 268 -144 257 -156 263 -153 b 388 129 317 -86 388 31 b 364 165 388 150 381 157 b 267 190 342 174 289 190 b 254 182 261 190 254 186 b 267 158 254 175 256 171 b 294 68 276 147 294 111 z "},"”":{"ha":451,"x_min":0,"x_max":0,"o":"m 114 1017 b 68 818 114 938 89 863 b 63 800 64 808 63 804 b 69 793 63 796 67 793 b 88 804 76 793 82 796 b 207 1078 136 863 207 979 b 183 1114 207 1099 200 1106 b 86 1139 161 1122 108 1139 b 74 1131 81 1139 74 1135 b 86 1107 74 1124 75 1119 b 114 1017 96 1096 114 1060 z m 294 1017 b 249 818 294 938 269 863 b 243 800 244 808 243 804 b 250 793 243 796 247 793 b 268 804 257 793 263 796 b 388 1078 317 863 388 979 b 364 1114 388 1099 381 1106 b 267 1139 342 1122 289 1139 b 254 1131 261 1139 254 1135 b 267 1107 254 1124 256 1119 b 294 1017 276 1096 294 1060 z "},"»":{"ha":778,"x_min":0,"x_max":0,"o":"m 110 651 b 104 642 107 649 104 644 b 124 621 104 639 108 635 b 321 422 192 561 300 447 b 111 171 279 365 118 179 b 103 153 107 167 103 160 b 115 142 103 147 110 142 b 140 157 122 142 129 147 b 388 399 153 169 358 374 b 414 429 407 415 414 425 b 389 463 414 438 407 444 b 194 674 361 490 226 638 b 163 704 174 697 165 704 b 151 697 160 704 154 701 z m 369 651 b 364 642 367 649 364 644 b 383 621 364 639 368 635 b 581 422 451 561 560 447 b 371 171 539 365 378 179 b 363 153 367 167 363 160 b 375 142 363 147 369 142 b 400 157 382 142 389 147 b 647 399 413 169 618 374 b 674 429 667 415 674 425 b 649 463 674 438 667 444 b 454 674 621 490 486 638 b 422 704 433 697 425 704 b 411 697 419 704 414 701 z "},"…":{"ha":1389,"x_min":0,"x_max":0,"o":"m 231 0 b 306 78 275 0 306 35 b 231 149 306 121 274 149 b 157 74 179 149 157 106 b 231 0 157 40 179 0 z m 694 0 b 769 78 739 0 769 35 b 694 149 769 121 738 149 b 621 74 643 149 621 106 b 694 0 621 40 643 0 z m 1158 0 b 1233 78 1203 0 1233 35 b 1158 149 1233 121 1201 149 b 1085 74 1107 149 1085 106 b 1158 0 1085 40 1107 0 z "},"‰":{"ha":1689,"x_min":0,"x_max":0,"o":"m 854 0 b 1082 251 1013 0 1082 132 b 863 485 1082 356 1013 485 b 635 232 701 485 635 353 b 854 0 635 129 701 0 z m 858 38 b 717 250 763 38 717 147 b 857 447 717 357 757 447 b 1000 233 950 447 1000 336 b 858 38 1000 128 960 38 z m 396 -6 b 408 11 403 -4 403 -1 l 797 976 b 811 1015 806 996 811 1008 b 803 1019 811 1019 808 1019 b 301 989 768 1019 525 989 b 65 736 142 989 65 858 b 285 504 65 633 132 504 b 513 756 440 504 513 636 b 426 944 513 840 474 911 l 426 947 b 738 968 449 946 654 964 b 321 -1 725 940 453 294 b 335 -15 317 -10 321 -18 z m 290 540 b 147 754 194 540 147 651 b 288 953 147 861 188 953 b 431 738 381 953 431 840 b 290 540 431 632 392 540 z m 1394 0 b 1622 251 1553 0 1622 132 b 1404 485 1622 356 1554 485 b 1175 232 1243 485 1175 353 b 1394 0 1175 129 1242 0 z m 1400 38 b 1257 250 1304 38 1257 147 b 1397 447 1257 357 1297 447 b 1542 233 1490 447 1542 336 b 1400 38 1542 128 1501 38 z "},"¿":{"ha":678,"x_min":0,"x_max":0,"o":"m 368 -115 b 206 61 242 -115 206 -4 b 328 356 206 160 231 232 b 424 471 358 394 392 429 b 454 540 444 497 454 521 b 414 622 454 565 442 588 b 356 671 397 643 368 671 b 340 658 350 671 340 664 b 353 635 340 654 343 647 b 379 564 372 608 379 585 b 322 453 379 540 374 518 b 83 54 189 288 83 215 b 335 -162 83 -43 150 -162 b 565 -107 442 -162 524 -132 b 581 -85 579 -99 581 -93 b 575 78 581 -31 579 60 b 564 92 574 88 571 92 b 553 68 557 92 554 82 b 504 -61 549 21 538 -21 b 368 -115 482 -89 436 -115 z m 365 926 b 293 851 322 926 293 893 b 364 785 293 811 324 785 b 435 856 414 785 435 826 b 365 926 435 888 414 926 z "},"`":{"ha":1265,"x_min":0,"x_max":0,"o":"m 703 1153 b 715 1160 710 1153 715 1156 b 689 1179 715 1165 703 1169 b 553 1281 632 1215 564 1269 b 532 1303 540 1293 539 1303 b 510 1296 526 1303 521 1300 b 426 1269 493 1289 456 1278 b 411 1258 417 1267 411 1265 b 451 1235 411 1251 422 1246 b 703 1153 474 1226 678 1153 z "},"´":{"ha":1265,"x_min":0,"x_max":0,"o":"m 810 1296 b 796 1308 803 1306 800 1308 b 757 1290 789 1308 781 1304 b 568 1172 747 1285 618 1207 b 558 1161 561 1168 558 1165 b 565 1153 558 1156 563 1153 b 586 1160 568 1153 576 1156 b 797 1218 632 1179 729 1211 b 839 1218 821 1221 835 1218 b 844 1235 844 1218 851 1222 b 810 1296 829 1263 819 1282 z "},"ˆ":{"ha":1265,"x_min":0,"x_max":0,"o":"m 808 1174 b 815 1186 811 1178 815 1182 b 799 1200 815 1189 811 1192 b 658 1306 781 1214 669 1297 b 636 1319 647 1314 642 1319 b 614 1306 632 1319 625 1315 b 458 1161 599 1292 472 1175 b 450 1146 454 1156 450 1151 b 460 1135 450 1140 454 1135 b 485 1149 464 1135 474 1139 b 603 1236 518 1176 571 1219 b 625 1243 614 1242 619 1243 b 639 1238 629 1243 633 1240 b 756 1142 656 1228 728 1172 b 767 1135 760 1136 763 1135 b 779 1143 771 1135 774 1138 z "},"˜":{"ha":1265,"x_min":0,"x_max":0,"o":"m 731 1153 b 846 1249 774 1153 835 1226 b 851 1267 850 1257 851 1261 b 842 1275 851 1271 847 1275 b 825 1260 838 1275 831 1268 b 740 1219 821 1254 792 1219 b 660 1243 718 1219 679 1233 b 543 1286 617 1264 576 1286 b 424 1188 499 1286 443 1218 b 414 1167 418 1179 414 1174 b 422 1158 414 1163 417 1158 b 442 1171 428 1158 435 1163 b 526 1221 451 1182 478 1221 b 621 1189 569 1221 596 1200 b 731 1153 640 1179 685 1153 z "},"¯":{"ha":1265,"x_min":0,"x_max":0,"o":"m 476 1250 b 461 1242 468 1250 463 1249 l 450 1207 b 464 1197 449 1199 454 1197 l 790 1197 b 803 1206 797 1197 801 1200 l 814 1236 b 803 1250 817 1243 814 1250 z "},"˘":{"ha":1265,"x_min":0,"x_max":0,"o":"m 439 1256 b 429 1243 435 1253 429 1250 b 479 1193 429 1233 458 1208 b 608 1153 517 1167 565 1153 b 749 1193 668 1153 706 1167 b 835 1282 781 1213 835 1267 b 824 1293 835 1289 831 1293 b 767 1249 814 1293 807 1278 b 644 1208 740 1228 701 1208 b 514 1274 626 1208 561 1213 b 496 1296 506 1283 504 1296 b 483 1289 492 1296 488 1292 z "},"˙":{"ha":1265,"x_min":0,"x_max":0,"o":"m 632 1153 b 704 1228 675 1153 704 1186 b 632 1296 704 1269 672 1296 b 561 1224 582 1296 561 1254 b 632 1153 561 1192 582 1153 z "},"¨":{"ha":1265,"x_min":0,"x_max":0,"o":"m 771 1153 b 832 1217 808 1153 832 1181 b 772 1272 832 1251 806 1272 b 713 1213 729 1272 713 1238 b 771 1153 713 1186 729 1153 z m 492 1153 b 553 1217 529 1153 553 1181 b 493 1272 553 1251 526 1272 b 433 1213 450 1272 433 1238 b 492 1153 433 1186 450 1153 z "},"˚":{"ha":1265,"x_min":0,"x_max":0,"o":"m 603 1139 b 772 1261 683 1139 774 1185 b 658 1340 772 1308 729 1340 b 494 1221 563 1340 494 1283 b 603 1139 494 1174 533 1139 z m 625 1172 b 556 1239 592 1172 556 1197 b 635 1307 556 1286 603 1307 b 707 1243 685 1307 707 1276 b 625 1172 707 1204 671 1172 z "},"¸":{"ha":1265,"x_min":0,"x_max":0,"o":"m 656 0 l 549 -87 b 531 -107 536 -97 531 -103 b 551 -119 531 -112 536 -115 b 651 -221 633 -143 651 -181 b 549 -306 651 -271 597 -300 b 521 -321 533 -307 521 -308 b 539 -332 521 -328 529 -332 b 647 -307 565 -332 610 -324 b 746 -193 694 -287 746 -247 b 607 -94 746 -136 693 -103 b 711 0 619 -81 697 -8 z "},"˝":{"ha":1265,"x_min":0,"x_max":0,"o":"m 546 1310 b 442 1165 533 1294 446 1178 b 446 1153 439 1158 442 1153 b 465 1168 451 1153 456 1157 b 601 1272 499 1203 560 1246 b 643 1290 621 1283 638 1288 b 639 1303 647 1292 649 1297 b 588 1333 619 1315 603 1326 b 569 1338 581 1336 575 1338 b 546 1310 564 1338 560 1328 z m 726 1313 b 608 1164 714 1299 613 1176 b 613 1153 606 1157 608 1153 b 632 1165 617 1153 622 1154 b 779 1269 665 1194 732 1244 b 822 1283 799 1281 818 1282 b 821 1297 826 1285 828 1290 b 772 1332 800 1314 786 1324 b 753 1338 764 1336 758 1338 b 726 1313 747 1338 742 1329 z "},"˛":{"ha":1265,"x_min":0,"x_max":0,"o":"m 642 0 b 493 -215 624 -11 493 -110 b 603 -312 493 -269 529 -312 b 767 -226 682 -312 753 -242 b 778 -207 774 -218 778 -217 b 767 -199 778 -203 775 -199 b 672 -249 758 -199 715 -249 b 601 -179 633 -249 601 -224 b 682 0 601 -101 643 -36 z "},"ˇ":{"ha":1265,"x_min":0,"x_max":0,"o":"m 457 1278 b 450 1265 454 1274 450 1269 b 467 1251 450 1263 454 1260 b 607 1146 485 1238 596 1154 b 628 1132 618 1136 624 1132 b 651 1146 633 1132 640 1136 b 807 1290 667 1160 793 1276 b 815 1306 811 1296 815 1300 b 806 1317 815 1311 811 1317 b 781 1303 801 1317 792 1313 b 663 1215 747 1275 694 1232 b 640 1208 651 1210 646 1208 b 626 1214 636 1208 632 1211 b 510 1310 608 1222 538 1279 b 499 1317 506 1315 503 1317 b 486 1308 494 1317 492 1314 z "},"—":{"ha":1389,"x_min":0,"x_max":0,"o":"m 1389 392 l 1389 456 l 0 456 l 0 392 z "},"Æ":{"ha":1267,"x_min":0,"x_max":0,"o":"m 657 474 b 669 463 665 474 669 471 l 669 399 b 663 97 669 265 669 156 b 622 21 657 57 650 26 b 583 15 610 18 596 15 b 572 7 575 15 572 11 b 594 -4 572 -1 579 -4 b 671 -1 615 -4 644 -3 b 725 0 696 -1 718 0 b 833 -4 746 0 779 -1 b 1068 -8 888 -6 964 -8 b 1143 28 1122 -8 1133 -8 b 1161 161 1150 56 1161 150 b 1153 182 1161 171 1161 182 b 1140 161 1146 182 1143 176 b 1078 63 1131 104 1114 78 b 944 47 1042 47 981 47 b 783 160 808 47 788 65 b 783 399 782 190 783 351 l 783 461 b 793 474 783 471 785 474 b 982 471 817 474 954 474 b 1064 422 1038 465 1058 442 b 1068 389 1068 407 1068 396 b 1079 374 1069 379 1072 374 b 1089 396 1089 374 1089 389 b 1094 475 1089 406 1092 447 b 1106 553 1099 521 1106 544 b 1099 564 1106 561 1103 564 b 1078 546 1093 564 1088 557 b 1013 526 1065 532 1046 529 b 792 524 981 524 810 524 b 783 538 785 524 783 528 l 783 978 b 792 992 783 988 786 992 b 982 988 807 992 958 990 b 1081 940 1057 979 1071 963 b 1089 890 1088 924 1089 900 b 1100 872 1089 879 1092 872 b 1110 888 1106 872 1108 881 b 1117 979 1113 904 1115 965 b 1128 1044 1121 1018 1128 1035 b 1122 1057 1128 1051 1126 1057 b 1103 1050 1115 1057 1110 1051 b 1043 1043 1092 1047 1069 1044 b 725 1042 1011 1042 735 1042 b 701 1044 718 1042 708 1043 b 681 1046 693 1044 686 1046 b 663 1026 671 1046 665 1038 b 632 968 660 1017 657 1007 b 122 178 378 569 167 239 b -24 29 69 104 38 60 b -82 15 -46 18 -72 15 b -97 7 -92 15 -97 13 b -79 -4 -97 0 -93 -4 b 78 0 -12 -4 67 0 b 251 -4 92 0 174 -4 b 275 6 264 -4 275 0 b 258 15 275 13 268 15 b 197 26 243 15 215 19 b 169 67 181 33 169 47 b 229 207 169 92 182 129 b 388 464 253 247 372 443 b 413 474 394 474 401 474 z m 669 535 b 657 524 669 528 667 524 l 435 524 b 429 536 426 524 424 526 b 657 910 440 558 632 872 b 669 910 663 918 669 918 z "},"ª":{"ha":556,"x_min":0,"x_max":0,"o":"m 340 725 b 349 719 344 725 346 724 l 404 594 b 399 581 407 588 403 582 b 393 574 396 579 393 578 b 417 569 393 571 401 569 b 553 567 486 567 542 567 b 568 574 561 567 568 568 b 561 579 568 578 565 579 b 531 582 553 579 542 579 b 471 651 514 586 499 600 b 292 1042 419 749 303 1018 b 272 1065 282 1063 278 1065 b 254 1049 265 1065 260 1061 l 78 639 b 15 581 64 606 47 583 b -7 579 8 579 -1 579 b -14 574 -11 579 -14 578 b 0 567 -14 568 -10 567 b 88 569 36 567 74 569 b 150 567 100 569 132 567 b 163 574 157 567 163 568 b 154 579 163 578 160 579 l 147 579 b 128 599 139 579 128 586 b 136 635 128 607 132 622 l 167 718 b 174 725 168 722 169 725 z m 190 767 b 188 772 188 767 186 769 l 247 928 b 261 928 251 938 257 938 l 325 772 b 321 767 326 769 325 767 z "},"Ł":{"ha":822,"x_min":0,"x_max":0,"o":"m 364 529 l 590 640 b 597 653 597 643 600 647 l 582 685 b 571 689 581 689 576 692 l 364 589 l 364 643 b 367 943 364 860 364 899 b 421 1022 369 992 381 1015 b 467 1026 438 1025 457 1026 b 478 1035 472 1026 478 1029 b 456 1046 478 1043 471 1046 b 306 1042 414 1046 313 1042 b 149 1046 299 1042 211 1046 b 126 1035 133 1046 126 1043 b 138 1026 126 1029 132 1026 b 185 1022 150 1026 174 1025 b 244 943 231 1013 242 990 b 247 643 247 899 247 860 l 247 535 l 100 458 b 97 447 96 457 96 451 l 111 417 b 124 413 115 410 119 411 l 247 476 l 247 399 b 240 97 247 265 247 156 b 200 21 235 57 228 26 b 158 15 188 18 171 15 b 147 7 150 15 147 11 b 169 -4 147 -1 154 -4 b 249 -1 190 -4 221 -3 b 306 0 276 -1 300 0 b 447 -4 346 0 389 -1 b 678 -8 506 -6 578 -8 b 765 29 751 -8 756 -3 b 786 168 776 69 786 153 b 778 189 786 183 785 189 b 765 171 769 189 767 182 b 729 88 761 144 747 110 b 561 46 696 47 635 46 b 394 78 453 46 417 56 b 364 396 368 104 364 208 z "},"Ø":{"ha":1271,"x_min":0,"x_max":0,"o":"m 281 92 b 628 -24 365 21 481 -24 b 1182 544 963 -24 1182 233 b 1043 910 1182 697 1131 821 l 1156 1031 b 1156 1049 1161 1036 1163 1042 l 1128 1071 b 1108 1074 1119 1078 1114 1079 l 994 951 b 636 1065 901 1025 788 1065 b 89 522 253 1065 89 747 b 236 133 89 388 135 239 l 115 3 b 118 -11 111 -1 113 -6 l 146 -37 b 160 -37 151 -43 156 -43 z m 965 826 b 1049 506 1017 746 1049 638 b 665 29 1049 101 790 29 b 353 169 542 29 433 79 z m 315 218 b 221 561 256 307 221 424 b 625 1018 221 865 394 1018 b 926 878 738 1018 847 971 z "},"Œ":{"ha":1649,"x_min":0,"x_max":0,"o":"m 1165 978 b 1174 994 1165 990 1168 994 b 1364 990 1189 994 1340 993 b 1463 943 1439 982 1453 965 b 1471 893 1469 926 1471 903 b 1482 875 1471 882 1474 875 b 1492 890 1488 875 1490 883 b 1499 982 1494 907 1497 968 b 1510 1044 1503 1018 1510 1035 b 1504 1057 1510 1051 1508 1057 b 1485 1050 1497 1057 1492 1051 b 1425 1043 1474 1047 1451 1044 b 1104 1042 1393 1042 1117 1042 b 1076 1044 1093 1042 1085 1043 b 1061 1046 1069 1044 1065 1046 b 1047 1033 1053 1046 1047 1040 b 1050 982 1047 1024 1050 1004 l 1050 892 l 1044 892 b 644 1065 988 964 865 1065 b 89 521 256 1064 89 751 b 628 -24 89 269 249 -24 b 1049 169 897 -24 1011 128 l 1053 169 l 1050 47 b 1046 6 1050 28 1046 17 b 1060 -4 1046 0 1051 -4 b 1079 -1 1067 -4 1072 -3 b 1107 0 1088 -1 1096 0 b 1215 -4 1128 0 1161 -1 b 1450 -8 1269 -6 1346 -8 b 1525 28 1504 -8 1515 -8 b 1543 161 1532 56 1543 150 b 1535 182 1543 171 1543 182 b 1522 161 1528 182 1525 176 b 1460 63 1513 104 1496 78 b 1326 47 1424 47 1363 47 b 1165 160 1190 47 1169 65 b 1165 456 1164 190 1165 351 l 1165 518 b 1175 531 1165 528 1167 531 b 1364 528 1199 531 1336 531 b 1446 479 1419 522 1440 499 b 1450 446 1450 464 1450 453 b 1461 431 1451 436 1454 431 b 1471 453 1471 431 1471 446 b 1476 532 1471 463 1474 504 b 1488 610 1481 578 1488 601 b 1481 621 1488 618 1485 621 b 1460 603 1475 621 1469 614 b 1394 583 1447 589 1428 586 b 1174 581 1363 581 1192 581 b 1165 594 1167 581 1165 585 z m 664 29 b 221 561 415 29 221 238 b 625 1018 221 865 394 1018 b 1049 506 844 1018 1049 839 b 664 29 1049 101 789 29 z "},"º":{"ha":607,"x_min":0,"x_max":0,"o":"m 300 563 b 581 825 471 563 581 681 b 304 1065 581 975 465 1065 b 28 814 117 1065 28 926 b 300 563 28 689 110 563 z m 319 600 b 126 829 217 600 126 697 b 292 1029 126 965 213 1029 b 482 807 383 1029 482 950 b 319 600 482 631 369 600 z "},"æ":{"ha":1132,"x_min":0,"x_max":0,"o":"m 582 397 b 593 388 590 397 593 394 l 593 339 b 588 83 593 225 593 132 b 551 21 583 49 576 25 b 514 15 540 19 525 15 b 504 6 506 15 504 10 b 524 -4 504 -1 510 -4 b 590 -1 542 -4 568 -3 b 638 0 613 -1 632 0 b 740 -3 656 0 689 -1 b 954 -7 792 -6 863 -7 b 1019 24 1001 -7 1011 -7 b 1036 138 1026 47 1036 128 b 1028 154 1036 146 1036 154 b 1014 138 1022 154 1017 150 b 963 57 1006 89 994 71 b 844 44 931 44 876 44 b 697 132 725 44 701 51 b 697 339 696 157 697 299 l 697 388 b 706 399 697 396 699 399 b 878 396 726 399 854 399 b 947 358 926 392 943 375 b 951 336 951 346 951 340 b 964 318 951 325 957 318 b 972 336 972 318 972 331 b 976 404 972 344 974 381 b 986 469 979 443 986 463 b 981 479 986 476 985 479 b 963 464 974 479 969 474 b 906 449 953 451 935 451 b 706 446 876 446 721 446 b 697 458 699 446 697 450 l 697 826 b 706 839 697 835 700 839 b 878 835 718 839 857 838 b 963 799 944 826 953 818 b 969 757 968 785 969 765 b 982 742 969 747 975 742 b 990 754 986 742 989 749 b 997 832 993 768 996 821 b 1007 888 1000 865 1007 879 b 1001 899 1007 893 1006 899 b 985 893 996 899 990 893 b 932 886 975 890 956 886 l 638 886 b 599 889 625 886 607 889 b 583 872 590 889 586 882 b 556 822 581 864 578 856 b 107 151 332 485 147 203 b -21 25 60 90 33 51 b -72 13 -40 15 -64 13 b -86 6 -81 13 -86 11 b -69 -4 -86 0 -82 -4 b 68 0 -11 -4 58 0 b 222 -4 81 0 154 -4 b 243 4 233 -4 243 0 b 229 15 243 11 238 15 b 176 25 215 15 192 19 b 153 57 161 31 153 40 b 207 176 153 78 165 110 b 344 389 228 210 331 371 b 365 397 350 397 356 397 z m 593 454 b 582 444 593 449 590 444 l 386 444 b 382 456 379 444 376 447 b 582 774 393 475 560 742 b 593 774 588 781 593 781 z "},"ı":{"ha":540,"x_min":0,"x_max":0,"o":"m 326 547 b 328 801 326 731 326 764 b 371 867 331 843 338 860 b 401 869 385 869 393 869 b 411 879 406 869 411 875 b 392 889 411 886 406 889 b 269 886 354 889 275 886 b 146 889 263 886 186 889 b 126 879 132 889 126 886 b 136 869 126 875 131 869 b 174 865 144 869 160 868 b 213 801 200 860 210 842 b 215 547 215 764 215 731 l 215 339 b 208 83 215 225 214 132 b 176 21 204 49 200 26 b 139 15 165 18 150 15 b 129 6 132 15 129 10 b 149 -4 129 -1 136 -4 b 269 0 186 -4 263 0 b 422 -4 275 0 354 -4 b 442 6 436 -4 442 0 b 432 15 442 10 439 15 b 376 21 421 15 394 18 b 332 83 340 26 336 49 b 326 339 326 132 326 225 z "},"ł":{"ha":743,"x_min":0,"x_max":0,"o":"m 326 447 l 524 540 b 529 551 529 543 532 546 l 514 586 b 504 590 513 590 508 592 l 326 503 l 326 547 b 328 801 326 731 326 764 b 374 867 331 843 338 860 b 414 869 388 868 406 869 b 424 879 418 869 424 875 b 404 889 424 886 417 889 b 272 886 367 889 278 886 b 131 889 265 886 186 889 b 111 879 117 889 111 886 b 121 869 111 875 117 869 b 163 867 132 869 153 868 b 213 801 203 861 210 842 b 215 547 215 764 215 731 l 215 457 l 88 394 b 86 385 85 393 85 388 l 100 351 b 111 347 104 346 108 347 l 215 403 l 215 339 b 208 83 215 225 215 132 b 176 19 203 49 200 25 b 139 14 165 17 150 14 b 129 6 132 14 129 10 b 149 -4 129 -1 136 -4 b 219 -1 168 -4 194 -1 b 272 0 246 0 267 0 b 404 -3 308 0 350 -1 b 614 -7 458 -6 526 -7 b 692 25 679 -7 683 -3 b 710 143 701 60 710 131 b 700 161 710 156 706 161 b 689 146 693 161 690 154 b 657 75 685 122 672 93 b 513 43 628 40 576 43 b 353 71 417 43 372 51 b 326 336 329 93 326 178 z "},"ø":{"ha":1122,"x_min":0,"x_max":0,"o":"m 249 78 b 556 -19 322 18 425 -19 b 1044 463 850 -19 1044 199 b 921 774 1044 593 997 697 l 1019 875 b 1019 890 1025 881 1026 883 l 996 914 b 978 917 988 922 982 922 l 876 808 b 560 906 794 871 693 906 b 76 444 222 906 76 635 b 207 113 76 329 117 201 l 100 3 b 103 -10 96 -1 97 -4 l 131 -33 b 143 -33 136 -37 140 -37 z m 849 701 b 918 429 893 632 918 542 b 588 29 918 90 700 29 b 315 146 478 29 386 68 z m 282 186 b 201 476 229 263 201 360 b 551 861 201 732 349 861 b 814 744 650 861 744 824 z "},"œ":{"ha":1468,"x_min":0,"x_max":0,"o":"m 1033 826 b 1042 842 1033 838 1036 842 b 1215 838 1054 842 1194 840 b 1300 800 1274 829 1290 819 b 1307 758 1306 786 1307 767 b 1318 743 1307 749 1311 743 b 1328 756 1322 743 1326 750 b 1335 835 1331 769 1333 822 b 1344 888 1338 865 1344 879 b 1339 899 1344 893 1343 899 b 1322 893 1333 899 1328 894 b 1269 886 1313 892 1293 886 l 972 886 b 939 889 953 886 946 889 b 928 878 932 889 928 885 b 929 835 928 869 929 854 l 929 751 l 925 751 b 565 906 869 819 761 906 b 76 443 224 904 76 639 b 551 -19 76 229 218 -19 b 928 151 788 -19 890 108 l 932 151 l 929 40 b 926 4 929 24 926 14 b 938 -4 926 0 931 -4 b 974 0 949 -4 954 0 b 1072 -3 993 0 1025 -1 b 1292 -7 1119 -4 1200 -7 b 1357 24 1339 -7 1349 -7 b 1374 138 1364 47 1374 128 b 1364 154 1374 146 1372 154 b 1351 138 1358 154 1354 150 b 1299 57 1343 89 1326 71 b 1182 44 1268 42 1214 44 b 1033 133 1063 44 1038 53 b 1033 388 1032 158 1033 299 l 1033 438 b 1042 449 1033 446 1035 449 b 1215 446 1063 449 1192 449 b 1285 407 1264 442 1281 424 b 1289 379 1289 394 1289 385 b 1300 367 1289 371 1293 367 b 1310 385 1308 367 1310 379 b 1314 453 1310 393 1311 429 b 1324 518 1317 492 1324 511 b 1318 528 1324 525 1322 528 b 1300 513 1314 528 1308 522 b 1243 497 1289 500 1272 500 b 1042 494 1214 494 1057 494 b 1033 507 1035 494 1033 499 z m 586 29 b 201 476 367 29 201 208 b 551 861 201 732 349 861 b 929 429 744 861 929 704 b 586 29 929 93 696 29 z "},"ß":{"ha":1456,"x_min":0,"x_max":0,"o":"m 290 -19 b 485 22 357 -19 433 -11 b 599 224 572 79 599 154 b 399 508 599 325 547 407 l 364 532 b 206 732 243 614 206 657 b 368 860 206 815 279 860 b 526 801 478 860 518 815 b 544 743 533 789 543 757 b 556 728 546 733 547 728 b 565 754 564 728 565 736 b 571 879 565 835 571 874 b 558 888 571 886 568 888 b 515 893 549 888 539 888 b 389 907 486 900 438 907 b 118 685 228 907 118 824 b 293 432 118 603 161 531 l 349 390 b 503 185 457 310 503 269 b 319 28 503 96 440 28 b 126 144 238 28 146 58 b 122 188 122 161 122 178 b 111 201 122 197 118 201 b 101 182 104 201 101 194 b 94 57 100 163 94 115 b 113 13 94 25 96 21 b 290 -19 163 -11 233 -19 z m 1018 -19 b 1213 22 1085 -19 1161 -11 b 1326 224 1300 79 1326 154 b 1126 508 1326 325 1275 407 l 1092 532 b 933 732 971 614 933 657 b 1096 860 933 815 1007 860 b 1254 801 1206 860 1246 815 b 1272 743 1261 789 1271 757 b 1283 728 1274 733 1275 728 b 1293 754 1292 728 1293 736 b 1299 879 1293 835 1299 874 b 1286 888 1299 886 1296 888 b 1243 893 1276 888 1267 888 b 1117 907 1214 900 1165 907 b 846 685 956 907 846 824 b 1021 432 846 603 889 531 l 1076 390 b 1231 185 1185 310 1231 269 b 1047 28 1231 96 1168 28 b 854 144 965 28 874 58 b 850 188 850 161 850 178 b 839 201 850 197 846 201 b 829 182 832 201 829 194 b 822 57 828 163 822 115 b 840 13 822 25 824 21 b 1018 -19 890 -11 961 -19 z "},"¹":{"ha":458,"x_min":0,"x_max":0,"o":"m 278 826 b 282 1047 278 963 282 1040 b 274 1065 282 1057 281 1065 b 249 1053 267 1065 256 1058 b 46 926 240 1046 51 932 b 42 917 43 924 42 921 b 50 908 42 913 46 908 b 63 913 54 908 60 911 b 178 954 85 922 161 954 b 194 932 193 954 193 944 b 196 826 196 918 196 871 l 196 674 b 192 492 196 599 196 528 b 150 447 189 468 183 454 b 71 440 131 443 82 440 b 60 431 64 440 60 436 b 76 421 60 424 65 421 b 236 424 144 421 231 424 b 382 421 242 424 307 421 b 399 432 394 421 399 425 b 386 440 399 438 393 440 b 322 447 376 440 339 443 b 282 492 290 454 285 468 b 278 674 278 528 278 599 z "},"¬":{"ha":708,"x_min":0,"x_max":0,"o":"m 646 221 l 646 515 l 63 515 l 63 444 l 574 444 l 574 221 z "},"µ":{"ha":800,"x_min":0,"x_max":0,"o":"m 97 208 b 81 -340 97 0 90 -139 l 97 -347 l 222 -278 b 188 56 208 -208 194 -69 b 347 -21 222 0 278 -21 b 576 139 472 -21 535 49 b 681 -21 583 7 625 -21 b 786 85 736 -21 775 21 l 765 94 b 718 49 754 67 740 49 b 674 126 692 49 674 71 l 674 625 l 569 625 l 569 278 b 389 69 569 104 472 69 b 201 313 271 69 201 139 l 201 625 l 97 625 z "},"μ":{"ha":800,"x_min":0,"x_max":0,"o":"m 97 208 b 81 -340 97 0 90 -139 l 97 -347 l 222 -278 b 188 56 208 -208 194 -69 b 347 -21 222 0 278 -21 b 576 139 472 -21 535 49 b 681 -21 583 7 625 -21 b 786 85 736 -21 775 21 l 765 94 b 718 49 754 67 740 49 b 674 126 692 49 674 71 l 674 625 l 569 625 l 569 278 b 389 69 569 104 472 69 b 201 313 271 69 201 139 l 201 625 l 97 625 z "},"™":{"ha":390,"x_min":0,"x_max":0,"o":"m 38 1050 b 18 1051 35 1050 25 1051 b 7 1054 11 1051 10 1054 b 6 1050 7 1054 6 1053 b 0 1021 6 1049 0 1028 b 3 1015 0 1017 1 1015 b 7 1021 6 1015 6 1015 b 32 1035 8 1029 15 1035 l 65 1035 l 65 940 b 64 893 65 915 64 901 b 51 878 64 888 63 879 l 44 878 b 39 875 40 878 39 876 b 44 872 39 874 39 872 b 78 874 56 872 75 874 b 110 872 81 874 100 872 b 117 875 115 872 117 874 b 110 878 117 876 115 878 l 103 879 b 92 893 96 881 92 883 l 92 940 l 92 1035 l 119 1035 b 144 1024 142 1035 143 1031 l 146 1018 b 149 1013 147 1014 147 1013 b 153 1019 150 1013 153 1015 b 153 1044 153 1024 153 1043 b 153 1053 153 1050 154 1053 b 144 1051 151 1053 149 1051 b 128 1050 140 1051 136 1050 z m 196 996 l 197 996 l 251 886 b 261 872 254 879 257 872 b 271 886 264 872 267 878 l 325 994 l 324 994 l 336 881 b 342 875 336 876 339 875 b 386 872 347 874 378 872 b 390 875 389 872 390 874 b 385 878 390 876 389 878 l 382 878 b 361 903 369 878 364 882 l 343 1046 b 339 1056 343 1050 342 1056 b 332 1050 336 1056 333 1054 l 267 913 l 201 1049 b 194 1056 200 1053 197 1056 b 188 1046 192 1056 188 1050 l 168 897 b 154 878 167 882 161 878 l 150 878 b 144 875 146 878 144 878 b 149 872 144 874 146 872 b 172 874 158 872 169 874 b 200 872 176 874 192 872 b 204 875 204 872 204 874 b 194 878 204 876 203 878 b 186 888 190 878 186 883 b 188 907 186 897 188 901 z "},"Ð":{"ha":1274,"x_min":0,"x_max":0,"o":"m 247 551 l 138 551 b 119 539 126 551 122 549 l 115 517 b 125 501 114 507 114 501 l 247 501 l 247 399 b 240 97 247 265 247 156 b 200 21 235 57 228 26 b 158 15 188 18 171 15 b 147 7 150 15 147 11 b 169 -4 147 -1 154 -4 b 250 -1 190 -4 222 -1 b 306 0 279 0 303 0 b 421 -8 313 0 360 -4 b 614 -17 481 -12 554 -17 b 1035 143 850 -17 975 81 b 1185 535 1113 225 1185 360 b 1050 888 1185 700 1119 815 b 493 1046 885 1058 631 1046 b 306 1042 410 1046 322 1042 b 149 1046 299 1042 211 1046 b 126 1035 133 1046 126 1043 b 138 1026 126 1029 132 1026 b 185 1022 150 1026 174 1025 b 244 943 231 1013 242 990 b 247 643 247 899 247 860 z m 364 500 l 635 500 b 653 511 643 500 651 501 l 658 538 b 649 553 660 547 658 553 l 364 553 l 365 961 b 382 989 365 976 369 983 b 471 999 393 994 439 999 b 926 842 639 999 796 979 b 1060 492 983 782 1060 668 b 949 160 1060 364 1021 231 b 618 31 867 78 747 31 b 382 86 454 31 400 60 b 367 192 371 101 368 157 b 364 426 365 214 364 308 z "},"½":{"ha":1182,"x_min":0,"x_max":0,"o":"m 264 785 b 268 994 264 914 268 988 b 260 1013 268 1004 267 1013 b 236 1000 253 1013 243 1006 b 43 881 228 993 49 886 b 39 871 40 878 39 875 b 47 863 39 867 43 863 b 60 867 51 863 57 865 b 169 907 81 876 154 907 b 185 885 183 907 183 897 b 186 785 186 872 186 826 l 186 640 b 182 467 186 569 186 501 b 143 425 179 444 175 432 b 67 418 125 421 78 418 b 57 408 60 418 57 414 b 72 400 57 401 61 400 b 224 403 138 400 218 403 b 363 400 229 403 292 400 b 379 410 375 400 379 403 b 367 418 379 415 374 418 b 306 425 357 418 321 421 b 268 467 275 432 271 444 b 264 640 264 501 264 569 z m 178 -19 b 196 -15 183 -24 190 -24 l 949 975 b 946 989 951 979 951 985 l 921 1008 b 903 1001 913 1015 908 1008 l 153 22 b 150 4 146 13 144 7 z m 1032 0 b 1081 22 1053 0 1071 6 b 1111 128 1094 49 1111 114 b 1104 140 1111 135 1110 140 b 1093 126 1099 140 1097 138 b 992 60 1081 85 1057 65 b 840 54 978 58 854 54 l 797 54 b 793 60 792 54 794 58 b 1086 453 922 161 1086 296 b 886 610 1086 533 1018 610 b 735 576 824 610 774 594 b 725 558 726 572 725 571 b 731 467 725 536 729 474 b 739 453 732 458 735 453 b 750 467 744 453 750 456 b 778 540 750 500 763 524 b 871 575 804 568 832 575 b 999 426 922 575 999 542 b 699 32 999 269 833 140 b 683 11 693 26 683 19 b 699 0 683 4 689 0 z "},"±":{"ha":708,"x_min":0,"x_max":0,"o":"m 319 728 l 319 468 l 58 468 l 58 397 l 319 397 l 319 135 l 392 135 l 392 397 l 650 397 l 650 468 l 390 468 l 390 728 z m 650 69 l 58 69 l 58 0 l 650 0 z "},"Þ":{"ha":899,"x_min":0,"x_max":0,"o":"m 247 399 b 240 97 247 265 247 156 b 200 21 235 57 228 26 b 158 15 188 18 171 15 b 147 7 150 15 147 11 b 169 -4 147 -1 154 -4 b 303 0 211 -4 299 0 b 474 -4 310 0 397 -4 b 496 7 489 -4 496 0 b 485 15 496 11 493 15 b 422 21 472 15 442 18 b 368 97 381 26 372 57 b 361 399 361 156 361 265 l 361 747 b 372 774 361 761 364 771 b 432 782 385 779 408 782 b 622 713 464 782 549 788 b 700 499 696 638 700 544 b 460 272 700 371 594 272 b 422 260 431 272 422 271 b 438 250 422 253 431 250 b 467 249 444 249 460 249 b 808 579 664 249 808 382 b 740 743 808 651 772 715 b 482 822 717 764 656 822 b 361 817 428 822 401 819 b 364 947 361 844 363 889 b 426 1021 365 988 382 1013 b 481 1026 446 1024 468 1026 b 492 1036 486 1026 492 1031 b 469 1046 492 1043 485 1046 b 306 1042 401 1046 314 1042 b 149 1046 294 1042 211 1046 b 126 1035 133 1046 126 1043 b 138 1026 126 1029 132 1026 b 185 1022 150 1026 174 1025 b 244 943 231 1013 242 990 b 247 643 247 899 247 860 z "},"¼":{"ha":1101,"x_min":0,"x_max":0,"o":"m 917 222 l 917 597 b 908 611 917 606 917 611 b 886 596 901 611 894 606 b 547 206 858 561 553 211 b 535 183 543 201 535 193 b 553 172 535 176 542 172 l 843 172 b 842 63 843 153 843 99 b 804 19 840 39 833 22 b 765 17 792 18 772 17 b 754 7 760 17 754 11 b 765 -1 754 3 756 -1 b 869 1 813 -1 864 1 b 989 -1 876 1 942 -1 b 1001 8 999 -1 1001 4 b 993 17 1001 13 997 17 b 956 19 983 17 968 18 b 918 63 928 22 921 39 b 917 172 915 99 917 153 l 1007 172 b 1024 183 1017 172 1021 175 b 1032 222 1028 197 1032 218 b 1024 231 1032 226 1028 231 b 985 222 1019 231 1008 222 z m 843 222 l 614 222 b 842 486 638 249 825 469 l 843 486 z m 264 785 b 268 994 264 914 268 988 b 260 1013 268 1004 267 1013 b 236 1000 253 1013 243 1006 b 43 881 228 993 49 886 b 39 871 40 878 39 875 b 47 863 39 867 43 863 b 60 867 51 863 57 865 b 169 907 81 876 154 907 b 185 885 183 907 183 897 b 186 785 186 872 186 826 l 186 640 b 182 467 186 569 186 501 b 143 425 179 444 175 432 b 67 418 125 421 78 418 b 57 408 60 418 57 414 b 72 400 57 401 61 400 b 224 403 138 400 218 403 b 363 400 229 403 292 400 b 379 410 375 400 379 403 b 367 418 379 415 374 418 b 306 425 357 418 321 421 b 268 467 275 432 271 444 b 264 640 264 501 264 569 z m 224 -19 b 240 -15 229 -24 235 -24 l 993 975 b 990 989 996 979 996 985 l 965 1008 b 947 1001 957 1015 953 1008 l 197 22 b 196 4 190 13 190 7 z "},"÷":{"ha":708,"x_min":0,"x_max":0,"o":"m 357 514 b 426 585 399 514 428 544 b 356 653 426 624 396 653 b 289 582 317 653 289 624 b 356 513 289 543 317 513 z m 650 408 l 58 408 l 58 338 l 650 338 z m 356 93 b 426 164 399 93 428 124 b 356 232 426 203 396 232 b 289 161 317 232 289 203 b 356 92 289 122 317 92 z "},"¦":{"ha":708,"x_min":0,"x_max":0,"o":"m 392 451 l 392 938 l 317 938 l 317 451 z m 392 -243 l 392 243 l 317 243 l 317 -243 z "},"°":{"ha":428,"x_min":0,"x_max":0,"o":"m 351 826 b 207 967 351 901 296 967 l 204 967 b 58 821 122 967 58 903 b 203 681 58 746 117 681 b 350 828 279 681 350 740 z m 286 826 b 203 738 286 776 250 738 b 119 824 156 738 119 776 b 201 914 119 867 149 914 b 286 826 261 914 286 867 z "},"þ":{"ha":814,"x_min":0,"x_max":0,"o":"m 215 339 b 208 83 215 225 215 132 b 175 21 203 49 199 26 b 139 15 164 18 150 15 b 129 6 132 15 129 10 b 149 -4 129 -1 136 -4 b 267 0 186 -4 263 0 b 419 -4 272 0 353 -4 b 439 6 433 -4 439 0 b 429 15 439 10 436 15 b 376 21 418 15 393 18 b 329 83 339 26 333 49 b 324 339 324 132 324 225 l 324 631 b 333 653 324 643 326 650 b 383 661 346 657 363 661 b 560 606 411 661 499 667 b 628 438 621 546 628 468 b 407 235 628 321 526 235 b 375 221 382 235 375 231 b 388 213 375 215 382 213 b 417 211 394 211 410 211 b 736 486 590 211 736 319 b 672 631 736 549 700 607 b 429 699 643 656 582 699 b 324 694 382 699 356 697 b 326 806 324 718 325 756 b 378 865 326 839 342 860 b 425 869 394 868 415 869 b 436 881 431 869 436 876 b 415 889 436 886 429 889 b 269 886 356 889 276 886 b 131 889 260 886 186 889 b 111 879 117 889 111 886 b 121 869 111 875 117 869 b 163 867 132 869 153 868 b 213 801 200 861 210 842 b 215 547 215 764 215 731 z "},"¾":{"ha":1121,"x_min":0,"x_max":0,"o":"m 936 222 l 936 597 b 926 611 936 606 935 611 b 906 596 919 611 914 606 b 567 206 878 561 572 211 b 553 183 563 201 553 193 b 571 172 553 176 560 172 l 861 172 b 860 63 861 153 861 99 b 822 19 858 39 851 22 b 783 17 810 18 790 17 b 774 7 778 17 774 11 b 783 -1 774 3 774 -1 b 888 1 831 -1 882 1 b 1007 -1 894 1 960 -1 b 1019 8 1017 -1 1019 4 b 1013 17 1019 13 1017 17 b 974 19 1003 17 986 18 b 936 63 946 22 939 39 b 936 172 933 99 936 153 l 1025 172 b 1042 183 1035 172 1039 175 b 1050 222 1046 197 1050 218 b 1042 231 1050 226 1046 231 b 1003 222 1038 231 1026 222 z m 861 222 l 632 222 b 860 486 656 249 843 469 l 861 486 z m 307 756 b 431 900 343 769 431 822 b 257 1013 431 939 399 1013 b 108 988 182 1013 136 1000 b 96 967 96 982 96 974 b 104 889 96 949 100 913 b 114 875 106 878 108 875 b 119 892 119 875 119 879 b 235 978 119 940 174 978 b 350 881 326 978 350 908 b 218 746 350 796 256 751 b 194 731 201 743 194 739 b 221 719 194 725 200 722 b 376 581 288 711 376 671 b 233 436 376 488 313 436 b 97 536 132 436 103 483 b 90 546 96 544 94 546 b 82 535 86 546 83 544 b 78 450 79 518 78 472 b 92 414 78 426 78 422 b 208 397 110 403 163 397 b 464 601 353 397 464 492 b 307 753 464 699 356 744 z m 221 -19 b 238 -15 226 -24 232 -24 l 990 975 b 989 989 993 979 994 985 l 963 1008 b 944 1001 954 1015 950 1008 l 196 22 b 193 4 189 13 188 7 z "},"²":{"ha":617,"x_min":0,"x_max":0,"o":"m 439 424 b 490 447 461 424 481 429 b 522 558 506 475 522 543 b 515 571 522 565 521 571 b 503 557 510 571 507 568 b 397 486 489 513 465 492 b 238 481 382 485 253 481 l 192 481 b 188 486 186 481 189 485 b 496 900 324 593 496 735 b 286 1065 496 985 425 1065 b 126 1031 221 1065 167 1050 b 117 1011 118 1026 117 1024 b 122 915 117 988 121 922 b 131 900 124 907 126 900 b 142 915 136 900 142 904 b 172 992 142 950 156 974 b 269 1029 200 1021 229 1029 b 404 872 324 1029 404 993 b 89 457 404 707 231 571 b 72 435 83 451 72 443 b 88 424 72 428 78 424 z "},"®":{"ha":286,"x_min":0,"x_max":0,"o":"m 143 822 b 271 943 217 822 271 875 b 143 1065 271 1014 217 1065 b 15 943 69 1065 15 1014 b 143 822 15 875 69 822 z m 144 843 b 39 944 83 843 39 886 b 143 1044 39 1004 83 1044 b 247 944 203 1044 247 1004 b 144 843 247 886 203 843 z m 96 933 b 94 894 96 911 94 901 b 81 886 93 886 93 886 b 75 882 78 886 75 885 b 81 879 75 879 78 879 l 88 879 b 108 881 90 879 104 881 b 131 879 115 881 128 879 l 136 879 b 142 883 139 879 142 881 b 138 886 142 886 140 886 b 124 889 133 886 126 888 b 121 919 122 890 121 892 l 121 932 l 146 932 l 165 906 b 214 879 186 878 196 879 b 224 883 222 879 224 881 b 219 886 224 885 222 886 b 193 910 217 886 211 888 l 169 939 b 194 981 190 956 194 967 b 136 1018 194 1014 160 1018 b 107 1017 125 1018 119 1017 b 89 1018 103 1017 92 1018 l 82 1018 b 75 1014 78 1018 75 1017 b 79 1011 75 1013 78 1011 b 94 1001 90 1011 94 1010 b 96 964 94 994 96 985 z m 121 1003 b 133 1006 124 1006 132 1006 b 168 972 156 1006 168 992 b 156 947 168 958 163 951 b 142 943 151 944 146 943 b 121 947 133 943 125 944 z "},"−":{"ha":708,"x_min":0,"x_max":0,"o":"m 650 408 l 58 408 l 58 338 l 650 338 z "},"ð":{"ha":1124,"x_min":0,"x_max":0,"o":"m 215 469 l 121 469 b 106 460 111 469 107 468 l 101 436 b 110 424 100 428 100 424 l 215 424 l 215 339 b 208 83 215 225 215 132 b 176 21 203 49 200 26 b 139 15 165 18 150 15 b 129 6 132 15 129 10 b 149 -4 129 -1 136 -4 b 221 -1 168 -4 196 -3 b 269 0 246 -1 267 0 b 371 -7 275 0 317 -3 b 543 -14 425 -10 490 -14 b 914 122 751 -14 861 68 b 1046 454 982 192 1046 306 b 926 754 1046 594 988 693 b 436 889 782 900 558 889 b 269 886 364 889 283 886 b 131 889 263 886 186 889 b 111 879 117 889 111 886 b 121 869 111 875 117 869 b 163 867 132 869 153 868 b 213 801 203 861 210 842 b 215 547 215 764 215 731 z m 326 422 l 561 422 b 578 432 568 422 576 424 l 582 458 b 574 471 585 467 582 471 l 326 471 l 326 813 b 342 836 326 826 331 832 b 414 844 349 842 386 844 b 813 713 561 844 697 829 b 926 418 863 663 926 568 b 832 139 926 310 896 199 b 544 31 760 69 657 31 b 342 78 400 31 357 56 b 328 163 332 90 329 133 b 326 360 326 182 326 260 z "},"×":{"ha":708,"x_min":0,"x_max":0,"o":"m 78 597 l 303 365 l 76 135 l 129 83 l 354 314 l 581 83 l 632 135 l 406 365 l 632 597 l 579 649 l 353 417 l 128 649 z "},"³":{"ha":574,"x_min":0,"x_max":0,"o":"m 219 418 b 489 633 372 418 489 518 b 324 793 489 736 375 785 l 324 796 b 453 947 361 811 453 865 b 271 1065 453 988 419 1065 b 114 1039 192 1065 143 1051 b 101 1018 101 1033 101 1025 b 110 936 101 999 106 961 b 119 921 111 925 114 921 b 126 939 125 921 126 926 b 247 1029 126 990 183 1029 b 368 926 344 1029 368 956 b 229 785 368 838 268 790 b 204 769 211 782 204 778 b 232 757 204 764 210 760 b 396 611 303 749 396 706 b 246 460 396 513 329 460 b 103 564 139 460 108 508 b 94 575 101 572 99 575 b 86 563 90 575 88 572 b 82 474 83 544 82 497 b 97 436 82 449 82 444 b 219 418 117 425 171 418 z "},"©":{"ha":1258,"x_min":0,"x_max":0,"o":"m 631 -24 b 1172 519 929 -24 1172 218 b 631 1065 1172 822 929 1065 b 86 519 329 1065 86 822 b 631 -24 86 218 329 -24 z m 631 38 b 165 521 364 36 165 257 b 631 1004 165 786 364 1004 b 1093 521 896 1004 1093 786 b 631 38 1093 257 896 38 z m 663 208 b 811 225 685 208 750 208 b 842 268 833 231 835 238 b 856 367 851 311 856 356 b 843 379 856 374 854 379 b 828 365 836 379 831 374 b 796 300 822 343 815 318 b 672 265 779 283 750 265 b 417 565 542 265 417 368 b 632 792 417 711 493 792 b 803 743 746 792 793 754 b 825 678 824 721 824 699 b 838 663 825 669 831 663 b 851 674 847 663 850 665 b 860 808 856 699 860 803 b 857 815 860 813 860 815 b 842 814 853 815 847 814 b 758 831 839 814 779 828 b 644 842 710 839 664 842 b 407 758 540 842 463 813 b 313 533 372 725 313 650 b 663 208 313 336 457 208 z "},"Á":{"ha":972,"x_min":0,"x_max":0,"o":"m 132 149 b 15 18 107 79 79 26 b -25 15 4 17 -15 15 b -37 7 -32 15 -37 13 b -11 -4 -37 -1 -29 -4 b 146 0 54 -4 131 0 b 254 -4 161 0 221 -4 b 275 7 267 -4 275 -1 b 261 15 275 13 271 15 l 247 15 b 194 56 224 15 194 28 b 214 149 194 81 201 114 l 297 394 b 311 406 300 401 304 406 l 610 406 b 622 397 617 406 619 403 l 751 56 b 743 18 760 33 751 21 b 733 8 738 17 733 14 b 775 -1 733 0 749 0 b 993 -4 871 -4 972 -4 b 1021 7 1008 -4 1021 -1 b 1007 15 1021 14 1015 15 b 951 24 993 15 972 17 b 832 178 922 32 882 54 b 508 1015 747 389 529 963 b 478 1065 492 1058 486 1065 b 447 1011 469 1065 464 1057 z m 326 456 b 322 465 322 456 319 458 l 444 840 b 465 840 451 861 458 861 l 597 465 b 592 456 599 460 599 456 z m 664 1296 b 650 1308 657 1306 654 1308 b 611 1290 643 1308 635 1304 b 422 1172 601 1285 472 1207 b 413 1161 415 1168 413 1165 b 419 1153 413 1156 417 1153 b 440 1160 422 1153 431 1156 b 651 1218 486 1179 583 1211 b 693 1218 675 1221 689 1218 b 699 1235 699 1218 706 1222 b 664 1296 683 1263 674 1282 z "},"Â":{"ha":972,"x_min":0,"x_max":0,"o":"m 132 149 b 15 18 107 79 79 26 b -25 15 4 17 -15 15 b -37 7 -32 15 -37 13 b -11 -4 -37 -1 -29 -4 b 146 0 54 -4 131 0 b 254 -4 161 0 221 -4 b 275 7 267 -4 275 -1 b 261 15 275 13 271 15 l 247 15 b 194 56 224 15 194 28 b 214 149 194 81 201 114 l 297 394 b 311 406 300 401 304 406 l 610 406 b 622 397 617 406 619 403 l 751 56 b 743 18 760 33 751 21 b 733 8 738 17 733 14 b 775 -1 733 0 749 0 b 993 -4 871 -4 972 -4 b 1021 7 1008 -4 1021 -1 b 1007 15 1021 14 1015 15 b 951 24 993 15 972 17 b 832 178 922 32 882 54 b 508 1015 747 389 529 963 b 478 1065 492 1058 486 1065 b 447 1011 469 1065 464 1057 z m 326 456 b 322 465 322 456 319 458 l 444 840 b 465 840 451 861 458 861 l 597 465 b 592 456 599 460 599 456 z m 663 1174 b 669 1186 665 1178 669 1182 b 653 1200 669 1189 665 1192 b 513 1306 635 1214 524 1297 b 490 1319 501 1314 496 1319 b 468 1306 486 1319 479 1315 b 313 1161 453 1292 326 1175 b 304 1146 308 1156 304 1151 b 314 1135 304 1140 308 1135 b 339 1149 318 1135 328 1139 b 457 1236 372 1176 425 1219 b 479 1243 468 1242 474 1243 b 493 1238 483 1243 488 1240 b 610 1142 510 1228 582 1172 b 621 1135 614 1136 617 1135 b 633 1143 625 1135 628 1138 z "},"Ä":{"ha":972,"x_min":0,"x_max":0,"o":"m 132 149 b 15 18 107 79 79 26 b -25 15 4 17 -15 15 b -37 7 -32 15 -37 13 b -11 -4 -37 -1 -29 -4 b 146 0 54 -4 131 0 b 254 -4 161 0 221 -4 b 275 7 267 -4 275 -1 b 261 15 275 13 271 15 l 247 15 b 194 56 224 15 194 28 b 214 149 194 81 201 114 l 297 394 b 311 406 300 401 304 406 l 610 406 b 622 397 617 406 619 403 l 751 56 b 743 18 760 33 751 21 b 733 8 738 17 733 14 b 775 -1 733 0 749 0 b 993 -4 871 -4 972 -4 b 1021 7 1008 -4 1021 -1 b 1007 15 1021 14 1015 15 b 951 24 993 15 972 17 b 832 178 922 32 882 54 b 508 1015 747 389 529 963 b 478 1065 492 1058 486 1065 b 447 1011 469 1065 464 1057 z m 326 456 b 322 465 322 456 319 458 l 444 840 b 465 840 451 861 458 861 l 597 465 b 592 456 599 460 599 456 z m 625 1153 b 686 1217 663 1153 686 1181 b 626 1272 686 1251 660 1272 b 567 1213 583 1272 567 1238 b 625 1153 567 1186 583 1153 z m 346 1153 b 407 1217 383 1153 407 1181 b 347 1272 407 1251 381 1272 b 288 1213 304 1272 288 1238 b 346 1153 288 1186 304 1153 z "},"À":{"ha":972,"x_min":0,"x_max":0,"o":"m 132 149 b 15 18 107 79 79 26 b -25 15 4 17 -15 15 b -37 7 -32 15 -37 13 b -11 -4 -37 -1 -29 -4 b 146 0 54 -4 131 0 b 254 -4 161 0 221 -4 b 275 7 267 -4 275 -1 b 261 15 275 13 271 15 l 247 15 b 194 56 224 15 194 28 b 214 149 194 81 201 114 l 297 394 b 311 406 300 401 304 406 l 610 406 b 622 397 617 406 619 403 l 751 56 b 743 18 760 33 751 21 b 733 8 738 17 733 14 b 775 -1 733 0 749 0 b 993 -4 871 -4 972 -4 b 1021 7 1008 -4 1021 -1 b 1007 15 1021 14 1015 15 b 951 24 993 15 972 17 b 832 178 922 32 882 54 b 508 1015 747 389 529 963 b 478 1065 492 1058 486 1065 b 447 1011 469 1065 464 1057 z m 326 456 b 322 465 322 456 319 458 l 444 840 b 465 840 451 861 458 861 l 597 465 b 592 456 599 460 599 456 z m 557 1153 b 569 1160 564 1153 569 1156 b 543 1179 569 1165 557 1169 b 407 1281 486 1215 418 1269 b 386 1303 394 1293 393 1303 b 364 1296 381 1303 375 1300 b 281 1269 347 1289 310 1278 b 265 1258 271 1267 265 1265 b 306 1235 265 1251 276 1246 b 557 1153 328 1226 532 1153 z "},"Å":{"ha":972,"x_min":0,"x_max":0,"o":"m 132 149 b 15 18 107 79 79 26 b -25 15 4 17 -15 15 b -37 7 -32 15 -37 13 b -11 -4 -37 -1 -29 -4 b 146 0 54 -4 131 0 b 254 -4 161 0 221 -4 b 275 7 267 -4 275 -1 b 261 15 275 13 271 15 l 247 15 b 194 56 224 15 194 28 b 214 149 194 81 201 114 l 297 394 b 311 406 300 401 304 406 l 610 406 b 622 397 617 406 619 403 l 751 56 b 743 18 760 33 751 21 b 733 8 738 17 733 14 b 775 -1 733 0 749 0 b 993 -4 871 -4 972 -4 b 1021 7 1008 -4 1021 -1 b 1007 15 1021 14 1015 15 b 951 24 993 15 972 17 b 832 178 922 32 882 54 b 508 1015 747 389 529 963 b 478 1065 492 1058 486 1065 b 447 1011 469 1065 464 1057 z m 326 456 b 322 465 322 456 319 458 l 444 840 b 465 840 451 861 458 861 l 597 465 b 592 456 599 460 599 456 z m 457 1139 b 626 1261 538 1139 628 1185 b 513 1340 626 1308 583 1340 b 349 1221 417 1340 349 1283 b 457 1139 349 1174 388 1139 z m 479 1172 b 410 1239 446 1172 410 1197 b 489 1307 410 1286 457 1307 b 561 1243 539 1307 561 1276 b 479 1172 561 1204 525 1172 z "},"Ã":{"ha":972,"x_min":0,"x_max":0,"o":"m 132 149 b 15 18 107 79 79 26 b -25 15 4 17 -15 15 b -37 7 -32 15 -37 13 b -11 -4 -37 -1 -29 -4 b 146 0 54 -4 131 0 b 254 -4 161 0 221 -4 b 275 7 267 -4 275 -1 b 261 15 275 13 271 15 l 247 15 b 194 56 224 15 194 28 b 214 149 194 81 201 114 l 297 394 b 311 406 300 401 304 406 l 610 406 b 622 397 617 406 619 403 l 751 56 b 743 18 760 33 751 21 b 733 8 738 17 733 14 b 775 -1 733 0 749 0 b 993 -4 871 -4 972 -4 b 1021 7 1008 -4 1021 -1 b 1007 15 1021 14 1015 15 b 951 24 993 15 972 17 b 832 178 922 32 882 54 b 508 1015 747 389 529 963 b 478 1065 492 1058 486 1065 b 447 1011 469 1065 464 1057 z m 326 456 b 322 465 322 456 319 458 l 444 840 b 465 840 451 861 458 861 l 597 465 b 592 456 599 460 599 456 z m 585 1153 b 700 1249 628 1153 689 1226 b 706 1267 704 1257 706 1261 b 696 1275 706 1271 701 1275 b 679 1260 692 1275 685 1268 b 594 1219 675 1254 646 1219 b 514 1243 572 1219 533 1233 b 397 1286 471 1264 431 1286 b 278 1188 353 1286 297 1218 b 268 1167 272 1179 268 1174 b 276 1158 268 1163 271 1158 b 296 1171 282 1158 289 1163 b 381 1221 306 1182 332 1221 b 475 1189 424 1221 450 1200 b 585 1153 494 1179 539 1153 z "},"Ç":{"ha":1118,"x_min":0,"x_max":0,"o":"m 214 549 b 339 911 214 690 238 814 b 658 1013 388 958 474 1013 b 936 933 781 1013 888 975 b 994 792 972 903 994 846 b 1006 763 994 772 996 763 b 1018 792 1014 763 1017 771 b 1022 935 1019 813 1019 889 b 1029 1013 1025 985 1029 1001 b 1011 1028 1029 1021 1026 1026 b 869 1049 967 1031 922 1039 b 668 1065 801 1061 724 1065 b 244 917 454 1065 328 1000 b 89 538 121 793 89 631 b 257 126 89 406 122 247 b 631 -19 351 42 468 -8 l 549 -87 b 531 -107 536 -97 531 -103 b 551 -119 531 -112 536 -115 b 651 -221 633 -143 651 -181 b 549 -306 651 -271 597 -300 b 521 -321 533 -307 521 -308 b 539 -332 521 -328 529 -332 b 647 -307 565 -332 610 -324 b 746 -193 694 -287 746 -247 b 607 -94 746 -136 693 -103 b 685 -22 617 -85 661 -42 b 715 -24 694 -24 704 -24 b 965 8 804 -24 910 -14 b 1001 49 990 19 993 22 b 1032 226 1015 96 1032 217 b 1022 247 1032 238 1029 247 b 1008 226 1014 247 1011 242 b 957 110 1004 201 986 140 b 715 40 901 53 819 40 b 214 549 418 40 214 283 z "},"É":{"ha":847,"x_min":0,"x_max":0,"o":"m 247 399 b 240 97 247 265 247 156 b 200 21 235 57 228 26 b 158 15 188 18 171 15 b 147 7 150 15 147 11 b 169 -4 147 -1 154 -4 b 250 -1 190 -4 222 -1 b 306 0 279 0 303 0 b 414 -4 326 0 360 -1 b 649 -8 468 -6 544 -8 b 724 28 703 -8 714 -8 b 742 163 731 57 742 151 b 733 183 742 172 742 183 b 721 163 726 183 724 178 b 658 63 711 106 694 78 b 525 47 622 47 561 47 b 364 161 389 47 368 65 b 364 399 363 190 364 351 l 364 521 b 374 531 364 526 367 531 b 572 524 397 531 535 528 b 644 475 626 518 639 494 b 650 429 650 457 650 443 b 660 417 650 422 653 417 b 669 443 669 417 669 432 b 675 532 669 453 672 504 b 686 610 679 578 686 601 b 679 621 686 618 683 621 b 658 603 674 621 668 614 b 593 583 646 589 626 586 b 372 581 561 581 390 581 b 364 594 365 581 364 585 l 364 978 b 372 992 364 988 367 992 b 563 988 388 992 539 990 b 661 940 638 979 651 963 b 669 890 668 924 669 900 b 681 872 669 879 672 872 b 690 888 686 872 689 881 b 697 979 693 904 696 965 b 708 1044 701 1018 708 1035 b 703 1057 708 1051 707 1057 b 683 1050 696 1057 690 1051 b 624 1043 672 1047 650 1044 b 306 1042 592 1042 315 1042 l 249 1044 b 149 1046 218 1046 181 1046 b 126 1035 133 1046 126 1043 b 138 1026 126 1029 132 1026 b 185 1022 150 1026 174 1025 b 244 943 231 1013 242 990 b 247 643 247 899 247 860 z m 614 1296 b 600 1308 607 1306 604 1308 b 561 1290 593 1308 585 1304 b 372 1172 551 1285 422 1207 b 363 1161 365 1168 363 1165 b 369 1153 363 1156 367 1153 b 390 1160 372 1153 381 1156 b 601 1218 436 1179 533 1211 b 643 1218 625 1221 639 1218 b 649 1235 649 1218 656 1222 b 614 1296 633 1263 624 1282 z "},"Ê":{"ha":847,"x_min":0,"x_max":0,"o":"m 247 399 b 240 97 247 265 247 156 b 200 21 235 57 228 26 b 158 15 188 18 171 15 b 147 7 150 15 147 11 b 169 -4 147 -1 154 -4 b 250 -1 190 -4 222 -1 b 306 0 279 0 303 0 b 414 -4 326 0 360 -1 b 649 -8 468 -6 544 -8 b 724 28 703 -8 714 -8 b 742 163 731 57 742 151 b 733 183 742 172 742 183 b 721 163 726 183 724 178 b 658 63 711 106 694 78 b 525 47 622 47 561 47 b 364 161 389 47 368 65 b 364 399 363 190 364 351 l 364 521 b 374 531 364 526 367 531 b 572 524 397 531 535 528 b 644 475 626 518 639 494 b 650 429 650 457 650 443 b 660 417 650 422 653 417 b 669 443 669 417 669 432 b 675 532 669 453 672 504 b 686 610 679 578 686 601 b 679 621 686 618 683 621 b 658 603 674 621 668 614 b 593 583 646 589 626 586 b 372 581 561 581 390 581 b 364 594 365 581 364 585 l 364 978 b 372 992 364 988 367 992 b 563 988 388 992 539 990 b 661 940 638 979 651 963 b 669 890 668 924 669 900 b 681 872 669 879 672 872 b 690 888 686 872 689 881 b 697 979 693 904 696 965 b 708 1044 701 1018 708 1035 b 703 1057 708 1051 707 1057 b 683 1050 696 1057 690 1051 b 624 1043 672 1047 650 1044 b 306 1042 592 1042 315 1042 l 249 1044 b 149 1046 218 1046 181 1046 b 126 1035 133 1046 126 1043 b 138 1026 126 1029 132 1026 b 185 1022 150 1026 174 1025 b 244 943 231 1013 242 990 b 247 643 247 899 247 860 z m 626 1174 b 633 1186 629 1178 633 1182 b 617 1200 633 1189 629 1192 b 476 1306 599 1214 488 1297 b 454 1319 465 1314 460 1319 b 432 1306 450 1319 443 1315 b 276 1161 417 1292 290 1175 b 268 1146 272 1156 268 1151 b 278 1135 268 1140 272 1135 b 303 1149 282 1135 292 1139 b 421 1236 336 1176 389 1219 b 443 1243 432 1242 438 1243 b 457 1238 447 1243 451 1240 b 574 1142 474 1228 546 1172 b 585 1135 578 1136 581 1135 b 597 1143 589 1135 592 1138 z "},"Ë":{"ha":847,"x_min":0,"x_max":0,"o":"m 247 399 b 240 97 247 265 247 156 b 200 21 235 57 228 26 b 158 15 188 18 171 15 b 147 7 150 15 147 11 b 169 -4 147 -1 154 -4 b 250 -1 190 -4 222 -1 b 306 0 279 0 303 0 b 414 -4 326 0 360 -1 b 649 -8 468 -6 544 -8 b 724 28 703 -8 714 -8 b 742 163 731 57 742 151 b 733 183 742 172 742 183 b 721 163 726 183 724 178 b 658 63 711 106 694 78 b 525 47 622 47 561 47 b 364 161 389 47 368 65 b 364 399 363 190 364 351 l 364 521 b 374 531 364 526 367 531 b 572 524 397 531 535 528 b 644 475 626 518 639 494 b 650 429 650 457 650 443 b 660 417 650 422 653 417 b 669 443 669 417 669 432 b 675 532 669 453 672 504 b 686 610 679 578 686 601 b 679 621 686 618 683 621 b 658 603 674 621 668 614 b 593 583 646 589 626 586 b 372 581 561 581 390 581 b 364 594 365 581 364 585 l 364 978 b 372 992 364 988 367 992 b 563 988 388 992 539 990 b 661 940 638 979 651 963 b 669 890 668 924 669 900 b 681 872 669 879 672 872 b 690 888 686 872 689 881 b 697 979 693 904 696 965 b 708 1044 701 1018 708 1035 b 703 1057 708 1051 707 1057 b 683 1050 696 1057 690 1051 b 624 1043 672 1047 650 1044 b 306 1042 592 1042 315 1042 l 249 1044 b 149 1046 218 1046 181 1046 b 126 1035 133 1046 126 1043 b 138 1026 126 1029 132 1026 b 185 1022 150 1026 174 1025 b 244 943 231 1013 242 990 b 247 643 247 899 247 860 z m 589 1153 b 650 1217 626 1153 650 1181 b 590 1272 650 1251 624 1272 b 531 1213 547 1272 531 1238 b 589 1153 531 1186 547 1153 z m 310 1153 b 371 1217 347 1153 371 1181 b 311 1272 371 1251 344 1272 b 251 1213 268 1272 251 1238 b 310 1153 251 1186 268 1153 z "},"È":{"ha":847,"x_min":0,"x_max":0,"o":"m 247 399 b 240 97 247 265 247 156 b 200 21 235 57 228 26 b 158 15 188 18 171 15 b 147 7 150 15 147 11 b 169 -4 147 -1 154 -4 b 250 -1 190 -4 222 -1 b 306 0 279 0 303 0 b 414 -4 326 0 360 -1 b 649 -8 468 -6 544 -8 b 724 28 703 -8 714 -8 b 742 163 731 57 742 151 b 733 183 742 172 742 183 b 721 163 726 183 724 178 b 658 63 711 106 694 78 b 525 47 622 47 561 47 b 364 161 389 47 368 65 b 364 399 363 190 364 351 l 364 521 b 374 531 364 526 367 531 b 572 524 397 531 535 528 b 644 475 626 518 639 494 b 650 429 650 457 650 443 b 660 417 650 422 653 417 b 669 443 669 417 669 432 b 675 532 669 453 672 504 b 686 610 679 578 686 601 b 679 621 686 618 683 621 b 658 603 674 621 668 614 b 593 583 646 589 626 586 b 372 581 561 581 390 581 b 364 594 365 581 364 585 l 364 978 b 372 992 364 988 367 992 b 563 988 388 992 539 990 b 661 940 638 979 651 963 b 669 890 668 924 669 900 b 681 872 669 879 672 872 b 690 888 686 872 689 881 b 697 979 693 904 696 965 b 708 1044 701 1018 708 1035 b 703 1057 708 1051 707 1057 b 683 1050 696 1057 690 1051 b 624 1043 672 1047 650 1044 b 306 1042 592 1042 315 1042 l 249 1044 b 149 1046 218 1046 181 1046 b 126 1035 133 1046 126 1043 b 138 1026 126 1029 132 1026 b 185 1022 150 1026 174 1025 b 244 943 231 1013 242 990 b 247 643 247 899 247 860 z m 521 1153 b 533 1160 528 1153 533 1156 b 507 1179 533 1165 521 1169 b 371 1281 450 1215 382 1269 b 350 1303 358 1293 357 1303 b 328 1296 344 1303 339 1300 b 244 1269 311 1289 274 1278 b 229 1258 235 1267 229 1265 b 269 1235 229 1251 240 1246 b 521 1153 292 1226 496 1153 z "},"Í":{"ha":611,"x_min":0,"x_max":0,"o":"m 364 643 b 367 943 364 860 364 899 b 418 1022 369 992 381 1015 b 453 1026 435 1025 443 1026 b 464 1035 458 1026 464 1029 b 442 1046 464 1043 457 1046 b 306 1042 400 1046 313 1042 b 165 1046 299 1042 211 1046 b 143 1035 150 1046 143 1043 b 154 1026 143 1029 149 1026 b 197 1021 164 1026 182 1025 b 244 943 228 1014 242 990 b 247 643 247 899 247 860 l 247 399 b 240 97 247 265 247 156 b 200 21 235 57 228 26 b 158 15 188 18 171 15 b 147 7 150 15 147 11 b 169 -4 147 -1 154 -4 b 306 0 211 -4 299 0 b 476 -4 313 0 400 -4 b 499 7 492 -4 499 0 b 488 15 499 11 496 15 b 425 21 475 15 444 18 b 371 97 383 26 375 57 b 364 399 364 156 364 265 z m 483 1296 b 469 1308 476 1306 474 1308 b 431 1290 463 1308 454 1304 b 242 1172 421 1285 292 1207 b 232 1161 235 1168 232 1165 b 239 1153 232 1156 236 1153 b 260 1160 242 1153 250 1156 b 471 1218 306 1179 403 1211 b 513 1218 494 1221 508 1218 b 518 1235 518 1218 525 1222 b 483 1296 503 1263 493 1282 z "},"Î":{"ha":611,"x_min":0,"x_max":0,"o":"m 364 643 b 367 943 364 860 364 899 b 418 1022 369 992 381 1015 b 453 1026 435 1025 443 1026 b 464 1035 458 1026 464 1029 b 442 1046 464 1043 457 1046 b 306 1042 400 1046 313 1042 b 165 1046 299 1042 211 1046 b 143 1035 150 1046 143 1043 b 154 1026 143 1029 149 1026 b 197 1021 164 1026 182 1025 b 244 943 228 1014 242 990 b 247 643 247 899 247 860 l 247 399 b 240 97 247 265 247 156 b 200 21 235 57 228 26 b 158 15 188 18 171 15 b 147 7 150 15 147 11 b 169 -4 147 -1 154 -4 b 306 0 211 -4 299 0 b 476 -4 313 0 400 -4 b 499 7 492 -4 499 0 b 488 15 499 11 496 15 b 425 21 475 15 444 18 b 371 97 383 26 375 57 b 364 399 364 156 364 265 z m 482 1174 b 489 1186 485 1178 489 1182 b 472 1200 489 1189 485 1192 b 332 1306 454 1214 343 1297 b 310 1319 321 1314 315 1319 b 288 1306 306 1319 299 1315 b 132 1161 272 1292 146 1175 b 124 1146 128 1156 124 1151 b 133 1135 124 1140 128 1135 b 158 1149 138 1135 147 1139 b 276 1236 192 1176 244 1219 b 299 1243 288 1242 293 1243 b 313 1238 303 1243 307 1240 b 429 1142 329 1228 401 1172 b 440 1135 433 1136 436 1135 b 453 1143 444 1135 447 1138 z "},"Ï":{"ha":611,"x_min":0,"x_max":0,"o":"m 364 643 b 367 943 364 860 364 899 b 418 1022 369 992 381 1015 b 453 1026 435 1025 443 1026 b 464 1035 458 1026 464 1029 b 442 1046 464 1043 457 1046 b 306 1042 400 1046 313 1042 b 165 1046 299 1042 211 1046 b 143 1035 150 1046 143 1043 b 154 1026 143 1029 149 1026 b 197 1021 164 1026 182 1025 b 244 943 228 1014 242 990 b 247 643 247 899 247 860 l 247 399 b 240 97 247 265 247 156 b 200 21 235 57 228 26 b 158 15 188 18 171 15 b 147 7 150 15 147 11 b 169 -4 147 -1 154 -4 b 306 0 211 -4 299 0 b 476 -4 313 0 400 -4 b 499 7 492 -4 499 0 b 488 15 499 11 496 15 b 425 21 475 15 444 18 b 371 97 383 26 375 57 b 364 399 364 156 364 265 z m 444 1153 b 506 1217 482 1153 506 1181 b 446 1272 506 1251 479 1272 b 386 1213 403 1272 386 1238 b 444 1153 386 1186 403 1153 z m 165 1153 b 226 1217 203 1153 226 1181 b 167 1272 226 1251 200 1272 b 107 1213 124 1272 107 1238 b 165 1153 107 1186 124 1153 z "},"Ì":{"ha":611,"x_min":0,"x_max":0,"o":"m 364 643 b 367 943 364 860 364 899 b 418 1022 369 992 381 1015 b 453 1026 435 1025 443 1026 b 464 1035 458 1026 464 1029 b 442 1046 464 1043 457 1046 b 306 1042 400 1046 313 1042 b 165 1046 299 1042 211 1046 b 143 1035 150 1046 143 1043 b 154 1026 143 1029 149 1026 b 197 1021 164 1026 182 1025 b 244 943 228 1014 242 990 b 247 643 247 899 247 860 l 247 399 b 240 97 247 265 247 156 b 200 21 235 57 228 26 b 158 15 188 18 171 15 b 147 7 150 15 147 11 b 169 -4 147 -1 154 -4 b 306 0 211 -4 299 0 b 476 -4 313 0 400 -4 b 499 7 492 -4 499 0 b 488 15 499 11 496 15 b 425 21 475 15 444 18 b 371 97 383 26 375 57 b 364 399 364 156 364 265 z m 376 1153 b 389 1160 383 1153 389 1156 b 363 1179 389 1165 376 1169 b 226 1281 306 1215 238 1269 b 206 1303 214 1293 213 1303 b 183 1296 200 1303 194 1300 b 100 1269 167 1289 129 1278 b 85 1258 90 1267 85 1265 b 125 1235 85 1251 96 1246 b 376 1153 147 1226 351 1153 z "},"Ñ":{"ha":1315,"x_min":0,"x_max":0,"o":"m 267 850 b 629 451 311 800 468 625 b 992 75 776 293 976 89 b 1093 -14 1065 1 1082 -14 b 1106 85 1103 -14 1106 -7 l 1108 899 b 1160 1022 1108 982 1114 1013 b 1193 1026 1176 1026 1186 1026 b 1208 1036 1203 1026 1208 1031 b 1183 1046 1208 1044 1199 1046 b 1065 1042 1126 1046 1081 1042 b 921 1046 1050 1042 983 1046 b 893 1036 904 1046 893 1044 b 904 1026 893 1031 894 1026 b 972 1019 915 1026 947 1025 b 1026 888 1015 1008 1025 978 l 1042 182 b 708 544 997 228 846 397 b 267 1021 494 774 288 997 b 218 1065 253 1035 229 1065 b 203 996 207 1065 203 1050 l 201 200 b 160 24 201 74 194 33 b 103 15 139 17 114 15 b 92 7 96 15 92 13 b 114 -4 92 -3 100 -4 b 247 0 176 -4 235 0 b 394 -4 260 0 315 -4 b 419 7 411 -4 419 -1 b 408 15 419 13 415 15 b 339 24 396 15 365 17 b 285 185 301 35 288 71 z m 769 1153 b 885 1249 813 1153 874 1226 b 890 1267 889 1257 890 1261 b 881 1275 890 1271 886 1275 b 864 1260 876 1275 869 1268 b 779 1219 860 1254 831 1219 b 699 1243 757 1219 718 1233 b 582 1286 656 1264 615 1286 b 463 1188 538 1286 482 1218 b 453 1167 457 1179 453 1174 b 461 1158 453 1163 456 1158 b 481 1171 467 1158 474 1163 b 565 1221 490 1182 517 1221 b 660 1189 608 1221 635 1200 b 769 1153 679 1179 724 1153 z "},"Ó":{"ha":1271,"x_min":0,"x_max":0,"o":"m 89 522 b 628 -24 89 272 247 -24 b 1182 544 963 -24 1182 233 b 636 1065 1182 868 949 1065 b 89 522 253 1065 89 747 z m 221 561 b 626 1018 221 865 394 1018 b 1049 506 846 1018 1049 839 b 665 29 1049 101 790 29 b 221 561 415 29 221 238 z m 813 1296 b 799 1308 806 1306 803 1308 b 760 1290 792 1308 783 1304 b 571 1172 750 1285 621 1207 b 561 1161 564 1168 561 1165 b 568 1153 561 1156 565 1153 b 589 1160 571 1153 579 1156 b 800 1218 635 1179 732 1211 b 842 1218 824 1221 838 1218 b 847 1235 847 1218 854 1222 b 813 1296 832 1263 822 1282 z "},"Ô":{"ha":1271,"x_min":0,"x_max":0,"o":"m 89 522 b 628 -24 89 272 247 -24 b 1182 544 963 -24 1182 233 b 636 1065 1182 868 949 1065 b 89 522 253 1065 89 747 z m 221 561 b 626 1018 221 865 394 1018 b 1049 506 846 1018 1049 839 b 665 29 1049 101 790 29 b 221 561 415 29 221 238 z m 811 1174 b 818 1186 814 1178 818 1182 b 801 1200 818 1189 814 1192 b 661 1306 783 1214 672 1297 b 639 1319 650 1314 644 1319 b 617 1306 635 1319 628 1315 b 461 1161 601 1292 475 1175 b 453 1146 457 1156 453 1151 b 463 1135 453 1140 457 1135 b 488 1149 467 1135 476 1139 b 606 1236 521 1176 574 1219 b 628 1243 617 1242 622 1243 b 642 1238 632 1243 636 1240 b 758 1142 658 1228 731 1172 b 769 1135 763 1136 765 1135 b 782 1143 774 1135 776 1138 z "},"Ö":{"ha":1271,"x_min":0,"x_max":0,"o":"m 89 522 b 628 -24 89 272 247 -24 b 1182 544 963 -24 1182 233 b 636 1065 1182 868 949 1065 b 89 522 253 1065 89 747 z m 221 561 b 626 1018 221 865 394 1018 b 1049 506 846 1018 1049 839 b 665 29 1049 101 790 29 b 221 561 415 29 221 238 z m 774 1153 b 835 1217 811 1153 835 1181 b 775 1272 835 1251 808 1272 b 715 1213 732 1272 715 1238 b 774 1153 715 1186 732 1153 z m 494 1153 b 556 1217 532 1153 556 1181 b 496 1272 556 1251 529 1272 b 436 1213 453 1272 436 1238 b 494 1153 436 1186 453 1153 z "},"Ò":{"ha":1271,"x_min":0,"x_max":0,"o":"m 89 522 b 628 -24 89 272 247 -24 b 1182 544 963 -24 1182 233 b 636 1065 1182 868 949 1065 b 89 522 253 1065 89 747 z m 221 561 b 626 1018 221 865 394 1018 b 1049 506 846 1018 1049 839 b 665 29 1049 101 790 29 b 221 561 415 29 221 238 z m 706 1153 b 718 1160 713 1153 718 1156 b 692 1179 718 1165 706 1169 b 556 1281 635 1215 567 1269 b 535 1303 543 1293 542 1303 b 513 1296 529 1303 524 1300 b 429 1269 496 1289 458 1278 b 414 1258 419 1267 414 1265 b 454 1235 414 1251 425 1246 b 706 1153 476 1226 681 1153 z "},"Õ":{"ha":1271,"x_min":0,"x_max":0,"o":"m 89 522 b 628 -24 89 272 247 -24 b 1182 544 963 -24 1182 233 b 636 1065 1182 868 949 1065 b 89 522 253 1065 89 747 z m 221 561 b 626 1018 221 865 394 1018 b 1049 506 846 1018 1049 839 b 665 29 1049 101 790 29 b 221 561 415 29 221 238 z m 733 1153 b 849 1249 776 1153 838 1226 b 854 1267 853 1257 854 1261 b 844 1275 854 1271 850 1275 b 828 1260 840 1275 833 1268 b 743 1219 824 1254 794 1219 b 663 1243 721 1219 682 1233 b 546 1286 619 1264 579 1286 b 426 1188 501 1286 446 1218 b 417 1167 421 1179 417 1174 b 425 1158 417 1163 419 1158 b 444 1171 431 1158 438 1163 b 529 1221 454 1182 481 1221 b 624 1189 572 1221 599 1200 b 733 1153 643 1179 688 1153 z "},"Š":{"ha":792,"x_min":0,"x_max":0,"o":"m 344 -24 b 554 35 419 -24 494 -7 b 672 265 650 103 672 208 b 469 592 672 376 633 463 l 431 622 b 261 856 297 726 261 776 b 432 1017 261 957 336 1017 b 606 943 560 1017 597 958 b 624 874 614 928 622 890 b 635 856 625 863 626 856 b 644 888 642 856 644 865 b 650 1035 644 982 650 1028 b 636 1044 650 1042 647 1044 b 588 1051 625 1044 614 1046 b 458 1065 553 1060 513 1065 b 171 815 282 1065 171 964 b 351 514 171 721 204 635 l 414 463 b 574 213 533 364 574 308 b 375 28 574 124 508 28 b 169 169 282 28 190 67 b 165 221 165 189 165 208 b 156 236 165 232 164 236 b 144 214 149 236 146 229 b 138 67 143 192 138 136 b 158 14 138 29 139 24 b 344 -24 215 -14 279 -24 z m 247 1278 b 240 1265 244 1274 240 1269 b 257 1251 240 1263 244 1260 b 397 1146 275 1238 386 1154 b 418 1132 408 1136 414 1132 b 442 1146 424 1132 431 1136 b 597 1290 457 1160 583 1276 b 606 1306 601 1296 606 1300 b 596 1317 606 1311 601 1317 b 571 1303 592 1317 582 1313 b 453 1215 538 1275 485 1232 b 431 1208 442 1210 436 1208 b 417 1214 426 1208 422 1211 b 300 1310 399 1222 328 1279 b 289 1317 296 1315 293 1317 b 276 1308 285 1317 282 1314 z "},"Ú":{"ha":1153,"x_min":0,"x_max":0,"o":"m 167 440 b 288 75 167 238 219 140 b 574 -24 386 -18 526 -24 b 860 79 656 -24 760 -10 b 988 494 971 178 988 344 l 988 643 b 990 943 988 860 988 899 b 1042 1022 993 992 1004 1014 b 1076 1026 1058 1025 1067 1026 b 1088 1035 1082 1026 1088 1029 b 1065 1046 1088 1043 1081 1046 b 949 1042 1024 1046 958 1042 b 801 1046 940 1042 864 1046 b 779 1035 786 1046 779 1043 b 790 1026 779 1029 785 1026 b 838 1022 803 1026 826 1025 b 897 943 883 1013 894 990 b 900 643 900 899 900 860 l 900 469 b 819 129 900 326 883 208 b 601 29 769 69 686 29 b 392 106 522 29 460 42 b 288 449 332 163 288 249 l 288 643 b 290 943 288 860 288 899 b 342 1022 293 992 304 1017 b 376 1026 358 1025 367 1026 b 388 1035 382 1026 388 1029 b 365 1046 388 1043 381 1046 b 228 1042 324 1046 240 1042 b 68 1046 215 1042 131 1046 b 46 1035 53 1046 46 1043 b 57 1026 46 1029 51 1026 b 104 1022 69 1026 93 1025 b 164 943 150 1013 161 990 b 167 643 167 899 167 860 z m 781 1296 b 767 1308 774 1306 771 1308 b 728 1290 760 1308 751 1304 b 539 1172 718 1285 589 1207 b 529 1161 532 1168 529 1165 b 536 1153 529 1156 533 1153 b 557 1160 539 1153 547 1156 b 768 1218 603 1179 700 1211 b 810 1218 792 1221 806 1218 b 815 1235 815 1218 822 1222 b 781 1296 800 1263 790 1282 z "},"Û":{"ha":1153,"x_min":0,"x_max":0,"o":"m 167 440 b 288 75 167 238 219 140 b 574 -24 386 -18 526 -24 b 860 79 656 -24 760 -10 b 988 494 971 178 988 344 l 988 643 b 990 943 988 860 988 899 b 1042 1022 993 992 1004 1014 b 1076 1026 1058 1025 1067 1026 b 1088 1035 1082 1026 1088 1029 b 1065 1046 1088 1043 1081 1046 b 949 1042 1024 1046 958 1042 b 801 1046 940 1042 864 1046 b 779 1035 786 1046 779 1043 b 790 1026 779 1029 785 1026 b 838 1022 803 1026 826 1025 b 897 943 883 1013 894 990 b 900 643 900 899 900 860 l 900 469 b 819 129 900 326 883 208 b 601 29 769 69 686 29 b 392 106 522 29 460 42 b 288 449 332 163 288 249 l 288 643 b 290 943 288 860 288 899 b 342 1022 293 992 304 1017 b 376 1026 358 1025 367 1026 b 388 1035 382 1026 388 1029 b 365 1046 388 1043 381 1046 b 228 1042 324 1046 240 1042 b 68 1046 215 1042 131 1046 b 46 1035 53 1046 46 1043 b 57 1026 46 1029 51 1026 b 104 1022 69 1026 93 1025 b 164 943 150 1013 161 990 b 167 643 167 899 167 860 z m 772 1174 b 779 1186 775 1178 779 1182 b 763 1200 779 1189 775 1192 b 622 1306 744 1214 633 1297 b 600 1319 611 1314 606 1319 b 578 1306 596 1319 589 1315 b 422 1161 563 1292 436 1175 b 414 1146 418 1156 414 1151 b 424 1135 414 1140 418 1135 b 449 1149 428 1135 438 1139 b 567 1236 482 1176 535 1219 b 589 1243 578 1242 583 1243 b 603 1238 593 1243 597 1240 b 719 1142 619 1228 692 1172 b 731 1135 724 1136 726 1135 b 743 1143 735 1135 738 1138 z "},"Ü":{"ha":1153,"x_min":0,"x_max":0,"o":"m 167 440 b 288 75 167 238 219 140 b 574 -24 386 -18 526 -24 b 860 79 656 -24 760 -10 b 988 494 971 178 988 344 l 988 643 b 990 943 988 860 988 899 b 1042 1022 993 992 1004 1014 b 1076 1026 1058 1025 1067 1026 b 1088 1035 1082 1026 1088 1029 b 1065 1046 1088 1043 1081 1046 b 949 1042 1024 1046 958 1042 b 801 1046 940 1042 864 1046 b 779 1035 786 1046 779 1043 b 790 1026 779 1029 785 1026 b 838 1022 803 1026 826 1025 b 897 943 883 1013 894 990 b 900 643 900 899 900 860 l 900 469 b 819 129 900 326 883 208 b 601 29 769 69 686 29 b 392 106 522 29 460 42 b 288 449 332 163 288 249 l 288 643 b 290 943 288 860 288 899 b 342 1022 293 992 304 1017 b 376 1026 358 1025 367 1026 b 388 1035 382 1026 388 1029 b 365 1046 388 1043 381 1046 b 228 1042 324 1046 240 1042 b 68 1046 215 1042 131 1046 b 46 1035 53 1046 46 1043 b 57 1026 46 1029 51 1026 b 104 1022 69 1026 93 1025 b 164 943 150 1013 161 990 b 167 643 167 899 167 860 z m 742 1153 b 803 1217 779 1153 803 1181 b 743 1272 803 1251 776 1272 b 683 1213 700 1272 683 1238 b 742 1153 683 1186 700 1153 z m 463 1153 b 524 1217 500 1153 524 1181 b 464 1272 524 1251 497 1272 b 404 1213 421 1272 404 1238 b 463 1153 404 1186 421 1153 z "},"Ù":{"ha":1153,"x_min":0,"x_max":0,"o":"m 167 440 b 288 75 167 238 219 140 b 574 -24 386 -18 526 -24 b 860 79 656 -24 760 -10 b 988 494 971 178 988 344 l 988 643 b 990 943 988 860 988 899 b 1042 1022 993 992 1004 1014 b 1076 1026 1058 1025 1067 1026 b 1088 1035 1082 1026 1088 1029 b 1065 1046 1088 1043 1081 1046 b 949 1042 1024 1046 958 1042 b 801 1046 940 1042 864 1046 b 779 1035 786 1046 779 1043 b 790 1026 779 1029 785 1026 b 838 1022 803 1026 826 1025 b 897 943 883 1013 894 990 b 900 643 900 899 900 860 l 900 469 b 819 129 900 326 883 208 b 601 29 769 69 686 29 b 392 106 522 29 460 42 b 288 449 332 163 288 249 l 288 643 b 290 943 288 860 288 899 b 342 1022 293 992 304 1017 b 376 1026 358 1025 367 1026 b 388 1035 382 1026 388 1029 b 365 1046 388 1043 381 1046 b 228 1042 324 1046 240 1042 b 68 1046 215 1042 131 1046 b 46 1035 53 1046 46 1043 b 57 1026 46 1029 51 1026 b 104 1022 69 1026 93 1025 b 164 943 150 1013 161 990 b 167 643 167 899 167 860 z m 653 1153 b 665 1160 660 1153 665 1156 b 639 1179 665 1165 653 1169 b 503 1281 582 1215 514 1269 b 482 1303 490 1293 489 1303 b 460 1296 476 1303 471 1300 b 376 1269 443 1289 406 1278 b 361 1258 367 1267 361 1265 b 401 1235 361 1251 372 1246 b 653 1153 424 1226 628 1153 z "},"Ý":{"ha":908,"x_min":0,"x_max":0,"o":"m 401 236 b 397 97 401 214 401 156 b 354 21 394 57 382 26 b 313 15 342 18 325 15 b 301 7 304 15 301 11 b 324 -4 301 -1 308 -4 b 460 0 365 -4 453 0 b 631 -4 467 0 554 -4 b 653 7 646 -4 653 0 b 642 15 653 11 650 15 b 579 21 629 15 599 18 b 522 97 538 26 525 57 b 518 236 518 156 518 214 l 518 356 b 539 494 518 401 518 444 b 804 936 564 554 758 881 b 878 1007 835 974 850 990 b 942 1026 900 1021 926 1026 b 960 1038 953 1026 960 1031 b 942 1046 960 1043 951 1046 b 807 1042 915 1046 815 1042 b 715 1046 796 1042 751 1046 b 693 1038 701 1046 693 1043 b 714 1024 693 1031 701 1028 b 736 985 731 1019 736 1004 b 713 914 736 967 731 943 b 482 506 685 868 508 564 b 226 944 457 546 249 904 b 208 999 215 965 208 982 b 226 1024 208 1010 215 1018 b 247 1036 239 1029 247 1031 b 229 1046 247 1042 244 1046 b 113 1042 175 1046 122 1042 b -25 1046 106 1042 1 1046 b -43 1036 -37 1046 -43 1042 b -29 1026 -43 1029 -36 1026 b 31 1004 -17 1026 10 1018 b 125 901 56 988 90 953 b 369 501 174 829 360 524 b 401 356 388 461 401 431 z m 672 1296 b 658 1308 665 1306 663 1308 b 619 1290 651 1308 643 1304 b 431 1172 610 1285 481 1207 b 421 1161 424 1168 421 1165 b 428 1153 421 1156 425 1153 b 449 1160 431 1153 439 1156 b 660 1218 494 1179 592 1211 b 701 1218 683 1221 697 1218 b 707 1235 707 1218 714 1222 b 672 1296 692 1263 682 1282 z "},"Ÿ":{"ha":908,"x_min":0,"x_max":0,"o":"m 401 236 b 397 97 401 214 401 156 b 354 21 394 57 382 26 b 313 15 342 18 325 15 b 301 7 304 15 301 11 b 324 -4 301 -1 308 -4 b 460 0 365 -4 453 0 b 631 -4 467 0 554 -4 b 653 7 646 -4 653 0 b 642 15 653 11 650 15 b 579 21 629 15 599 18 b 522 97 538 26 525 57 b 518 236 518 156 518 214 l 518 356 b 539 494 518 401 518 444 b 804 936 564 554 758 881 b 878 1007 835 974 850 990 b 942 1026 900 1021 926 1026 b 960 1038 953 1026 960 1031 b 942 1046 960 1043 951 1046 b 807 1042 915 1046 815 1042 b 715 1046 796 1042 751 1046 b 693 1038 701 1046 693 1043 b 714 1024 693 1031 701 1028 b 736 985 731 1019 736 1004 b 713 914 736 967 731 943 b 482 506 685 868 508 564 b 226 944 457 546 249 904 b 208 999 215 965 208 982 b 226 1024 208 1010 215 1018 b 247 1036 239 1029 247 1031 b 229 1046 247 1042 244 1046 b 113 1042 175 1046 122 1042 b -25 1046 106 1042 1 1046 b -43 1036 -37 1046 -43 1042 b -29 1026 -43 1029 -36 1026 b 31 1004 -17 1026 10 1018 b 125 901 56 988 90 953 b 369 501 174 829 360 524 b 401 356 388 461 401 431 z m 626 1153 b 688 1217 664 1153 688 1181 b 628 1272 688 1251 661 1272 b 568 1213 585 1272 568 1238 b 626 1153 568 1186 585 1153 z m 347 1153 b 408 1217 385 1153 408 1181 b 349 1272 408 1251 382 1272 b 289 1213 306 1272 289 1238 b 347 1153 289 1186 306 1153 z "},"Ž":{"ha":961,"x_min":0,"x_max":0,"o":"m 256 56 b 878 1014 467 375 676 694 b 883 1031 883 1022 883 1025 b 856 1042 883 1039 876 1042 l 468 1042 b 226 1046 425 1042 358 1040 b 168 1056 189 1047 181 1056 b 154 1029 160 1056 157 1049 b 126 844 147 988 126 861 b 135 826 126 833 128 826 b 150 851 142 826 147 831 b 229 961 154 883 179 935 b 429 989 274 985 358 989 l 731 989 b 121 50 538 675 328 363 b 101 11 104 25 101 18 b 126 0 101 1 110 0 b 835 -7 369 0 603 -7 b 876 29 867 -7 868 -4 b 904 189 885 64 904 146 b 893 221 904 215 901 221 b 881 199 886 221 883 213 b 853 124 878 179 865 142 b 633 56 824 82 779 56 z m 311 1278 b 304 1265 308 1274 304 1269 b 321 1251 304 1263 308 1260 b 461 1146 339 1238 450 1154 b 482 1132 472 1136 478 1132 b 506 1146 488 1132 494 1136 b 661 1290 521 1160 647 1276 b 669 1306 665 1296 669 1300 b 660 1317 669 1311 665 1317 b 635 1303 656 1317 646 1313 b 517 1215 601 1275 549 1232 b 494 1208 506 1210 500 1208 b 481 1214 490 1208 486 1211 b 364 1310 463 1222 392 1279 b 353 1317 360 1315 357 1317 b 340 1308 349 1317 346 1314 z "},"á":{"ha":867,"x_min":0,"x_max":0,"o":"m 114 126 b 11 18 90 67 67 25 b -25 15 1 17 -17 15 b -36 6 -31 15 -36 11 b -12 -4 -36 -1 -28 -4 b 111 0 38 -4 99 0 b 221 -4 125 0 192 -4 b 239 6 232 -4 239 -1 b 226 15 239 11 236 15 l 215 15 b 174 47 194 15 174 24 b 192 126 174 68 181 97 l 261 315 b 274 325 264 322 268 325 l 556 325 b 567 318 563 325 564 324 l 676 47 b 665 15 685 28 672 18 b 657 7 660 13 657 13 b 700 -1 657 0 676 0 b 893 -4 785 -4 875 -4 b 921 6 907 -4 921 -1 b 906 15 921 13 913 15 b 857 22 893 15 875 17 b 753 151 831 31 797 46 b 460 868 678 331 482 818 b 431 911 447 894 443 911 b 401 865 422 911 417 904 z m 290 374 b 286 382 286 374 285 376 l 400 706 b 421 706 407 724 414 724 l 542 382 b 538 374 543 376 543 374 z m 611 1136 b 597 1149 604 1146 601 1149 b 558 1131 590 1149 582 1144 b 369 1013 549 1125 419 1047 b 360 1001 363 1008 360 1006 b 367 993 360 996 364 993 b 388 1000 369 993 378 996 b 599 1058 433 1019 531 1051 b 640 1058 622 1061 636 1058 b 646 1075 646 1058 653 1063 b 611 1136 631 1103 621 1122 z "},"â":{"ha":867,"x_min":0,"x_max":0,"o":"m 114 126 b 11 18 90 67 67 25 b -25 15 1 17 -17 15 b -36 6 -31 15 -36 11 b -12 -4 -36 -1 -28 -4 b 111 0 38 -4 99 0 b 221 -4 125 0 192 -4 b 239 6 232 -4 239 -1 b 226 15 239 11 236 15 l 215 15 b 174 47 194 15 174 24 b 192 126 174 68 181 97 l 261 315 b 274 325 264 322 268 325 l 556 325 b 567 318 563 325 564 324 l 676 47 b 665 15 685 28 672 18 b 657 7 660 13 657 13 b 700 -1 657 0 676 0 b 893 -4 785 -4 875 -4 b 921 6 907 -4 921 -1 b 906 15 921 13 913 15 b 857 22 893 15 875 17 b 753 151 831 31 797 46 b 460 868 678 331 482 818 b 431 911 447 894 443 911 b 401 865 422 911 417 904 z m 290 374 b 286 382 286 374 285 376 l 400 706 b 421 706 407 724 414 724 l 542 382 b 538 374 543 376 543 374 z m 610 1014 b 617 1026 613 1018 617 1022 b 600 1040 617 1029 613 1032 b 460 1146 582 1054 471 1138 b 438 1160 449 1154 443 1160 b 415 1146 433 1160 426 1156 b 260 1001 400 1132 274 1015 b 251 986 256 996 251 992 b 261 975 251 981 256 975 b 286 989 265 975 275 979 b 404 1076 319 1017 372 1060 b 426 1083 415 1082 421 1083 b 440 1078 431 1083 435 1081 b 557 982 457 1068 529 1013 b 568 975 561 976 564 975 b 581 983 572 975 575 978 z "},"ä":{"ha":867,"x_min":0,"x_max":0,"o":"m 114 126 b 11 18 90 67 67 25 b -25 15 1 17 -17 15 b -36 6 -31 15 -36 11 b -12 -4 -36 -1 -28 -4 b 111 0 38 -4 99 0 b 221 -4 125 0 192 -4 b 239 6 232 -4 239 -1 b 226 15 239 11 236 15 l 215 15 b 174 47 194 15 174 24 b 192 126 174 68 181 97 l 261 315 b 274 325 264 322 268 325 l 556 325 b 567 318 563 325 564 324 l 676 47 b 665 15 685 28 672 18 b 657 7 660 13 657 13 b 700 -1 657 0 676 0 b 893 -4 785 -4 875 -4 b 921 6 907 -4 921 -1 b 906 15 921 13 913 15 b 857 22 893 15 875 17 b 753 151 831 31 797 46 b 460 868 678 331 482 818 b 431 911 447 894 443 911 b 401 865 422 911 417 904 z m 290 374 b 286 382 286 374 285 376 l 400 706 b 421 706 407 724 414 724 l 542 382 b 538 374 543 376 543 374 z m 572 993 b 633 1057 610 993 633 1021 b 574 1113 633 1092 607 1113 b 514 1053 531 1113 514 1078 b 572 993 514 1026 531 993 z m 293 993 b 354 1057 331 993 354 1021 b 294 1113 354 1092 328 1113 b 235 1053 251 1113 235 1078 b 293 993 235 1026 251 993 z "},"à":{"ha":867,"x_min":0,"x_max":0,"o":"m 114 126 b 11 18 90 67 67 25 b -25 15 1 17 -17 15 b -36 6 -31 15 -36 11 b -12 -4 -36 -1 -28 -4 b 111 0 38 -4 99 0 b 221 -4 125 0 192 -4 b 239 6 232 -4 239 -1 b 226 15 239 11 236 15 l 215 15 b 174 47 194 15 174 24 b 192 126 174 68 181 97 l 261 315 b 274 325 264 322 268 325 l 556 325 b 567 318 563 325 564 324 l 676 47 b 665 15 685 28 672 18 b 657 7 660 13 657 13 b 700 -1 657 0 676 0 b 893 -4 785 -4 875 -4 b 921 6 907 -4 921 -1 b 906 15 921 13 913 15 b 857 22 893 15 875 17 b 753 151 831 31 797 46 b 460 868 678 331 482 818 b 431 911 447 894 443 911 b 401 865 422 911 417 904 z m 290 374 b 286 382 286 374 285 376 l 400 706 b 421 706 407 724 414 724 l 542 382 b 538 374 543 376 543 374 z m 504 993 b 517 1000 511 993 517 996 b 490 1019 517 1006 504 1010 b 354 1121 433 1056 365 1110 b 333 1143 342 1133 340 1143 b 311 1136 328 1143 322 1140 b 228 1110 294 1129 257 1118 b 213 1099 218 1107 213 1106 b 253 1075 213 1092 224 1086 b 504 993 275 1067 479 993 z "},"å":{"ha":867,"x_min":0,"x_max":0,"o":"m 114 126 b 11 18 90 67 67 25 b -25 15 1 17 -17 15 b -36 6 -31 15 -36 11 b -12 -4 -36 -1 -28 -4 b 111 0 38 -4 99 0 b 221 -4 125 0 192 -4 b 239 6 232 -4 239 -1 b 226 15 239 11 236 15 l 215 15 b 174 47 194 15 174 24 b 192 126 174 68 181 97 l 261 315 b 274 325 264 322 268 325 l 556 325 b 567 318 563 325 564 324 l 676 47 b 665 15 685 28 672 18 b 657 7 660 13 657 13 b 700 -1 657 0 676 0 b 893 -4 785 -4 875 -4 b 921 6 907 -4 921 -1 b 906 15 921 13 913 15 b 857 22 893 15 875 17 b 753 151 831 31 797 46 b 460 868 678 331 482 818 b 431 911 447 894 443 911 b 401 865 422 911 417 904 z m 290 374 b 286 382 286 374 285 376 l 400 706 b 421 706 407 724 414 724 l 542 382 b 538 374 543 376 543 374 z m 404 979 b 574 1101 485 979 575 1025 b 460 1181 574 1149 531 1181 b 296 1061 364 1181 296 1124 b 404 979 296 1014 335 979 z m 426 1013 b 357 1079 393 1013 357 1038 b 436 1147 357 1126 404 1147 b 508 1083 486 1147 508 1117 b 426 1013 508 1044 472 1013 z "},"ã":{"ha":867,"x_min":0,"x_max":0,"o":"m 114 126 b 11 18 90 67 67 25 b -25 15 1 17 -17 15 b -36 6 -31 15 -36 11 b -12 -4 -36 -1 -28 -4 b 111 0 38 -4 99 0 b 221 -4 125 0 192 -4 b 239 6 232 -4 239 -1 b 226 15 239 11 236 15 l 215 15 b 174 47 194 15 174 24 b 192 126 174 68 181 97 l 261 315 b 274 325 264 322 268 325 l 556 325 b 567 318 563 325 564 324 l 676 47 b 665 15 685 28 672 18 b 657 7 660 13 657 13 b 700 -1 657 0 676 0 b 893 -4 785 -4 875 -4 b 921 6 907 -4 921 -1 b 906 15 921 13 913 15 b 857 22 893 15 875 17 b 753 151 831 31 797 46 b 460 868 678 331 482 818 b 431 911 447 894 443 911 b 401 865 422 911 417 904 z m 290 374 b 286 382 286 374 285 376 l 400 706 b 421 706 407 724 414 724 l 542 382 b 538 374 543 376 543 374 z m 532 993 b 647 1089 575 993 636 1067 b 653 1107 651 1097 653 1101 b 643 1115 653 1111 649 1115 b 626 1100 639 1115 632 1108 b 542 1060 622 1094 593 1060 b 461 1083 519 1060 481 1074 b 344 1126 418 1104 378 1126 b 225 1028 300 1126 244 1058 b 215 1007 219 1019 215 1014 b 224 999 215 1003 218 999 b 243 1011 229 999 236 1003 b 328 1061 253 1022 279 1061 b 422 1029 371 1061 397 1040 b 532 993 442 1019 486 993 z "},"ç":{"ha":983,"x_min":0,"x_max":0,"o":"m 581 -18 b 628 -19 596 -19 611 -19 b 849 7 707 -19 799 -12 b 879 42 869 15 872 19 b 908 193 892 82 908 185 b 897 210 908 201 903 210 b 885 193 889 210 888 206 b 838 94 881 171 864 121 b 636 39 789 46 728 39 b 196 467 375 39 196 240 b 306 775 196 586 215 692 b 581 857 349 815 424 857 b 821 792 689 857 778 828 b 872 674 853 767 872 719 b 882 649 872 657 874 649 b 896 674 889 649 894 656 b 899 794 897 690 897 756 b 904 861 901 838 904 851 b 889 874 904 868 901 874 b 764 893 849 875 810 886 b 586 906 704 903 635 906 b 214 779 399 906 288 850 b 76 457 106 674 76 536 b 225 107 76 344 106 210 b 529 -15 303 40 399 -1 l 440 -87 b 422 -107 428 -97 422 -103 b 443 -119 422 -112 428 -115 b 543 -221 525 -143 543 -181 b 440 -306 543 -271 489 -300 b 413 -321 425 -307 413 -308 b 431 -332 413 -328 421 -332 b 539 -307 457 -332 501 -324 b 638 -193 586 -287 638 -247 b 499 -94 638 -136 585 -103 b 581 -18 508 -85 553 -43 z "},"é":{"ha":765,"x_min":0,"x_max":0,"o":"m 215 339 b 208 83 215 225 215 132 b 176 21 203 49 200 25 b 139 15 165 19 150 15 b 129 6 132 15 129 10 b 149 -4 129 -1 136 -4 b 219 -1 168 -4 196 -3 b 272 0 246 0 269 0 b 374 -3 290 0 322 0 b 586 -7 424 -4 494 -7 b 654 24 633 -7 646 -7 b 671 138 661 49 671 129 b 663 156 671 146 669 156 b 650 138 656 156 653 151 b 594 56 643 90 626 69 b 472 43 563 43 504 43 b 326 138 351 43 329 58 b 326 339 325 161 326 299 l 326 438 b 335 446 326 442 328 446 b 519 440 356 446 486 444 b 582 404 567 435 578 421 b 588 365 588 389 588 376 b 596 354 588 358 590 354 b 607 376 604 354 607 367 b 613 453 607 385 610 429 b 622 518 615 492 622 511 b 615 528 622 525 619 528 b 597 513 611 528 606 521 b 538 496 585 500 567 499 b 333 493 510 493 349 493 b 326 506 326 493 326 497 l 326 826 b 333 839 326 835 328 839 b 510 835 347 839 489 838 b 597 799 576 826 589 818 b 604 757 603 785 604 765 b 614 742 604 747 607 742 b 625 754 619 742 624 749 b 632 832 628 768 631 821 b 642 888 635 865 642 879 b 636 899 642 893 640 899 b 619 893 631 899 625 894 b 564 886 610 892 588 888 b 272 886 536 885 281 886 b 131 889 265 886 186 889 b 111 879 117 889 111 886 b 121 869 111 875 117 869 b 163 867 132 869 153 868 b 213 801 203 861 210 842 b 215 547 215 764 215 731 z m 560 1136 b 546 1149 553 1146 550 1149 b 507 1131 539 1149 531 1144 b 318 1013 497 1125 368 1047 b 308 1001 311 1008 308 1006 b 315 993 308 996 313 993 b 336 1000 318 993 326 996 b 547 1058 382 1019 479 1051 b 589 1058 571 1061 585 1058 b 594 1075 594 1058 601 1063 b 560 1136 579 1103 569 1122 z "},"ê":{"ha":765,"x_min":0,"x_max":0,"o":"m 215 339 b 208 83 215 225 215 132 b 176 21 203 49 200 25 b 139 15 165 19 150 15 b 129 6 132 15 129 10 b 149 -4 129 -1 136 -4 b 219 -1 168 -4 196 -3 b 272 0 246 0 269 0 b 374 -3 290 0 322 0 b 586 -7 424 -4 494 -7 b 654 24 633 -7 646 -7 b 671 138 661 49 671 129 b 663 156 671 146 669 156 b 650 138 656 156 653 151 b 594 56 643 90 626 69 b 472 43 563 43 504 43 b 326 138 351 43 329 58 b 326 339 325 161 326 299 l 326 438 b 335 446 326 442 328 446 b 519 440 356 446 486 444 b 582 404 567 435 578 421 b 588 365 588 389 588 376 b 596 354 588 358 590 354 b 607 376 604 354 607 367 b 613 453 607 385 610 429 b 622 518 615 492 622 511 b 615 528 622 525 619 528 b 597 513 611 528 606 521 b 538 496 585 500 567 499 b 333 493 510 493 349 493 b 326 506 326 493 326 497 l 326 826 b 333 839 326 835 328 839 b 510 835 347 839 489 838 b 597 799 576 826 589 818 b 604 757 603 785 604 765 b 614 742 604 747 607 742 b 625 754 619 742 624 749 b 632 832 628 768 631 821 b 642 888 635 865 642 879 b 636 899 642 893 640 899 b 619 893 631 899 625 894 b 564 886 610 892 588 888 b 272 886 536 885 281 886 b 131 889 265 886 186 889 b 111 879 117 889 111 886 b 121 869 111 875 117 869 b 163 867 132 869 153 868 b 213 801 203 861 210 842 b 215 547 215 764 215 731 z m 572 1014 b 579 1026 575 1018 579 1022 b 563 1040 579 1029 575 1032 b 422 1146 544 1054 433 1138 b 400 1160 411 1154 406 1160 b 378 1146 396 1160 389 1156 b 222 1001 363 1132 236 1015 b 214 986 218 996 214 992 b 224 975 214 981 218 975 b 249 989 228 975 238 979 b 367 1076 282 1017 335 1060 b 389 1083 378 1082 383 1083 b 403 1078 393 1083 397 1081 b 519 982 419 1068 492 1013 b 531 975 524 976 526 975 b 543 983 535 975 538 978 z "},"ë":{"ha":765,"x_min":0,"x_max":0,"o":"m 215 339 b 208 83 215 225 215 132 b 176 21 203 49 200 25 b 139 15 165 19 150 15 b 129 6 132 15 129 10 b 149 -4 129 -1 136 -4 b 219 -1 168 -4 196 -3 b 272 0 246 0 269 0 b 374 -3 290 0 322 0 b 586 -7 424 -4 494 -7 b 654 24 633 -7 646 -7 b 671 138 661 49 671 129 b 663 156 671 146 669 156 b 650 138 656 156 653 151 b 594 56 643 90 626 69 b 472 43 563 43 504 43 b 326 138 351 43 329 58 b 326 339 325 161 326 299 l 326 438 b 335 446 326 442 328 446 b 519 440 356 446 486 444 b 582 404 567 435 578 421 b 588 365 588 389 588 376 b 596 354 588 358 590 354 b 607 376 604 354 607 367 b 613 453 607 385 610 429 b 622 518 615 492 622 511 b 615 528 622 525 619 528 b 597 513 611 528 606 521 b 538 496 585 500 567 499 b 333 493 510 493 349 493 b 326 506 326 493 326 497 l 326 826 b 333 839 326 835 328 839 b 510 835 347 839 489 838 b 597 799 576 826 589 818 b 604 757 603 785 604 765 b 614 742 604 747 607 742 b 625 754 619 742 624 749 b 632 832 628 768 631 821 b 642 888 635 865 642 879 b 636 899 642 893 640 899 b 619 893 631 899 625 894 b 564 886 610 892 588 888 b 272 886 536 885 281 886 b 131 889 265 886 186 889 b 111 879 117 889 111 886 b 121 869 111 875 117 869 b 163 867 132 869 153 868 b 213 801 203 861 210 842 b 215 547 215 764 215 731 z m 521 993 b 582 1057 558 993 582 1021 b 522 1113 582 1092 556 1113 b 463 1053 479 1113 463 1078 b 521 993 463 1026 479 993 z m 242 993 b 303 1057 279 993 303 1021 b 243 1113 303 1092 276 1113 b 183 1053 200 1113 183 1078 b 242 993 183 1026 200 993 z "},"è":{"ha":765,"x_min":0,"x_max":0,"o":"m 215 339 b 208 83 215 225 215 132 b 176 21 203 49 200 25 b 139 15 165 19 150 15 b 129 6 132 15 129 10 b 149 -4 129 -1 136 -4 b 219 -1 168 -4 196 -3 b 272 0 246 0 269 0 b 374 -3 290 0 322 0 b 586 -7 424 -4 494 -7 b 654 24 633 -7 646 -7 b 671 138 661 49 671 129 b 663 156 671 146 669 156 b 650 138 656 156 653 151 b 594 56 643 90 626 69 b 472 43 563 43 504 43 b 326 138 351 43 329 58 b 326 339 325 161 326 299 l 326 438 b 335 446 326 442 328 446 b 519 440 356 446 486 444 b 582 404 567 435 578 421 b 588 365 588 389 588 376 b 596 354 588 358 590 354 b 607 376 604 354 607 367 b 613 453 607 385 610 429 b 622 518 615 492 622 511 b 615 528 622 525 619 528 b 597 513 611 528 606 521 b 538 496 585 500 567 499 b 333 493 510 493 349 493 b 326 506 326 493 326 497 l 326 826 b 333 839 326 835 328 839 b 510 835 347 839 489 838 b 597 799 576 826 589 818 b 604 757 603 785 604 765 b 614 742 604 747 607 742 b 625 754 619 742 624 749 b 632 832 628 768 631 821 b 642 888 635 865 642 879 b 636 899 642 893 640 899 b 619 893 631 899 625 894 b 564 886 610 892 588 888 b 272 886 536 885 281 886 b 131 889 265 886 186 889 b 111 879 117 889 111 886 b 121 869 111 875 117 869 b 163 867 132 869 153 868 b 213 801 203 861 210 842 b 215 547 215 764 215 731 z m 481 993 b 493 1000 488 993 493 996 b 467 1019 493 1006 481 1010 b 331 1121 410 1056 342 1110 b 310 1143 318 1133 317 1143 b 288 1136 304 1143 299 1140 b 204 1110 271 1129 233 1118 b 189 1099 194 1107 189 1106 b 229 1075 189 1092 200 1086 b 481 993 251 1067 456 993 z "},"í":{"ha":540,"x_min":0,"x_max":0,"o":"m 326 547 b 328 801 326 731 326 764 b 371 867 331 843 338 860 b 401 869 385 869 393 869 b 411 879 406 869 411 875 b 392 889 411 886 406 889 b 269 886 354 889 275 886 b 146 889 263 886 186 889 b 126 879 132 889 126 886 b 136 869 126 875 131 869 b 174 865 144 869 160 868 b 213 801 200 860 210 842 b 215 547 215 764 215 731 l 215 339 b 208 83 215 225 214 132 b 176 21 204 49 200 26 b 139 15 165 18 150 15 b 129 6 132 15 129 10 b 149 -4 129 -1 136 -4 b 269 0 186 -4 263 0 b 422 -4 275 0 354 -4 b 442 6 436 -4 442 0 b 432 15 442 10 439 15 b 376 21 421 15 394 18 b 332 83 340 26 336 49 b 326 339 326 132 326 225 z m 447 1136 b 433 1149 440 1146 438 1149 b 394 1131 426 1149 418 1144 b 206 1013 385 1125 256 1047 b 196 1001 199 1008 196 1006 b 203 993 196 996 200 993 b 224 1000 206 993 214 996 b 435 1058 269 1019 367 1051 b 476 1058 458 1061 472 1058 b 482 1075 482 1058 489 1063 b 447 1136 467 1103 457 1122 z "},"î":{"ha":540,"x_min":0,"x_max":0,"o":"m 326 547 b 328 801 326 731 326 764 b 371 867 331 843 338 860 b 401 869 385 869 393 869 b 411 879 406 869 411 875 b 392 889 411 886 406 889 b 269 886 354 889 275 886 b 146 889 263 886 186 889 b 126 879 132 889 126 886 b 136 869 126 875 131 869 b 174 865 144 869 160 868 b 213 801 200 860 210 842 b 215 547 215 764 215 731 l 215 339 b 208 83 215 225 214 132 b 176 21 204 49 200 26 b 139 15 165 18 150 15 b 129 6 132 15 129 10 b 149 -4 129 -1 136 -4 b 269 0 186 -4 263 0 b 422 -4 275 0 354 -4 b 442 6 436 -4 442 0 b 432 15 442 10 439 15 b 376 21 421 15 394 18 b 332 83 340 26 336 49 b 326 339 326 132 326 225 z m 446 1014 b 453 1026 449 1018 453 1022 b 436 1040 453 1029 449 1032 b 296 1146 418 1054 307 1138 b 274 1160 285 1154 279 1160 b 251 1146 269 1160 263 1156 b 96 1001 236 1132 110 1015 b 88 986 92 996 88 992 b 97 975 88 981 92 975 b 122 989 101 975 111 979 b 240 1076 156 1017 208 1060 b 263 1083 251 1082 257 1083 b 276 1078 267 1083 271 1081 b 393 982 293 1068 365 1013 b 404 975 397 976 400 975 b 417 983 408 975 411 978 z "},"ï":{"ha":540,"x_min":0,"x_max":0,"o":"m 326 547 b 328 801 326 731 326 764 b 371 867 331 843 338 860 b 401 869 385 869 393 869 b 411 879 406 869 411 875 b 392 889 411 886 406 889 b 269 886 354 889 275 886 b 146 889 263 886 186 889 b 126 879 132 889 126 886 b 136 869 126 875 131 869 b 174 865 144 869 160 868 b 213 801 200 860 210 842 b 215 547 215 764 215 731 l 215 339 b 208 83 215 225 214 132 b 176 21 204 49 200 26 b 139 15 165 18 150 15 b 129 6 132 15 129 10 b 149 -4 129 -1 136 -4 b 269 0 186 -4 263 0 b 422 -4 275 0 354 -4 b 442 6 436 -4 442 0 b 432 15 442 10 439 15 b 376 21 421 15 394 18 b 332 83 340 26 336 49 b 326 339 326 132 326 225 z m 408 993 b 469 1057 446 993 469 1021 b 410 1113 469 1092 443 1113 b 350 1053 367 1113 350 1078 b 408 993 350 1026 367 993 z m 129 993 b 190 1057 167 993 190 1021 b 131 1113 190 1092 164 1113 b 71 1053 88 1113 71 1078 b 129 993 71 1026 88 993 z "},"ì":{"ha":540,"x_min":0,"x_max":0,"o":"m 326 547 b 328 801 326 731 326 764 b 371 867 331 843 338 860 b 401 869 385 869 393 869 b 411 879 406 869 411 875 b 392 889 411 886 406 889 b 269 886 354 889 275 886 b 146 889 263 886 186 889 b 126 879 132 889 126 886 b 136 869 126 875 131 869 b 174 865 144 869 160 868 b 213 801 200 860 210 842 b 215 547 215 764 215 731 l 215 339 b 208 83 215 225 214 132 b 176 21 204 49 200 26 b 139 15 165 18 150 15 b 129 6 132 15 129 10 b 149 -4 129 -1 136 -4 b 269 0 186 -4 263 0 b 422 -4 275 0 354 -4 b 442 6 436 -4 442 0 b 432 15 442 10 439 15 b 376 21 421 15 394 18 b 332 83 340 26 336 49 b 326 339 326 132 326 225 z m 340 993 b 353 1000 347 993 353 996 b 326 1019 353 1006 340 1010 b 190 1121 269 1056 201 1110 b 169 1143 178 1133 176 1143 b 147 1136 164 1143 158 1140 b 64 1110 131 1129 93 1118 b 49 1099 54 1107 49 1106 b 89 1075 49 1092 60 1086 b 340 993 111 1067 315 993 z "},"ñ":{"ha":1157,"x_min":0,"x_max":0,"o":"m 253 714 b 569 379 290 672 428 528 b 888 60 699 244 875 71 b 981 -12 956 -3 968 -12 b 990 72 989 -12 990 -6 l 993 764 b 1036 867 993 835 996 858 b 1065 869 1050 869 1060 869 b 1079 881 1074 869 1079 876 b 1057 889 1079 888 1069 889 b 953 886 1007 889 967 886 b 825 889 939 886 881 889 b 801 881 811 889 801 888 b 811 869 801 876 803 869 b 871 864 821 869 849 868 b 917 754 908 857 915 831 l 929 163 b 640 467 892 201 761 342 b 254 869 451 661 274 850 b 207 906 242 882 221 906 b 190 846 197 906 190 893 l 190 169 b 156 22 190 63 186 31 b 106 15 138 17 115 15 b 96 6 100 15 96 11 b 115 -4 96 -3 103 -4 b 233 0 171 -4 222 0 b 363 -4 244 0 293 -4 b 385 6 376 -4 385 -1 b 375 15 385 11 381 15 b 314 22 364 15 336 17 b 267 157 281 31 269 60 z m 676 993 b 792 1089 719 993 781 1067 b 797 1107 796 1097 797 1101 b 788 1115 797 1111 793 1115 b 771 1100 783 1115 776 1108 b 686 1060 767 1094 738 1060 b 606 1083 664 1060 625 1074 b 489 1126 563 1104 522 1126 b 369 1028 444 1126 389 1058 b 360 1007 364 1019 360 1014 b 368 999 360 1003 363 999 b 388 1011 374 999 381 1003 b 472 1061 397 1022 424 1061 b 567 1029 515 1061 542 1040 b 676 993 586 1019 631 993 z "},"ó":{"ha":1122,"x_min":0,"x_max":0,"o":"m 76 444 b 554 -19 76 232 219 -19 b 1044 463 849 -19 1044 199 b 561 906 1044 738 836 906 b 76 444 224 906 76 635 z m 203 476 b 554 861 203 733 350 861 b 919 429 747 861 919 713 b 589 29 919 88 699 29 b 203 476 368 29 203 201 z m 739 1136 b 725 1149 732 1146 729 1149 b 686 1131 718 1149 710 1144 b 497 1013 676 1125 547 1047 b 488 1001 490 1008 488 1006 b 494 993 488 996 492 993 b 515 1000 497 993 506 996 b 726 1058 561 1019 658 1051 b 768 1058 750 1061 764 1058 b 774 1075 774 1058 781 1063 b 739 1136 758 1103 749 1122 z "},"ô":{"ha":1122,"x_min":0,"x_max":0,"o":"m 76 444 b 554 -19 76 232 219 -19 b 1044 463 849 -19 1044 199 b 561 906 1044 738 836 906 b 76 444 224 906 76 635 z m 203 476 b 554 861 203 733 350 861 b 919 429 747 861 919 713 b 589 29 919 88 699 29 b 203 476 368 29 203 201 z m 738 1014 b 744 1026 740 1018 744 1022 b 728 1040 744 1029 740 1032 b 588 1146 710 1054 599 1138 b 565 1160 576 1154 571 1160 b 543 1146 561 1160 554 1156 b 388 1001 528 1132 401 1015 b 379 986 383 996 379 992 b 389 975 379 981 383 975 b 414 989 393 975 403 979 b 532 1076 447 1017 500 1060 b 554 1083 543 1082 549 1083 b 568 1078 558 1083 563 1081 b 685 982 585 1068 657 1013 b 696 975 689 976 692 975 b 708 983 700 975 703 978 z "},"ö":{"ha":1122,"x_min":0,"x_max":0,"o":"m 76 444 b 554 -19 76 232 219 -19 b 1044 463 849 -19 1044 199 b 561 906 1044 738 836 906 b 76 444 224 906 76 635 z m 203 476 b 554 861 203 733 350 861 b 919 429 747 861 919 713 b 589 29 919 88 699 29 b 203 476 368 29 203 201 z m 700 993 b 761 1057 738 993 761 1021 b 701 1113 761 1092 735 1113 b 642 1053 658 1113 642 1078 b 700 993 642 1026 658 993 z m 421 993 b 482 1057 458 993 482 1021 b 422 1113 482 1092 456 1113 b 363 1053 379 1113 363 1078 b 421 993 363 1026 379 993 z "},"ò":{"ha":1122,"x_min":0,"x_max":0,"o":"m 76 444 b 554 -19 76 232 219 -19 b 1044 463 849 -19 1044 199 b 561 906 1044 738 836 906 b 76 444 224 906 76 635 z m 203 476 b 554 861 203 733 350 861 b 919 429 747 861 919 713 b 589 29 919 88 699 29 b 203 476 368 29 203 201 z m 632 993 b 644 1000 639 993 644 996 b 618 1019 644 1006 632 1010 b 482 1121 561 1056 493 1110 b 461 1143 469 1133 468 1143 b 439 1136 456 1143 450 1140 b 356 1110 422 1129 385 1118 b 340 1099 346 1107 340 1106 b 381 1075 340 1092 351 1086 b 632 993 403 1067 607 993 z "},"õ":{"ha":1122,"x_min":0,"x_max":0,"o":"m 76 444 b 554 -19 76 232 219 -19 b 1044 463 849 -19 1044 199 b 561 906 1044 738 836 906 b 76 444 224 906 76 635 z m 203 476 b 554 861 203 733 350 861 b 919 429 747 861 919 713 b 589 29 919 88 699 29 b 203 476 368 29 203 201 z m 672 993 b 788 1089 715 993 776 1067 b 793 1107 792 1097 793 1101 b 783 1115 793 1111 789 1115 b 767 1100 779 1115 772 1108 b 682 1060 763 1094 733 1060 b 601 1083 660 1060 621 1074 b 485 1126 558 1104 518 1126 b 365 1028 440 1126 385 1058 b 356 1007 360 1019 356 1014 b 364 999 356 1003 358 999 b 383 1011 369 999 376 1003 b 468 1061 393 1022 419 1061 b 563 1029 511 1061 538 1040 b 672 993 582 1019 626 993 z "},"š":{"ha":728,"x_min":0,"x_max":0,"o":"m 290 -19 b 485 22 357 -19 433 -11 b 599 224 572 79 599 154 b 399 508 599 325 547 407 l 364 532 b 206 732 243 614 206 657 b 368 860 206 815 279 860 b 526 801 478 860 518 815 b 544 743 533 789 543 757 b 556 728 546 733 547 728 b 565 754 564 728 565 736 b 571 879 565 835 571 874 b 558 888 571 886 568 888 b 515 893 549 888 539 888 b 389 907 486 900 438 907 b 118 685 228 907 118 824 b 293 432 118 603 161 531 l 349 390 b 503 185 457 310 503 269 b 319 28 503 96 440 28 b 126 144 238 28 146 58 b 122 188 122 161 122 178 b 111 201 122 197 118 201 b 101 182 104 201 101 194 b 94 57 100 163 94 115 b 113 13 94 25 96 21 b 290 -19 163 -11 233 -19 z m 201 1118 b 194 1106 199 1114 194 1110 b 211 1092 194 1103 199 1100 b 351 986 229 1078 340 994 b 372 972 363 976 368 972 b 396 986 378 972 385 976 b 551 1131 411 1000 538 1117 b 560 1146 556 1136 560 1140 b 550 1157 560 1151 556 1157 b 525 1143 546 1157 536 1153 b 407 1056 492 1115 439 1072 b 385 1049 396 1050 390 1049 b 371 1054 381 1049 376 1051 b 254 1150 353 1063 282 1119 b 243 1157 250 1156 247 1157 b 231 1149 239 1157 236 1154 z "},"ú":{"ha":1017,"x_min":0,"x_max":0,"o":"m 153 374 b 260 64 153 201 200 119 b 514 -19 346 -17 474 -19 b 769 67 586 -19 681 -10 b 883 421 867 150 883 293 l 883 547 b 885 801 883 731 882 764 b 928 867 888 840 894 860 b 958 869 943 869 950 869 b 968 879 964 869 968 875 b 949 889 968 886 963 889 b 846 886 913 889 854 886 b 714 889 839 886 768 889 b 694 879 700 889 694 886 b 704 869 694 875 699 869 b 746 867 715 869 736 868 b 794 801 786 861 793 839 b 797 547 796 764 797 731 l 797 399 b 728 113 797 278 785 181 b 539 29 686 63 614 29 b 357 93 469 29 417 39 b 267 382 304 140 267 211 l 267 547 b 269 801 267 731 267 764 b 311 867 272 840 279 861 b 342 869 326 869 333 869 b 353 879 347 869 353 875 b 332 889 353 886 346 889 b 208 886 296 889 219 886 b 68 889 197 886 124 889 b 49 879 54 889 49 886 b 58 869 49 875 54 869 b 100 867 69 869 90 868 b 150 801 140 861 147 839 b 153 547 153 764 153 731 z m 686 1136 b 672 1149 679 1146 676 1149 b 633 1131 665 1149 657 1144 b 444 1013 624 1125 494 1047 b 435 1001 438 1008 435 1006 b 442 993 435 996 439 993 b 463 1000 444 993 453 996 b 674 1058 508 1019 606 1051 b 715 1058 697 1061 711 1058 b 721 1075 721 1058 728 1063 b 686 1136 706 1103 696 1122 z "},"û":{"ha":1017,"x_min":0,"x_max":0,"o":"m 153 374 b 260 64 153 201 200 119 b 514 -19 346 -17 474 -19 b 769 67 586 -19 681 -10 b 883 421 867 150 883 293 l 883 547 b 885 801 883 731 882 764 b 928 867 888 840 894 860 b 958 869 943 869 950 869 b 968 879 964 869 968 875 b 949 889 968 886 963 889 b 846 886 913 889 854 886 b 714 889 839 886 768 889 b 694 879 700 889 694 886 b 704 869 694 875 699 869 b 746 867 715 869 736 868 b 794 801 786 861 793 839 b 797 547 796 764 797 731 l 797 399 b 728 113 797 278 785 181 b 539 29 686 63 614 29 b 357 93 469 29 417 39 b 267 382 304 140 267 211 l 267 547 b 269 801 267 731 267 764 b 311 867 272 840 279 861 b 342 869 326 869 333 869 b 353 879 347 869 353 875 b 332 889 353 886 346 889 b 208 886 296 889 219 886 b 68 889 197 886 124 889 b 49 879 54 889 49 886 b 58 869 49 875 54 869 b 100 867 69 869 90 868 b 150 801 140 861 147 839 b 153 547 153 764 153 731 z m 685 1014 b 692 1026 688 1018 692 1022 b 675 1040 692 1029 688 1032 b 535 1146 657 1054 546 1138 b 513 1160 524 1154 518 1160 b 490 1146 508 1160 501 1156 b 335 1001 475 1132 349 1015 b 326 986 331 996 326 992 b 336 975 326 981 331 975 b 361 989 340 975 350 979 b 479 1076 394 1017 447 1060 b 501 1083 490 1082 496 1083 b 515 1078 506 1083 510 1081 b 632 982 532 1068 604 1013 b 643 975 636 976 639 975 b 656 983 647 975 650 978 z "},"ü":{"ha":1017,"x_min":0,"x_max":0,"o":"m 153 374 b 260 64 153 201 200 119 b 514 -19 346 -17 474 -19 b 769 67 586 -19 681 -10 b 883 421 867 150 883 293 l 883 547 b 885 801 883 731 882 764 b 928 867 888 840 894 860 b 958 869 943 869 950 869 b 968 879 964 869 968 875 b 949 889 968 886 963 889 b 846 886 913 889 854 886 b 714 889 839 886 768 889 b 694 879 700 889 694 886 b 704 869 694 875 699 869 b 746 867 715 869 736 868 b 794 801 786 861 793 839 b 797 547 796 764 797 731 l 797 399 b 728 113 797 278 785 181 b 539 29 686 63 614 29 b 357 93 469 29 417 39 b 267 382 304 140 267 211 l 267 547 b 269 801 267 731 267 764 b 311 867 272 840 279 861 b 342 869 326 869 333 869 b 353 879 347 869 353 875 b 332 889 353 886 346 889 b 208 886 296 889 219 886 b 68 889 197 886 124 889 b 49 879 54 889 49 886 b 58 869 49 875 54 869 b 100 867 69 869 90 868 b 150 801 140 861 147 839 b 153 547 153 764 153 731 z m 674 993 b 735 1057 711 993 735 1021 b 675 1113 735 1092 708 1113 b 615 1053 632 1113 615 1078 b 674 993 615 1026 632 993 z m 394 993 b 456 1057 432 993 456 1021 b 396 1113 456 1092 429 1113 b 336 1053 353 1113 336 1078 b 394 993 336 1026 353 993 z "},"ù":{"ha":1017,"x_min":0,"x_max":0,"o":"m 153 374 b 260 64 153 201 200 119 b 514 -19 346 -17 474 -19 b 769 67 586 -19 681 -10 b 883 421 867 150 883 293 l 883 547 b 885 801 883 731 882 764 b 928 867 888 840 894 860 b 958 869 943 869 950 869 b 968 879 964 869 968 875 b 949 889 968 886 963 889 b 846 886 913 889 854 886 b 714 889 839 886 768 889 b 694 879 700 889 694 886 b 704 869 694 875 699 869 b 746 867 715 869 736 868 b 794 801 786 861 793 839 b 797 547 796 764 797 731 l 797 399 b 728 113 797 278 785 181 b 539 29 686 63 614 29 b 357 93 469 29 417 39 b 267 382 304 140 267 211 l 267 547 b 269 801 267 731 267 764 b 311 867 272 840 279 861 b 342 869 326 869 333 869 b 353 879 347 869 353 875 b 332 889 353 886 346 889 b 208 886 296 889 219 886 b 68 889 197 886 124 889 b 49 879 54 889 49 886 b 58 869 49 875 54 869 b 100 867 69 869 90 868 b 150 801 140 861 147 839 b 153 547 153 764 153 731 z m 606 993 b 618 1000 613 993 618 996 b 592 1019 618 1006 606 1010 b 456 1121 535 1056 467 1110 b 435 1143 443 1133 442 1143 b 413 1136 429 1143 424 1140 b 329 1110 396 1129 358 1118 b 314 1099 319 1107 314 1106 b 354 1075 314 1092 325 1086 b 606 993 376 1067 581 993 z "},"ý":{"ha":800,"x_min":0,"x_max":0,"o":"m 354 201 b 351 83 354 182 354 132 b 315 21 349 49 340 26 b 279 15 304 18 290 15 b 269 6 272 15 269 10 b 289 -4 269 -1 275 -4 b 408 0 325 -4 403 0 b 563 -4 415 0 494 -4 b 582 6 575 -4 582 0 b 572 15 582 10 579 15 b 517 21 561 15 533 18 b 469 83 481 26 472 49 b 465 201 465 132 465 182 l 465 303 b 481 421 465 342 460 379 b 718 796 506 471 678 749 b 779 854 744 828 756 840 b 836 869 799 865 822 869 b 851 882 846 869 851 876 b 836 889 851 886 844 889 b 717 886 813 889 725 886 b 632 889 707 886 664 889 b 613 882 619 889 613 886 b 631 868 613 876 619 871 b 650 838 644 864 650 854 b 629 776 650 822 644 803 b 429 435 607 738 454 485 l 207 803 b 190 849 199 818 190 832 b 206 868 190 858 196 864 b 225 881 217 872 225 876 b 208 889 225 886 222 889 b 103 886 161 889 111 886 b -18 889 97 886 6 889 b -33 881 -29 889 -33 886 b -21 869 -33 875 -28 869 b 31 853 -11 869 13 864 b 111 767 53 838 82 811 b 328 424 153 704 318 442 b 354 303 346 390 354 367 z m 578 1136 b 564 1149 571 1146 568 1149 b 525 1131 557 1149 549 1144 b 336 1013 515 1125 386 1047 b 326 1001 329 1008 326 1006 b 333 993 326 996 331 993 b 354 1000 336 993 344 996 b 565 1058 400 1019 497 1051 b 607 1058 589 1061 603 1058 b 613 1075 613 1058 619 1063 b 578 1136 597 1103 588 1122 z "},"ÿ":{"ha":800,"x_min":0,"x_max":0,"o":"m 354 201 b 351 83 354 182 354 132 b 315 21 349 49 340 26 b 279 15 304 18 290 15 b 269 6 272 15 269 10 b 289 -4 269 -1 275 -4 b 408 0 325 -4 403 0 b 563 -4 415 0 494 -4 b 582 6 575 -4 582 0 b 572 15 582 10 579 15 b 517 21 561 15 533 18 b 469 83 481 26 472 49 b 465 201 465 132 465 182 l 465 303 b 481 421 465 342 460 379 b 718 796 506 471 678 749 b 779 854 744 828 756 840 b 836 869 799 865 822 869 b 851 882 846 869 851 876 b 836 889 851 886 844 889 b 717 886 813 889 725 886 b 632 889 707 886 664 889 b 613 882 619 889 613 886 b 631 868 613 876 619 871 b 650 838 644 864 650 854 b 629 776 650 822 644 803 b 429 435 607 738 454 485 l 207 803 b 190 849 199 818 190 832 b 206 868 190 858 196 864 b 225 881 217 872 225 876 b 208 889 225 886 222 889 b 103 886 161 889 111 886 b -18 889 97 886 6 889 b -33 881 -29 889 -33 886 b -21 869 -33 875 -28 869 b 31 853 -11 869 13 864 b 111 767 53 838 82 811 b 328 424 153 704 318 442 b 354 303 346 390 354 367 z m 551 993 b 613 1057 589 993 613 1021 b 553 1113 613 1092 586 1113 b 493 1053 510 1113 493 1078 b 551 993 493 1026 510 993 z m 272 993 b 333 1057 310 993 333 1021 b 274 1113 333 1092 307 1113 b 214 1053 231 1113 214 1078 b 272 993 214 1026 231 993 z "},"ž":{"ha":846,"x_min":0,"x_max":0,"o":"m 239 51 b 779 856 424 319 601 583 b 786 876 785 863 786 871 b 761 886 786 883 779 886 l 419 886 b 206 889 381 886 322 885 b 154 897 174 890 165 897 b 143 875 147 897 144 892 b 118 718 136 839 118 732 b 125 703 118 708 119 703 b 142 724 132 703 139 706 b 211 817 146 751 168 794 b 385 836 250 838 322 836 l 643 836 b 111 46 475 574 294 311 b 94 10 96 24 94 15 b 117 0 94 1 103 0 b 742 -6 331 0 538 -6 b 778 25 769 -6 771 -4 b 803 161 786 54 803 124 b 793 188 803 183 800 188 b 779 169 786 188 782 181 b 754 106 775 153 767 121 b 564 51 726 72 693 51 z m 275 1118 b 268 1106 272 1114 268 1110 b 285 1092 268 1103 272 1100 b 425 986 303 1078 414 994 b 446 972 436 976 442 972 b 469 986 451 972 458 976 b 625 1131 485 1000 611 1117 b 633 1146 629 1136 633 1140 b 624 1157 633 1151 629 1157 b 599 1143 619 1157 610 1153 b 481 1056 565 1115 513 1072 b 458 1049 469 1050 464 1049 b 444 1054 454 1049 450 1051 b 328 1150 426 1063 356 1119 b 317 1157 324 1156 321 1157 b 304 1149 313 1157 310 1154 z "},"":{"ha":444,"x_min":0,"x_max":0,"o":"m 199 286 b 219 214 201 232 206 214 b 236 258 233 214 235 239 b 268 868 239 292 267 843 b 289 1051 275 971 289 1042 b 281 1065 289 1063 286 1065 b 260 1058 275 1065 271 1064 b 157 964 221 1039 176 997 b 150 944 153 957 150 951 b 156 918 150 938 153 929 b 176 656 167 875 175 676 z m 222 -24 b 294 51 265 -24 294 10 b 224 118 294 92 264 118 b 153 47 174 118 153 76 b 222 -24 153 15 174 -24 z "},"":{"ha":990,"x_min":0,"x_max":0,"o":"m 375 -19 b 694 107 564 -19 665 79 b 960 -4 835 4 865 -4 l 1085 -4 b 1107 4 1096 -4 1107 0 b 1089 13 1107 11 1100 13 b 936 60 1043 13 976 38 b 760 176 900 79 844 110 b 886 454 815 240 886 358 b 864 478 886 467 883 476 b 711 486 792 486 742 486 b 690 478 701 486 690 483 b 706 469 690 472 697 469 b 768 451 725 469 751 467 b 792 393 788 433 792 411 b 726 197 792 321 763 242 b 486 408 686 229 529 365 b 289 711 353 542 289 619 b 446 861 289 822 369 861 b 571 811 501 861 543 839 b 614 713 603 781 614 743 b 621 690 614 694 614 690 b 633 711 626 690 629 693 b 643 846 638 729 643 810 b 626 876 643 860 642 868 b 471 906 592 894 536 906 b 197 689 300 906 197 782 b 260 525 197 636 213 586 b 64 240 160 471 64 378 b 375 -19 64 138 151 -19 z m 419 46 b 169 296 276 46 169 149 b 279 494 169 390 213 454 b 429 329 315 446 396 363 b 661 131 463 296 589 185 b 419 46 618 89 539 46 z "},"":{"ha":858,"x_min":0,"x_max":0,"o":"m 85 418 b 418 -24 85 238 167 -24 b 775 472 643 -24 775 189 b 439 911 775 653 694 911 b 85 418 211 911 85 701 z m 196 467 b 413 868 196 714 282 868 b 664 422 586 868 664 626 b 444 19 664 176 575 19 b 196 467 268 19 196 260 z "},"":{"ha":653,"x_min":0,"x_max":0,"o":"m 407 519 b 414 881 407 732 414 869 b 400 910 414 894 411 910 b 367 893 390 910 379 901 l 99 714 b 89 700 93 710 89 704 b 97 688 89 694 93 688 b 114 693 103 688 107 689 b 272 760 149 710 246 760 b 297 717 294 760 297 744 b 299 506 297 640 299 581 l 299 335 b 294 103 299 196 299 164 b 236 26 292 60 282 35 b 125 17 210 21 142 17 b 114 6 119 17 114 11 b 136 -4 114 -1 121 -4 b 349 0 225 -4 342 0 b 549 -4 356 0 444 -4 b 572 6 565 -4 572 -1 b 561 17 572 11 567 17 b 469 25 549 17 490 21 b 414 103 425 35 419 60 b 407 335 407 164 407 196 z "},"":{"ha":771,"x_min":0,"x_max":0,"o":"m 579 0 b 669 39 638 0 658 6 b 711 211 683 83 711 188 b 703 231 711 218 710 231 b 686 211 694 231 690 225 b 524 90 669 143 625 100 b 286 83 474 86 310 83 l 186 83 b 183 90 179 83 176 85 b 667 679 378 218 667 392 b 351 911 667 815 561 911 b 107 865 239 911 158 886 b 93 847 94 858 93 854 b 101 690 93 807 100 701 b 113 674 103 679 107 674 b 125 693 119 674 125 682 b 176 814 125 743 143 785 b 322 861 217 850 256 861 b 546 656 415 861 546 839 b 58 49 546 397 276 213 b 33 18 47 40 33 28 b 53 0 33 8 43 0 z "},"":{"ha":751,"x_min":0,"x_max":0,"o":"m 543 238 b 313 36 543 96 443 36 b 119 189 176 36 129 97 b 110 206 118 201 117 206 b 99 188 103 206 100 200 b 90 39 94 161 90 94 b 111 6 90 25 93 17 b 269 -24 139 -8 217 -24 b 660 283 499 -24 660 118 b 442 513 660 421 524 494 l 442 519 b 618 733 481 536 618 614 b 358 911 618 793 569 911 b 150 871 263 911 189 889 b 133 846 135 861 133 857 b 142 728 133 818 136 765 b 151 714 143 717 147 714 b 161 728 156 714 161 715 b 322 861 161 819 228 861 b 504 708 475 861 504 758 b 303 501 504 569 367 513 b 274 488 286 499 274 496 b 307 472 274 479 282 476 b 543 238 392 457 543 397 z "},"":{"ha":799,"x_min":0,"x_max":0,"o":"m 571 699 b 572 890 571 769 572 871 b 560 911 572 903 568 911 b 533 889 551 911 543 903 b 68 310 493 832 75 318 b 56 283 63 303 56 293 b 82 268 56 272 67 268 l 475 268 b 472 97 475 225 478 154 b 418 19 468 58 460 26 b 360 17 399 17 371 17 b 350 6 353 17 350 11 b 369 -4 350 -1 356 -4 b 515 0 439 -4 507 0 b 674 -4 524 0 604 -4 b 693 6 688 -4 693 -1 b 682 17 693 11 689 17 b 626 21 669 17 644 17 b 572 97 586 31 576 58 b 571 268 567 154 571 225 l 686 268 b 713 285 701 268 706 272 b 724 340 718 300 724 333 b 717 354 724 347 724 354 b 665 342 711 354 699 342 l 571 342 z m 475 342 l 150 342 b 472 742 174 374 453 710 l 475 742 z "},"":{"ha":750,"x_min":0,"x_max":0,"o":"m 247 804 l 496 804 b 613 719 600 804 613 769 b 619 703 613 710 614 703 b 631 717 625 703 629 710 b 647 883 643 813 647 871 b 639 896 647 894 644 896 b 611 892 635 896 626 893 b 535 888 596 889 572 888 l 224 888 b 199 869 210 888 200 883 l 171 556 b 206 532 169 542 179 533 b 540 246 307 526 540 458 b 308 35 540 64 419 35 b 128 204 213 35 128 63 b 118 226 128 219 126 226 b 106 203 113 226 108 217 b 100 38 99 161 100 82 b 125 0 100 25 103 13 b 247 -24 158 -18 208 -24 b 643 296 514 -24 643 125 b 231 624 643 531 399 599 z "},"":{"ha":775,"x_min":0,"x_max":0,"o":"m 578 213 b 399 24 578 72 499 24 b 189 310 254 24 189 160 b 519 876 189 613 358 786 b 543 900 532 883 543 890 b 533 911 543 907 539 911 b 507 903 528 911 518 908 b 81 310 264 794 81 558 b 375 -24 81 78 200 -24 b 592 61 468 -24 533 3 b 682 271 647 117 682 171 b 431 513 682 385 604 513 b 285 468 360 513 310 486 b 274 451 278 463 274 458 b 278 442 274 444 274 442 b 294 447 282 442 290 446 b 389 465 324 461 357 465 b 578 213 465 465 578 390 z "},"":{"ha":764,"x_min":0,"x_max":0,"o":"m 232 886 b 107 897 146 886 115 897 b 93 881 99 897 93 893 b 74 693 93 869 74 731 b 82 674 74 681 75 674 b 93 690 89 674 92 679 b 144 782 97 724 117 761 b 267 811 176 806 228 811 l 592 811 b 197 28 393 501 249 182 b 190 -12 193 17 190 0 b 201 -24 190 -21 193 -24 b 331 47 228 -24 331 24 b 331 89 331 60 328 69 b 675 851 350 242 568 710 b 683 874 682 861 683 869 b 660 886 683 881 676 886 z "},"":{"ha":810,"x_min":0,"x_max":0,"o":"m 103 207 b 397 -24 103 64 236 -24 b 704 236 582 -24 704 97 b 479 497 704 382 564 456 b 665 728 551 529 665 603 b 428 911 665 844 563 911 b 153 697 239 911 153 788 b 333 472 153 593 232 528 b 103 207 215 429 103 340 z m 407 21 b 203 218 286 21 203 114 b 378 453 203 338 282 410 b 606 210 494 397 606 339 b 407 21 606 106 526 21 z m 413 871 b 574 714 513 871 574 804 b 436 515 574 592 486 543 b 244 719 331 568 244 619 b 413 871 244 786 296 871 z "},"":{"ha":819,"x_min":0,"x_max":0,"o":"m 211 671 b 393 863 211 813 292 863 b 604 572 539 863 604 724 b 271 1 604 267 433 93 b 246 -21 258 -6 246 -11 b 257 -35 246 -28 251 -35 b 283 -25 263 -35 272 -31 b 714 572 529 83 714 322 b 417 911 714 807 594 911 b 197 825 324 911 257 883 b 107 613 142 769 107 714 b 361 368 107 499 185 368 b 508 413 432 368 483 394 b 519 428 515 418 519 421 b 514 438 519 435 518 438 b 497 433 510 438 501 435 b 403 417 468 419 436 417 b 211 671 325 417 211 492 z "},"":{"ha":678,"x_min":0,"x_max":0,"o":"m 310 1018 b 472 839 436 1018 472 907 b 350 547 472 747 447 671 b 254 432 319 508 286 474 b 224 363 233 406 224 382 b 264 281 224 338 236 315 b 322 232 281 260 310 232 b 338 244 328 232 338 239 b 325 268 338 249 335 256 b 299 339 306 294 299 318 b 356 450 299 363 304 385 b 594 849 489 615 594 686 b 343 1065 594 949 526 1065 b 113 1010 236 1065 154 1035 b 97 988 99 1001 97 996 b 103 825 97 933 99 844 b 114 811 104 815 107 811 b 125 835 121 811 124 821 b 174 964 129 882 140 924 b 310 1018 196 992 242 1018 z m 311 -24 b 383 51 354 -24 383 10 b 313 118 383 92 353 118 b 242 47 263 118 242 76 b 311 -24 242 15 263 -24 z "},"":{"ha":867,"x_min":0,"x_max":0,"o":"m 114 126 b 11 18 90 67 67 25 b -25 15 1 17 -17 15 b -36 6 -31 15 -36 11 b -12 -4 -36 -1 -28 -4 b 111 0 38 -4 99 0 b 221 -4 125 0 192 -4 b 239 6 232 -4 239 -1 b 226 15 239 11 236 15 l 215 15 b 174 47 194 15 174 24 b 192 126 174 68 181 97 l 261 315 b 274 325 264 322 268 325 l 556 325 b 567 318 563 325 564 324 l 676 47 b 665 15 685 28 672 18 b 657 7 660 13 657 13 b 700 -1 657 0 676 0 b 893 -4 785 -4 875 -4 b 921 6 907 -4 921 -1 b 906 15 921 13 913 15 b 857 22 893 15 875 17 b 753 151 831 31 797 46 b 460 868 678 331 482 818 b 431 911 447 894 443 911 b 401 865 422 911 417 904 z m 290 374 b 286 382 286 374 285 376 l 400 706 b 421 706 407 724 414 724 l 542 382 b 538 374 543 376 543 374 z "},"":{"ha":853,"x_min":0,"x_max":0,"o":"m 215 339 b 208 83 215 225 215 132 b 176 18 203 49 200 22 b 139 13 165 17 150 13 b 129 6 132 13 129 10 b 149 -4 129 -1 136 -4 b 272 0 186 -4 265 0 b 351 -3 278 0 313 -1 b 457 -7 390 -6 435 -7 b 764 256 665 -7 764 124 b 549 501 764 389 642 474 b 672 708 611 557 672 615 b 415 889 672 771 619 889 b 272 886 358 889 301 886 b 131 889 265 886 186 889 b 111 879 117 889 111 886 b 121 872 111 875 117 872 b 163 869 132 872 153 871 b 213 801 203 864 210 842 b 215 547 215 764 215 731 z m 321 833 b 336 846 321 840 325 843 b 399 851 356 850 385 851 b 571 661 521 851 571 751 b 524 535 571 604 550 564 b 404 504 499 507 472 504 b 329 510 358 504 336 508 b 321 522 324 511 321 514 z m 321 457 b 328 465 321 463 324 465 b 424 463 347 465 408 465 b 533 432 453 457 492 458 b 650 217 629 371 650 269 b 471 35 650 65 551 35 b 364 51 449 35 397 36 b 322 140 326 69 326 83 b 321 392 321 158 321 300 z "},"":{"ha":983,"x_min":0,"x_max":0,"o":"m 628 -19 b 849 7 707 -19 799 -12 b 879 42 869 15 872 19 b 908 193 892 82 908 185 b 897 210 908 201 903 210 b 885 193 889 210 888 206 b 838 94 881 171 864 121 b 636 39 789 46 728 39 b 196 467 375 39 196 240 b 306 775 196 586 215 692 b 581 857 349 815 424 857 b 821 792 689 857 778 828 b 872 674 853 767 872 719 b 882 649 872 657 874 649 b 896 674 889 649 894 656 b 899 794 897 690 897 756 b 904 861 901 838 904 851 b 889 874 904 868 901 874 b 764 892 849 875 810 883 b 586 906 704 901 635 906 b 214 779 399 906 288 850 b 76 457 106 674 76 536 b 225 107 76 344 106 210 b 628 -19 321 24 444 -19 z "},"":{"ha":1124,"x_min":0,"x_max":0,"o":"m 215 339 b 208 83 215 225 215 132 b 176 21 203 49 200 26 b 139 15 165 18 150 15 b 129 6 132 15 129 10 b 149 -4 129 -1 136 -4 b 222 -1 168 -4 197 -3 b 272 0 247 -1 269 0 b 372 -7 278 0 319 -3 b 543 -14 425 -10 490 -14 b 914 122 751 -14 861 68 b 1046 454 982 192 1046 306 b 926 754 1046 594 988 693 b 436 889 782 900 558 889 b 272 886 364 889 286 886 b 131 889 265 886 186 889 b 111 879 117 889 111 886 b 121 869 111 875 117 869 b 163 867 132 869 153 868 b 213 801 203 861 210 842 b 215 547 215 764 215 731 z m 326 814 b 342 838 326 828 331 833 b 415 846 353 842 392 846 b 811 714 561 846 696 831 b 926 418 861 664 926 568 b 831 138 926 310 894 197 b 544 31 757 68 657 31 b 342 78 400 31 357 56 b 328 163 332 90 329 133 b 326 419 326 185 326 294 z "},"":{"ha":765,"x_min":0,"x_max":0,"o":"m 215 339 b 208 83 215 225 215 132 b 176 21 203 49 200 25 b 139 15 165 19 150 15 b 129 6 132 15 129 10 b 149 -4 129 -1 136 -4 b 219 -1 168 -4 196 -3 b 272 0 246 0 269 0 b 374 -3 290 0 322 0 b 586 -7 424 -4 494 -7 b 654 24 633 -7 646 -7 b 671 138 661 49 671 129 b 663 156 671 146 669 156 b 650 138 656 156 653 151 b 594 56 643 90 626 69 b 472 43 563 43 504 43 b 326 138 351 43 329 58 b 326 339 325 161 326 299 l 326 438 b 335 446 326 442 328 446 b 519 440 356 446 486 444 b 582 404 567 435 578 421 b 588 365 588 389 588 376 b 596 354 588 358 590 354 b 607 376 604 354 607 367 b 613 453 607 385 610 429 b 622 518 615 492 622 511 b 615 528 622 525 619 528 b 597 513 611 528 606 521 b 538 496 585 500 567 499 b 333 493 510 493 349 493 b 326 506 326 493 326 497 l 326 826 b 333 839 326 835 328 839 b 510 835 347 839 489 838 b 597 799 576 826 589 818 b 604 757 603 785 604 765 b 614 742 604 747 607 742 b 625 754 619 742 624 749 b 632 832 628 768 631 821 b 642 888 635 865 642 879 b 636 899 642 893 640 899 b 619 893 631 899 625 894 b 564 886 610 892 588 888 b 272 886 536 885 281 886 b 131 889 265 886 186 889 b 111 879 117 889 111 886 b 121 869 111 875 117 869 b 163 867 132 869 153 868 b 213 801 203 861 210 842 b 215 547 215 764 215 731 z "},"":{"ha":743,"x_min":0,"x_max":0,"o":"m 215 339 b 208 83 215 225 215 132 b 176 21 203 49 200 25 b 139 15 165 19 150 15 b 129 6 132 15 129 10 b 149 -4 129 -1 136 -4 b 269 0 186 -4 263 0 b 422 -4 275 0 354 -4 b 442 6 436 -4 442 0 b 432 15 442 10 439 15 b 376 21 421 15 394 18 b 332 83 343 26 336 49 b 326 339 326 129 326 222 l 326 433 b 335 444 326 442 328 444 b 531 442 356 444 500 446 b 593 404 568 436 588 421 b 601 361 599 390 600 374 b 610 350 601 356 603 350 b 621 374 618 350 621 363 b 625 453 621 382 622 429 b 636 518 628 492 636 511 b 629 528 636 524 635 528 b 614 515 625 528 619 522 b 557 494 603 501 586 497 b 501 493 540 493 522 493 l 335 492 b 326 503 326 492 326 496 l 326 825 b 336 838 326 835 329 838 l 536 835 b 619 800 583 835 613 815 b 631 756 626 785 631 765 b 640 742 631 747 635 742 b 651 754 646 742 650 749 b 657 832 654 768 656 821 b 667 888 661 865 667 879 b 658 899 667 893 664 899 b 642 892 654 899 649 893 b 586 886 631 888 610 888 b 269 886 558 885 293 886 b 131 889 263 886 186 889 b 111 879 117 889 111 886 b 121 869 111 875 117 869 b 163 867 132 869 153 868 b 213 801 203 861 210 842 b 215 547 215 764 215 731 z "},"":{"ha":1054,"x_min":0,"x_max":0,"o":"m 790 93 b 765 57 790 71 781 65 b 633 35 733 39 676 35 b 321 158 521 35 418 68 b 192 485 278 199 192 318 b 313 782 192 622 242 728 b 568 858 406 853 494 858 b 850 767 726 858 819 811 b 878 689 869 739 876 704 b 886 671 878 678 879 671 b 900 696 894 671 900 676 b 907 863 900 814 907 846 b 892 874 907 868 904 874 b 793 886 861 874 818 881 b 606 906 769 892 683 906 b 281 831 513 906 390 897 b 76 443 172 765 76 632 b 222 107 76 296 147 169 b 625 -19 358 -8 532 -19 b 885 33 696 -19 807 -7 b 901 97 900 42 901 43 l 901 229 b 903 351 901 279 901 314 b 949 417 906 393 915 411 b 979 419 963 419 971 419 b 989 429 983 419 989 425 b 969 439 989 438 983 439 b 850 436 932 439 856 436 b 706 439 843 436 761 439 b 686 429 692 439 686 438 b 696 419 686 425 692 419 b 738 417 707 419 728 418 b 790 297 788 407 790 393 z "},"":{"ha":1176,"x_min":0,"x_max":0,"o":"m 961 547 b 964 801 961 731 961 764 b 1006 867 967 843 974 860 b 1036 869 1021 869 1028 869 b 1047 879 1042 869 1047 875 b 1026 889 1047 886 1040 889 b 906 886 990 889 913 886 b 767 889 900 886 821 889 b 747 879 753 889 747 886 b 757 869 747 875 751 869 b 799 867 768 869 789 868 b 847 801 839 861 844 842 b 850 544 849 764 850 728 l 850 519 b 843 513 850 513 847 513 l 333 513 b 326 519 329 513 326 513 l 326 544 b 328 801 326 728 326 764 b 371 867 331 843 338 860 b 401 869 385 869 393 869 b 411 879 406 869 411 875 b 392 889 411 886 406 889 b 271 886 354 889 276 886 b 131 889 264 886 186 889 b 111 879 117 889 111 886 b 121 869 111 875 117 869 b 163 867 132 869 153 868 b 213 801 203 861 210 842 b 215 547 215 764 215 731 l 215 339 b 208 83 215 225 215 132 b 176 21 203 49 200 26 b 139 15 165 18 150 15 b 129 6 132 15 129 10 b 149 -4 129 -1 136 -4 b 271 0 186 -4 264 0 b 422 -4 276 0 354 -4 b 442 6 436 -4 442 0 b 432 15 442 10 439 15 b 376 21 421 15 394 18 b 332 83 340 26 336 49 b 326 336 326 132 326 222 l 326 454 b 333 461 326 460 329 461 l 843 461 b 850 454 847 461 850 460 l 850 336 b 844 85 850 222 850 133 b 811 21 840 50 836 26 b 775 15 800 18 786 15 b 765 6 768 15 765 10 b 785 -4 765 -1 771 -4 b 906 0 821 -4 900 0 b 1057 -4 913 0 990 -4 b 1078 6 1071 -4 1078 0 b 1067 15 1078 10 1075 15 b 1013 21 1057 15 1029 18 b 968 83 975 26 972 49 b 961 339 963 132 961 225 z "},"":{"ha":540,"x_min":0,"x_max":0,"o":"m 326 547 b 328 801 326 731 326 764 b 371 867 331 843 338 860 b 401 869 385 869 393 869 b 411 879 406 869 411 875 b 392 889 411 886 406 889 b 269 886 354 889 275 886 b 146 889 263 886 186 889 b 126 879 132 889 126 886 b 136 869 126 875 131 869 b 174 865 144 869 160 868 b 213 801 200 860 210 842 b 215 547 215 764 215 731 l 215 339 b 208 83 215 225 214 132 b 176 21 204 49 200 26 b 139 15 165 18 150 15 b 129 6 132 15 129 10 b 149 -4 129 -1 136 -4 b 269 0 186 -4 263 0 b 422 -4 275 0 354 -4 b 442 6 436 -4 442 0 b 432 15 442 10 439 15 b 376 21 421 15 394 18 b 332 83 340 26 336 49 b 326 339 326 132 326 225 z "},"":{"ha":513,"x_min":0,"x_max":0,"o":"m 326 547 b 328 801 326 731 326 764 b 371 867 331 843 338 860 b 401 869 385 869 393 869 b 411 879 406 869 411 875 b 392 889 411 886 406 889 b 272 886 354 889 278 886 b 131 889 265 886 186 889 b 111 879 117 889 111 886 b 121 869 111 875 117 869 b 163 867 132 869 153 868 b 213 801 203 861 210 842 b 215 547 215 764 215 731 l 215 206 b 99 -239 215 -99 178 -160 b 56 -271 88 -249 71 -262 b 40 -290 44 -278 40 -283 b 49 -297 40 -296 46 -297 b 57 -296 53 -297 56 -296 b 107 -265 69 -289 90 -276 b 286 -85 206 -200 260 -144 b 326 264 322 -1 326 72 z "},"":{"ha":925,"x_min":0,"x_max":0,"o":"m 215 339 b 208 83 215 225 215 132 b 176 21 203 49 200 26 b 139 15 165 18 150 15 b 129 6 132 15 129 10 b 149 -4 129 -1 136 -4 b 269 0 186 -4 260 0 b 413 -4 279 0 353 -4 b 432 6 426 -4 432 0 b 422 15 432 10 429 15 b 375 21 411 15 392 18 b 328 83 338 26 332 49 b 322 339 322 132 322 225 l 322 454 l 328 454 b 699 71 386 385 643 114 b 847 -1 751 31 783 4 b 932 -4 875 -4 897 -4 l 994 -4 b 1021 6 1015 -4 1021 0 b 1006 15 1021 11 1014 15 b 931 32 997 15 963 19 b 756 163 872 56 858 71 b 419 497 706 208 451 463 b 685 754 446 526 654 726 b 813 854 739 806 763 832 b 881 871 836 864 863 871 b 893 881 890 871 893 875 b 875 889 893 886 888 889 b 757 886 844 889 764 886 b 665 889 728 886 690 889 b 651 881 657 889 651 886 b 663 869 651 876 656 871 b 678 846 672 868 678 861 b 611 761 678 826 646 796 b 328 476 565 714 347 499 l 322 476 l 322 547 b 325 801 322 731 322 764 b 368 867 328 843 336 860 b 399 869 383 869 390 869 b 408 879 404 869 408 875 b 389 889 408 886 403 889 b 268 886 353 889 279 886 b 131 889 261 886 186 889 b 111 879 117 889 111 886 b 121 869 111 875 117 869 b 163 867 132 869 153 868 b 213 801 203 861 210 842 b 215 547 215 764 215 731 z "},"":{"ha":743,"x_min":0,"x_max":0,"o":"m 326 547 b 328 801 326 731 326 764 b 374 868 331 843 338 861 b 414 871 388 869 406 871 b 424 879 418 871 424 875 b 404 889 424 886 417 889 b 269 886 367 889 275 886 b 131 889 263 886 186 889 b 111 879 117 889 111 886 b 121 869 111 875 117 869 b 163 867 132 869 153 868 b 213 801 203 861 210 842 b 215 547 215 764 215 731 l 215 339 b 208 83 215 225 215 132 b 176 21 203 49 200 26 b 139 15 165 18 150 15 b 129 6 132 15 129 10 b 149 -4 129 -1 136 -4 b 219 -1 168 -4 194 -3 b 269 0 243 0 264 0 b 403 -3 306 0 347 -1 b 615 -7 460 -6 528 -7 b 693 25 681 -7 685 -3 b 711 143 703 60 711 131 b 703 161 711 156 708 161 b 690 146 696 161 692 154 b 661 79 686 122 676 97 b 514 43 632 44 578 43 b 351 71 418 43 371 51 b 326 336 329 92 326 163 z "},"":{"ha":1283,"x_min":0,"x_max":0,"o":"m 1047 874 b 1029 906 1044 896 1038 906 b 1010 886 1021 906 1015 897 l 654 154 l 285 888 b 260 906 278 901 268 906 b 246 885 253 906 247 897 l 157 114 b 110 19 151 69 150 26 b 74 15 92 17 83 15 b 61 7 67 15 61 11 b 82 -4 61 -1 69 -4 b 185 0 115 -4 174 0 b 299 -4 194 0 253 -4 b 321 7 313 -4 321 -1 b 311 15 321 11 315 15 b 264 22 303 15 285 17 b 235 56 246 26 235 38 b 236 115 235 75 235 97 l 283 649 l 289 649 b 444 326 310 600 408 401 b 588 53 475 263 556 111 b 629 -1 611 10 618 -1 b 672 61 640 -1 647 10 l 967 664 l 969 664 l 1028 67 b 1022 25 1031 44 1029 26 b 1014 15 1017 24 1014 19 b 1049 3 1014 10 1019 6 b 1257 -4 1093 -1 1229 -4 b 1282 7 1271 -4 1282 0 b 1272 15 1282 13 1278 15 b 1193 26 1260 15 1228 15 b 1131 149 1143 43 1135 107 z "},"":{"ha":1157,"x_min":0,"x_max":0,"o":"m 253 714 b 569 379 290 672 428 528 b 888 60 699 244 875 71 b 981 -12 956 -3 968 -12 b 990 72 989 -12 990 -6 l 993 764 b 1036 867 993 835 996 858 b 1065 869 1050 869 1060 869 b 1079 881 1074 869 1079 876 b 1057 889 1079 888 1069 889 b 953 886 1007 889 967 886 b 825 889 939 886 881 889 b 801 881 811 889 801 888 b 811 869 801 876 803 869 b 871 864 821 869 849 868 b 917 754 908 857 915 831 l 929 163 b 640 467 892 201 761 342 b 254 869 451 661 274 850 b 207 906 242 882 221 906 b 190 846 197 906 190 893 l 190 169 b 156 22 190 63 186 31 b 106 15 138 17 115 15 b 96 6 100 15 96 11 b 115 -4 96 -3 103 -4 b 233 0 171 -4 222 0 b 363 -4 244 0 293 -4 b 385 6 376 -4 385 -1 b 375 15 385 11 381 15 b 314 22 364 15 336 17 b 267 157 281 31 269 60 z "},"":{"ha":1122,"x_min":0,"x_max":0,"o":"m 76 444 b 554 -19 76 232 219 -19 b 1044 463 849 -19 1044 199 b 561 906 1044 738 836 906 b 76 444 224 906 76 635 z m 203 476 b 554 861 203 733 350 861 b 919 429 747 861 919 713 b 589 29 919 88 699 29 b 203 476 368 29 203 201 z "},"":{"ha":814,"x_min":0,"x_max":0,"o":"m 215 339 b 208 83 215 225 215 132 b 176 21 203 49 200 26 b 139 15 165 18 150 15 b 129 6 132 15 129 10 b 149 -4 129 -1 136 -4 b 269 0 186 -4 265 0 b 422 -4 275 0 356 -4 b 442 6 436 -4 442 0 b 432 15 442 10 439 15 b 378 21 421 15 394 18 b 329 83 340 26 333 49 b 324 339 324 132 324 225 l 324 819 b 333 842 324 832 326 840 b 401 850 346 844 381 850 b 567 793 429 850 503 857 b 636 614 632 729 636 653 b 410 424 636 507 542 424 b 378 411 385 424 378 421 b 390 400 378 406 385 400 b 425 399 397 399 418 399 b 740 681 613 399 740 511 b 679 822 740 744 707 797 b 446 889 658 840 603 889 b 272 886 390 889 299 886 b 131 889 263 886 186 889 b 111 879 117 889 111 886 b 121 869 111 875 117 869 b 163 867 132 869 153 868 b 213 801 203 861 210 842 b 215 547 215 764 215 731 z "},"":{"ha":1125,"x_min":0,"x_max":0,"o":"m 950 -93 b 1456 -249 1147 -200 1307 -249 b 1844 -167 1636 -249 1775 -197 b 1854 -154 1851 -164 1854 -160 b 1847 -146 1854 -151 1851 -146 b 1829 -150 1843 -146 1838 -147 b 1590 -196 1744 -181 1651 -196 b 1078 -57 1529 -196 1344 -189 l 828 67 b 1043 463 908 117 1043 256 b 560 906 1043 736 835 906 b 75 444 222 906 75 635 b 554 -19 75 232 217 -19 b 747 17 619 -19 703 -6 z m 200 476 b 551 861 200 735 347 861 b 918 429 744 861 918 710 b 586 29 918 89 696 29 b 200 476 365 29 200 204 z "}}}
